<?xml version="1.0" standalone="no"?>
<!DOCTYPE svg PUBLIC "-//W3C//DTD SVG 1.1//EN" "http://www.w3.org/Graphics/SVG/1.1/DTD/svg11.dtd" >
<svg>
<metadata>
Created by FontForge 20090914 at Thu Nov 22 19:32:05 2012
 By www-data
Copyright 1981-1983, 1989,1993, 1998 Heidelberger Druckmaschinen AG. All rights reserved. The  digitally encoded machine readable outline data for producing the Typefaces licensed are the property of Heidelberger Druckmaschinen AG and/or its subsidiaries, represented by Linotype Library GmbH, Dupont Strasse 1, 61352 Bad Homburg Germany. Portions &#194;&#169; 1996-1998 Microsoft Corporation. All Rights Reserved. 
</metadata>
<defs>
<font id="PalatinoLinotype-BoldItalic" horiz-adv-x="1139" >
  <font-face 
    font-family="Palatino Linotype"
    font-weight="700"
    font-style="italic"
    font-stretch="normal"
    units-per-em="2048"
    panose-1="2 4 7 2 6 3 5 10 2 4"
    ascent="1638"
    descent="-410"
    x-height="975"
    cap-height="1412"
    bbox="-320 -596.005 2673 2150"
    underline-thickness="103"
    underline-position="-205"
    slope="-10"
    unicode-range="U+0020-U+FFFC"
  />
<missing-glyph horiz-adv-x="1024" 
d="M102 0v1092h820v-1092h-820zM204 102h616v888h-616v-888z" />
    <glyph glyph-name="IJ" unicode="IJ" horiz-adv-x="1515" 
d="M8 -7l-7 8.00195l6 50l9 9c6 0.666992 21.333 1.66699 46 3c56 2 89.5 6.66699 100.5 14s20.833 21.666 29.5 42.999s26.334 109 53.001 263l93 532c34.667 200.667 52 322.667 52 366c0 12 -2.16699 21.667 -6.5 29s-11.5 13 -21.5 17s-30.667 7 -62 9l-92 5l-7 8l8 54
l9 9c90.667 -4.66699 196 -7 316 -7c49.333 0 157.333 2.33301 324 7l6 -8l-9 -55l-9 -8c-76 -2.66699 -118.667 -5.33398 -128 -8.00098c-10.667 -3.33301 -19.5 -8 -26.5 -14s-13.167 -15.333 -18.5 -28c-8.66699 -21.333 -23.334 -86.333 -44.001 -195l-131 -759
c-18 -114 -27 -184.667 -27 -212c0 -21.333 7 -36.333 21 -45s35 -13.667 63 -15l104 -5l7 -8l-6 -50l-9 -9c-77.333 4.66699 -187 7 -329 7c-109.333 0 -214 -2.33301 -314 -7zM957 1341l-6 7.99902l7 54l10 9c90.667 -4.66699 195.667 -7 315 -7
c50.667 0 158.667 2.33301 324 7l7 -8l-9 -55l-9 -8c-74 -2.66699 -116.5 -5.33398 -127.5 -8.00098s-20.167 -7.16699 -27.5 -13.5s-14.5 -17.666 -21.5 -33.999s-18.833 -69.833 -35.5 -160.5l-132 -764c-29.333 -178.667 -50.666 -295.334 -63.999 -350.001
c-26 -106.667 -63.333 -196.667 -112 -270s-103 -125.166 -163 -155.499s-132 -45.5 -216 -45.5c-30.667 0 -60.334 3.33301 -89.001 10l-16 46l9 17c22.667 -2.66699 45 -4 67 -4c61.333 0 106.166 8.83301 134.499 26.5s52 47.167 71 88.5s45.167 162.333 78.5 363
l119 712c46 274 69 434 69 480c0 17.333 -4.16699 30 -12.5 38s-18.666 12.833 -30.999 14.5s-58.833 4.83398 -139.5 9.50098z" />
    <glyph glyph-name="ij" unicode="ij" horiz-adv-x="1326" 
d="M393 1285c0 41.333 13.001 76.668 39.001 106.001s59.333 44 100 44c34.667 0 62 -10.5 82 -31.5s30 -48.167 30 -81.5c0 -40.667 -12 -77.5 -36 -110.5s-57.667 -49.5 -101 -49.5c-40.667 0 -69.834 11.667 -87.501 35s-26.5 52.666 -26.5 87.999zM79.001 679.002
l-20 35.001l2 13c117.333 91.333 208.833 156 274.5 194s116.834 57 153.501 57c16.667 0 31 -7.16699 43 -21.5s18 -32.5 18 -54.5c0 -29.333 -5.16699 -66.333 -15.5 -111s-32.166 -129.334 -65.499 -254.001c-58 -214.667 -87 -339 -87 -373
c0 -9.33301 2.83301 -17.5 8.5 -24.5s12.167 -10.5 19.5 -10.5c20 0 73.333 31 160 93l12 -1l22 -40l-4 -13l-167 -114.5c-64.667 -43 -110.834 -69.833 -138.501 -80.5s-51.834 -16 -72.501 -16c-26 0 -45.333 9.66699 -58 29s-19 44.333 -19 75s3.83301 65.5 11.5 104.5
s24.167 106.5 49.5 202.5c56 214 84 340 84 378c0 18.667 -7.66699 28 -23 28c-25.333 0 -83.333 -32 -174 -96zM1098 1285c0 42 13.167 77.499 39.5 106.499s59.833 43.5 100.5 43.5c34.667 0 61.834 -10.333 81.501 -31s29.5 -48 29.5 -82
c0 -43.333 -12.333 -80.833 -37 -112.5s-58 -47.5 -100 -47.5c-38.667 0 -67.334 11.333 -86.001 34s-28 52.334 -28 89.001zM555.001 -570.998c11.333 40 18.332 95 20.999 165l28 6c22.667 -32 41.334 -51.5 56.001 -58.5s28.334 -10.5 41.001 -10.5
c12 0 22.667 3.66699 32 11c14.667 12 27 34 37 66c17.333 56.667 53.333 219 108 487l87 445c20.667 108 31 175.667 31 203c0 21.333 -7.33301 32 -22 32c-25.333 0 -84.333 -32.333 -177 -97l-13 1l-21 35l2 13c141.333 107.333 240.5 176 297.5 206s103.167 45 138.5 45
s53 -27.667 53 -83c0 -35.333 -16 -123.333 -48 -264l-68 -296c-40 -168.667 -74.667 -304.5 -104 -407.5s-60.333 -183 -93 -240s-78.667 -115.5 -138 -175.5c-38.667 -40 -70.834 -65.667 -96.501 -77s-53.834 -17 -84.501 -17c-23.333 0 -45.666 3.66699 -66.999 11z" />
    <glyph glyph-name="ff" unicode="ff" horiz-adv-x="1312" 
d="M944 936c18 92 31.8369 149.166 41.5039 171.499s23 44.833 40 67.5s47.5 53.5 91.5 92.5s97.167 82 159.5 129s107.166 75.833 134.499 86.5s56 16 86 16s60 -5.66699 90 -17c-26.667 -92.667 -45.667 -179 -57 -259l-30 -7c-51.333 78.667 -102.333 118 -153 118
c-47.333 0 -81.166 -30.167 -101.499 -90.5s-43.833 -162.833 -70.5 -307.5h23c12.667 0 49.5 1.66699 110.5 5s101.5 7 121.5 11l10 -16c-15.333 -40.667 -25.333 -72.334 -30 -95.001l-11 -10c-16 1.33301 -62 2 -138 2c-54.667 0 -90.334 -0.666992 -107.001 -2l-77 -343
c-30.667 -135.333 -61 -258.333 -91 -369c-41.333 -150.667 -81.666 -264.667 -120.999 -342s-89.166 -146.333 -149.499 -207s-114.833 -102.667 -163.5 -126c-30 -14 -58.667 -21 -86 -21c-24 0 -49.333 6 -76 18c32 82.667 54 156.667 66 222l33 6
c25.333 -60.667 58.666 -91 99.999 -91c13.333 0 26.5 3.5 39.5 10.5s25.333 18.667 37 35s26 57.833 43 124.5s37.833 165.334 62.5 296.001l75 393l77 394h-399l-77 -343c-30.667 -135.333 -61.334 -258.333 -92.001 -369
c-40.667 -150.667 -80.834 -264.667 -120.501 -342s-89.5 -146.333 -149.5 -207s-114.667 -102.667 -164 -126c-29.333 -14 -57.666 -21 -84.999 -21c-22.667 0 -48 6 -76 18c32 82.667 54 156.667 66 222l32 6c26 -60.667 59.333 -91 100 -91c21.333 0 41.333 8 60 24
s37.667 60.5 57 133.5s50.666 224.833 93.999 455.5l122 640c-42 1.33301 -72.333 2 -91 2c-30.667 0 -61.334 -0.666992 -92.001 -2l-6 9l6 36l11 11c16 6 46.333 15.333 91 28c45.333 12.667 80.333 25 105 37c2 4.66699 6.33301 23 13 55
c11.333 49.333 21.333 84.833 30 106.5s23.667 45.5 45 71.5s60.166 62.833 116.499 110.5s108.833 88.834 157.5 123.501s85.167 56.667 109.5 66s51.166 14 80.499 14c31.333 0 61.333 -5.66699 90 -17c-27.333 -92.667 -46.333 -179 -57 -259l-30 -7
c-51.333 78.667 -102.666 118 -153.999 118c-46.667 0 -80.167 -30.167 -100.5 -90.5s-43.833 -162.833 -70.5 -307.5h399z" />
    <glyph glyph-name="fi" unicode="fi" horiz-adv-x="1251" 
d="M947 1482c-26 -88.667 -44.999 -174.996 -56.999 -258.996l-30 -7c-51.333 78.667 -102.666 118 -153.999 118c-18.667 0 -36.167 -5.83301 -52.5 -17.5s-29 -27.5 -38 -47.5s-21.5 -63 -37.5 -129s-30.333 -134 -43 -204h206c74.667 0 127.167 1.66699 157.5 5
s68.166 12 113.499 26c51.333 16 84.333 24 99 24c19.333 0 35.333 -6.33301 48 -19s19 -30.334 19 -53.001c0 -16 -2.83301 -37.833 -8.5 -65.5s-25.167 -96.834 -58.5 -207.501l-94 -312c-24.667 -79.333 -37 -131.666 -37 -156.999c0 -12.667 3.33301 -22 10 -28
s13.667 -9 21 -9c27.333 0 81.666 29 162.999 87l12 -1l21 -37l-4 -14c-135.333 -96 -227.666 -156 -276.999 -180s-87 -36 -113 -36c-24 0 -43.333 8.83301 -58 26.5s-22 39.167 -22 64.5c0 38 5.5 79 16.5 123s41.833 149.667 92.5 317l38 129l34 111
c12.667 40.667 19.834 65.5 21.501 74.5s2.5 16.5 2.5 22.5c0 23.333 -11 35 -33 35c-9.33301 0 -22.333 -3.66699 -39 -11c-33.333 -13.333 -70.333 -20 -111 -20h-241l-78 -347c-32 -142.667 -63.333 -268.667 -94 -378c-40.667 -146.667 -80.5 -257.834 -119.5 -333.501
s-88.5 -143.667 -148.5 -204s-114 -101.833 -162 -124.5c-30 -14 -58.667 -21 -86 -21c-24 0 -49.333 6 -76 18c32 82.667 54 156.667 66 222l32 6c26 -60.667 59.333 -91 100 -91c14 0 27.5 3.5 40.5 10.5s25.167 18.5 36.5 34.5s25.5 57 42.5 123s37.5 162.333 61.5 289
l74 387l78 409c-38 1.33301 -68.333 2 -91 2c-34.667 0 -65.334 -0.666992 -92.001 -2l-7 9l7 36l11 11c15.333 5.33301 45.666 14.666 90.999 27.999s80.333 25.666 105 36.999c3.33301 10 7.33301 26.667 12 50c12.667 60.667 26.667 105.5 42 134.5s44.5 63.5 87.5 103.5
s98 86 165 138s115.833 85.167 146.5 99.5s63.667 21.5 99 21.5c29.333 0 59.333 -5.66699 90 -17zM1029 1292c0 41.333 13.167 76.666 39.5 105.999s59.833 44 100.5 44c32.667 0 59.334 -10.167 80.001 -30.5s31 -47.833 31 -82.5c0 -44 -12.167 -81.667 -36.5 -113
s-57.833 -47 -100.5 -47c-38.667 0 -67.334 11.333 -86.001 34s-28 52.334 -28 89.001z" />
    <glyph glyph-name="fl" unicode="fl" horiz-adv-x="1251" 
d="M1300 1500l24.002 -24.998c-22.667 -73.333 -51.334 -175.666 -86.001 -306.999l-95 -363l-78 -305c-24 -93.333 -41 -164.5 -51 -213.5s-15.5 -78.167 -16.5 -87.5s-1.5 -17.666 -1.5 -24.999c0 -13.333 3.5 -23.5 10.5 -30.5s14.833 -10.5 23.5 -10.5
c10 0 24 4.83301 42 14.5s52.333 31.834 103 66.501l13 -1l20 -37l-3 -13c-128 -90 -213.333 -146.833 -256 -170.5s-79 -35.5 -109 -35.5c-27.333 0 -49.166 9.66699 -65.499 29s-24.5 45 -24.5 77c0 34 3.16699 66.333 9.5 97s25.833 109 58.5 235
c143.333 545.333 215 852.333 215 921c0 26.667 -19.667 40 -59 40c-21.333 0 -41.333 -1.33301 -60 -4c-10.667 -46 -18.667 -89 -24 -129l-30 -7c-51.333 78.667 -102.666 118 -153.999 118c-18.667 0 -36.167 -5.83301 -52.5 -17.5s-29 -27.334 -38 -47.001
s-21.833 -63.834 -38.5 -132.501s-30.667 -135.667 -42 -201h23c13.333 0 50.5 1.66699 111.5 5s100.833 7 119.5 11l10 -16c-14 -38 -23.667 -69.667 -29 -95l-11 -10c-23.333 1.33301 -69.333 2 -138 2c-55.333 0 -91 -0.666992 -107 -2l-78 -347
c-32 -142.667 -63.333 -268.667 -94 -378c-40.667 -146.667 -80.5 -257.834 -119.5 -333.501s-88.5 -143.667 -148.5 -204s-114 -101.833 -162 -124.5c-30 -14 -58.667 -21 -86 -21c-24 0 -49.333 6 -76 18c32 82.667 54 156.667 66 222l32 6c26 -60.667 59.333 -91 100 -91
c14 0 27.5 3.5 40.5 10.5s25.167 18.5 36.5 34.5s25.5 57 42.5 123s37.5 162.333 61.5 289l74 387l78 409c-38 1.33301 -68.333 2 -91 2c-34.667 0 -65.334 -0.666992 -92.001 -2l-7 9l18 47c15.333 5.33301 45.666 14.666 90.999 27.999s80.333 25.666 105 36.999
c2 4.66699 6.33301 22.667 13 54c10.667 49.333 20.5 85 29.5 107s24.667 46.333 47 73s61.5 63.667 117.5 111s108.167 88.333 156.5 123s84.666 56.5 108.999 65.5s51.5 13.5 81.5 13.5c28 0 57.333 -5.66699 88 -17c-8 -28 -14 -50 -18 -66c173.333 24 297 52 371 84z
" />
    <glyph glyph-name="ffi" unicode="ffi" horiz-adv-x="1947" 
d="M918 831l-393.997 0.000976562l-77 -343c-30.667 -135.333 -61.334 -258.333 -92.001 -369c-40.667 -150.667 -80.834 -264.667 -120.501 -342s-89.5 -146.333 -149.5 -207s-114.667 -102.667 -164 -126c-29.333 -14 -57.666 -21 -84.999 -21c-22.667 0 -48 6 -76 18
c32 82.667 54 156.667 66 222l32 6c26 -60.667 59.333 -91 100 -91c21.333 0 41.333 8 60 24s37.667 60.5 57 133.5s50.666 224.833 93.999 455.5l122 640c-42 1.33301 -72.333 2 -91 2c-30.667 0 -61.334 -0.666992 -92.001 -2l-6 9l6 36l11 11c16 6 46.333 15.333 91 28
c45.333 12.667 80.333 25 105 37c2 4.66699 6.33301 23 13 55c11.333 49.333 21.333 84.833 30 106.5s23.667 45.5 45 71.5s60.166 62.833 116.499 110.5s108.833 88.834 157.5 123.501s85.167 56.667 109.5 66s51.166 14 80.499 14c31.333 0 61.333 -5.66699 90 -17
c-27.333 -92.667 -46.333 -179 -57 -259l-30 -7c-51.333 78.667 -102.666 118 -153.999 118c-46.667 0 -80.167 -30.167 -100.5 -90.5s-43.833 -162.833 -70.5 -307.5h395c18.667 90 34 149.667 46 179s35 61.666 69 96.999s89.833 83.833 167.5 145.5
s133.334 100.667 167.001 117s68.834 24.5 105.501 24.5c31.333 0 61 -5.66699 89 -17c-26.667 -92.667 -45.667 -179 -57 -259l-29 -7c-52 78.667 -103.333 118 -154 118c-22 0 -43.833 -9 -65.5 -27s-43 -73.833 -64 -167.5s-35.167 -161.5 -42.5 -203.5h206
c74.667 0 127.167 1.66699 157.5 5s68.166 12 113.499 26c51.333 16 84.666 24 99.999 24c20 0 36 -6.5 48 -19.5s18 -30.5 18 -52.5c0 -16.667 -2.83301 -38.5 -8.5 -65.5s-25.167 -96.167 -58.5 -207.5l-93 -312c-25.333 -78.667 -38 -131.334 -38 -158.001
c0 -12 3.33301 -21 10 -27s14 -9 22 -9c28 0 82.333 29 163 87l11 -1l22 -37l-4 -14c-137.333 -97.333 -230.333 -157.666 -279 -180.999s-85.667 -35 -111 -35c-24.667 0 -44.167 8.83301 -58.5 26.5s-21.5 39.167 -21.5 64.5c0 28.667 3.33301 60.667 10 96
s29 115.666 67 240.999l102 340c16 50.667 24 82.667 24 96c0 26 -10.667 39 -32 39c-8.66699 0 -21 -3.33301 -37 -10c-36 -14 -76.667 -21 -122 -21h-232l-77 -343c-30.667 -135.333 -61 -258.333 -91 -369c-41.333 -150.667 -81.666 -264.667 -120.999 -342
s-89.166 -146.333 -149.499 -207s-114.833 -102.667 -163.5 -126c-30 -14 -58.667 -21 -86 -21c-24 0 -49.333 6 -76 18c32.667 82.667 54.667 156.667 66 222l33 6c25.333 -60.667 58.666 -91 99.999 -91c13.333 0 26.333 3.16699 39 9.5s24 15.833 34 28.5
s23 47.167 39 103.5s39.333 164.833 70 325.5l91 477zM1667 1292c0 42 13.168 77.501 39.501 106.501s59.5 43.5 99.5 43.5c34 0 61.167 -10.333 81.5 -31s30.5 -48 30.5 -82c0 -44 -12.333 -81.667 -37 -113s-58 -47 -100 -47c-38.667 0 -67.334 11.167 -86.001 33.5
s-28 52.166 -28 89.499z" />
    <glyph glyph-name="ffl" unicode="ffl" horiz-adv-x="1892" 
d="M923 831l-398.993 -0.000976562l-77 -343c-30.667 -135.333 -61.334 -258.333 -92.001 -369c-40.667 -150.667 -80.834 -264.667 -120.501 -342s-89.5 -146.333 -149.5 -207s-114.667 -102.667 -164 -126c-29.333 -14 -57.666 -21 -84.999 -21c-22.667 0 -48 6 -76 18
c32 82.667 54 156.667 66 222l32 6c26 -60.667 59.333 -91 100 -91c21.333 0 41.333 8 60 24s37.667 60.5 57 133.5s50.666 224.833 93.999 455.5l122 640c-42 1.33301 -72.333 2 -91 2c-30.667 0 -61.334 -0.666992 -92.001 -2l-6 9l6 36l11 11c16 6 46.333 15.333 91 28
c45.333 12.667 80.333 25 105 37c2 4.66699 6.33301 23 13 55c11.333 49.333 21.333 84.833 30 106.5s23.667 45.5 45 71.5s60.166 62.833 116.499 110.5s108.833 88.834 157.5 123.501s85.167 56.667 109.5 66s51.166 14 80.499 14c31.333 0 61.333 -5.66699 90 -17
c-27.333 -92.667 -46.333 -179 -57 -259l-30 -7c-51.333 78.667 -102.666 118 -153.999 118c-46.667 0 -80.167 -30.167 -100.5 -90.5s-43.833 -162.833 -70.5 -307.5h399c18.667 90.667 33.834 150.334 45.501 179.001s35.5 61.5 71.5 98.5s92.167 85.833 168.5 146.5
s131.166 99 164.499 115s68.666 24 105.999 24c29.333 0 58.666 -5.66699 87.999 -17c-7.33301 -25.333 -13.333 -47.333 -18 -66c170 23.333 293.667 51.333 371 84l24 -25c-24 -78 -53.333 -183 -88 -315l-95 -360l-77 -301c-23.333 -92.667 -40 -163.5 -50 -212.5
s-15.5 -78.333 -16.5 -88s-1.5 -17.834 -1.5 -24.501c0 -12.667 3.33301 -22.667 10 -30s14.334 -11 23.001 -11c10.667 0 24.5 4.5 41.5 13.5s51.833 31.5 104.5 67.5l12 -1l21 -37l-3 -13c-126 -88.667 -210.5 -145 -253.5 -169s-79.5 -36 -109.5 -36
c-30.667 0 -53.834 10 -69.501 30s-23.5 45 -23.5 75c0 34 3.16699 66 9.5 96s26.166 108.667 59.499 236c142.667 544.667 214 851.334 214 920.001c0 27.333 -19.333 41 -58 41c-22 0 -42 -1.33301 -60 -4c-10.667 -46.667 -18.667 -89.667 -24 -129l-30 -7
c-51.333 78.667 -102.666 118 -153.999 118c-46.667 0 -80.334 -30.167 -101.001 -90.5s-44 -162.833 -70 -307.5h23c12 0 48.5 1.66699 109.5 5s101.5 7 121.5 11l10 -16c-15.333 -40.667 -25.333 -72.334 -30 -95.001l-11 -10c-16 1.33301 -62 2 -138 2
c-54 0 -89.667 -0.666992 -107 -2l-76 -343c-30.667 -135.333 -61.334 -258.333 -92.001 -369c-41.333 -150.667 -81.666 -264.667 -120.999 -342s-89.166 -146.333 -149.499 -207s-114.833 -102.667 -163.5 -126c-29.333 -14 -58 -21 -86 -21c-23.333 0 -48.333 6 -75 18
c32 82.667 54 156.667 66 222l32 6c25.333 -60.667 58.666 -91 99.999 -91c18 0 35.333 5.83301 52 17.5s31 33.5 43 65.5c23.333 62.667 60.333 232.667 111 510z" />
    <glyph glyph-name="germandblS" unicode="SS" horiz-adv-x="2277" 
d="M1032 1045l-10.0029 -8h-48l-8 9c1.33301 24 2 42 2 54l-2 103c-23.333 35.333 -59.5 63.166 -108.5 83.499s-101.5 30.5 -157.5 30.5c-54 0 -103.667 -10.5 -149 -31.5s-80 -54 -104 -99s-36 -94.167 -36 -147.5c0 -41.333 7.33301 -75.333 22 -102
s33.667 -47.834 57 -63.501s48.5 -28 75.5 -37s78.833 -20.833 155.5 -35.5c68 -13.333 119.5 -26.666 154.5 -39.999s64.5 -31.666 88.5 -54.999s43.167 -53.833 57.5 -91.5s21.5 -79.5 21.5 -125.5c0 -90 -27.833 -176.667 -83.5 -260s-127 -149.5 -214 -198.5
s-184.833 -73.5 -293.5 -73.5c-67.333 0 -132.833 9.66699 -196.5 29s-116.5 45 -158.5 77l-4 12c6 20.667 15.5 70.334 28.5 149.001s20.167 128.667 21.5 150l11 9h47l8 -8l-2 -112c0 -9.33301 0.666992 -28.333 2 -57c18.667 -31.333 57.834 -61.666 117.501 -90.999
s123.167 -44 190.5 -44c102.667 0 179.5 28.667 230.5 86s76.5 122.333 76.5 195c0 32.667 -5.5 62 -16.5 88s-24.5 46.167 -40.5 60.5s-34.667 25.5 -56 33.5s-54.666 17.333 -99.999 28c-108 26 -186.167 49.667 -234.5 71s-87.166 56.5 -116.499 105.5
s-44 110.833 -44 185.5c0 101.333 27.667 190.666 83 267.999s124.333 137.166 207 179.499s171.667 63.5 267 63.5c119.333 0 222 -29.667 308 -89l4 -11c-23.333 -95.333 -41 -192 -53 -290zM2171 1045l-10.0029 -8h-48l-8 9c1.33301 24 2 42 2 54l-2 103
c-23.333 35.333 -59.5 63.166 -108.5 83.499s-101.5 30.5 -157.5 30.5c-54 0 -103.667 -10.5 -149 -31.5s-80 -54 -104 -99s-36 -94.167 -36 -147.5c0 -41.333 7.33301 -75.333 22 -102s33.667 -47.834 57 -63.501s48.5 -28 75.5 -37s78.833 -20.833 155.5 -35.5
c68 -13.333 119.5 -26.666 154.5 -39.999s64.5 -31.666 88.5 -54.999s43.167 -53.833 57.5 -91.5s21.5 -79.5 21.5 -125.5c0 -90 -27.833 -176.667 -83.5 -260s-127 -149.5 -214 -198.5s-184.833 -73.5 -293.5 -73.5c-67.333 0 -132.833 9.66699 -196.5 29
s-116.5 45 -158.5 77l-4 12c6 20.667 15.5 70.334 28.5 149.001s20.167 128.667 21.5 150l11 9h47l8 -8l-2 -112c0 -9.33301 0.666992 -28.333 2 -57c18.667 -31.333 57.834 -61.666 117.501 -90.999s123.167 -44 190.5 -44c102.667 0 179.5 28.667 230.5 86
s76.5 122.333 76.5 195c0 32.667 -5.5 62 -16.5 88s-24.5 46.167 -40.5 60.5s-34.667 25.5 -56 33.5s-54.666 17.333 -99.999 28c-108 26 -186.167 49.667 -234.5 71s-87.166 56.5 -116.499 105.5s-44 110.833 -44 185.5c0 101.333 27.667 190.666 83 267.999
s124.333 137.166 207 179.499s171.667 63.5 267 63.5c119.333 0 222 -29.667 308 -89l4 -11c-23.333 -95.333 -41 -192 -53 -290z" />
    <glyph glyph-name="ch" unicode="ch" horiz-adv-x="1945" 
d="M810 229l22.9961 -41.999l-3 -12c-114 -82 -207.667 -139.333 -281 -172s-142.666 -49 -207.999 -49c-52 0 -99.333 12.5 -142 37.5s-73.167 59.5 -91.5 103.5s-27.5 90.667 -27.5 140c0 60 6.83301 123.667 20.5 191s31 125.833 52 175.5s41.333 86.834 61 111.501
s42.667 46.667 69 66s73.166 49.666 140.499 90.999c48.667 31.333 82 51.666 100 60.999s41.333 17.5 70 24.5s59.334 10.5 92.001 10.5c64 0 134.667 -16.333 212 -49l3 -11c-10 -24 -22.167 -66.167 -36.5 -126.5s-23.833 -109.166 -28.5 -146.499l-11 -9h-51l-7 9
c5.33301 36 8 69 8 99c0 6 -0.333008 16 -1 30c-57.333 50 -118.666 75 -183.999 75c-47.333 0 -84.666 -8.83301 -111.999 -26.5s-50.166 -43.834 -68.499 -78.501s-38.666 -98.5 -60.999 -191.5s-33.5 -175.833 -33.5 -248.5c0 -60 13.667 -108.333 41 -145
s65 -55 113 -55c39.333 0 83.166 8.83301 131.499 26.5s114.833 54.5 199.5 110.5h11zM1351 1495l25 -22.0029c-96.667 -410 -168.667 -730 -216 -960c91.333 144.667 191.833 258.167 301.5 340.5s198.834 123.5 267.501 123.5c55.333 0 83 -29 83 -87
c0 -32 -4.5 -68.167 -13.5 -108.5s-34.833 -137.833 -77.5 -292.5c-46.667 -169.333 -70 -274.333 -70 -315c0 -29.333 9.33301 -44 28 -44c12.667 0 28 5.33301 46 16s49.333 32.334 94 65.001l12 -1l21 -35l-3 -14c-113.333 -85.333 -195 -140.666 -245 -165.999
s-90 -38 -120 -38c-19.333 0 -36.166 8 -50.499 24s-21.5 42.333 -21.5 79c0 25.333 2.83301 52.833 8.5 82.5s21.167 91.5 46.5 185.5c64.667 241.333 97 378.666 97 411.999c0 30 -12.667 45 -38 45c-20 0 -45.667 -9.66699 -77 -29
c-50 -31.333 -100.667 -80.666 -152 -147.999s-94.666 -142 -129.999 -224c-22.667 -54 -46.667 -130 -72 -228c-16 -63.333 -24 -114 -24 -152c-20.667 0 -55.167 -5 -103.5 -15s-84.5 -18.333 -108.5 -25l-20 19c44 145.333 89.167 339.666 135.5 582.999
s79.166 428 98.499 554l17 105c5.33301 30 8 51 8 63c0 15.333 -4.33301 27.333 -13 36s-24.334 13.334 -47.001 14.001s-56.334 1.33398 -101.001 2.00098l-9 9l7 43l9 9c144 18 279.667 49.333 407 94z" />
    <glyph glyph-name="ck" unicode="ck" horiz-adv-x="1897" 
d="M810 229l22.9961 -41.999l-3 -12c-114 -82 -207.667 -139.333 -281 -172s-142.666 -49 -207.999 -49c-52 0 -99.333 12.5 -142 37.5s-73.167 59.5 -91.5 103.5s-27.5 90.667 -27.5 140c0 60 6.83301 123.667 20.5 191s31 125.833 52 175.5s41.333 86.834 61 111.501
s42.667 46.667 69 66s73.166 49.666 140.499 90.999c48.667 31.333 82 51.666 100 60.999s41.333 17.5 70 24.5s59.334 10.5 92.001 10.5c64 0 134.667 -16.333 212 -49l3 -11c-10 -24 -22.167 -66.167 -36.5 -126.5s-23.833 -109.166 -28.5 -146.499l-11 -9h-51l-7 9
c5.33301 36 8 69 8 99c0 6 -0.333008 16 -1 30c-57.333 50 -118.666 75 -183.999 75c-47.333 0 -84.666 -8.83301 -111.999 -26.5s-50.166 -43.834 -68.499 -78.501s-38.666 -98.5 -60.999 -191.5s-33.5 -175.833 -33.5 -248.5c0 -60 13.667 -108.333 41 -145
s65 -55 113 -55c39.333 0 83.166 8.83301 131.499 26.5s114.833 54.5 199.5 110.5h11zM952.996 1340l-9.00391 8.99707l7 43l9 9c145.333 18 281 49.333 407 94l25 -22c-33.333 -133.333 -107 -472 -221 -1016c2.66699 2.66699 28.334 33.667 77.001 93
c62.667 76.667 118.167 141 166.5 193s97.166 96.833 146.499 134.5s92.666 63.5 129.999 77.5s76.333 21 117 21c18 0 36.333 -2 55 -6l4 -12c-20 -67.333 -32.333 -118 -37 -152l-11 -8c-39.333 12.667 -69.666 19 -90.999 19c-43.333 0 -91.666 -12.667 -144.999 -38
s-104.666 -66.666 -153.999 -123.999l69.5 -193.5c39 -107.667 70.833 -186.167 95.5 -235.5s42.834 -78.5 54.501 -87.5s22.5 -13.5 32.5 -13.5c25.333 0 73 24 143 72l11 -1l22 -39l-3 -14c-26.667 -16.667 -53.334 -34.334 -80.001 -53.001
c-127.333 -88.667 -212.666 -133 -255.999 -133c-12 0 -23 2.66699 -33 8s-22.167 18.166 -36.5 38.499s-29.666 51.333 -45.999 93l-74 196c-33 89 -54.833 150.167 -65.5 183.5c-37.333 -38.667 -63.5 -69.167 -78.5 -91.5s-25.833 -42.666 -32.5 -60.999
s-15.667 -55.5 -27 -111.5s-19 -97.167 -23 -123.5s-6 -53.166 -6 -80.499c-67.333 -3.33301 -143 -16.666 -227 -39.999l-17 25c56 195.333 113.667 452.333 173 771s89 493.334 89 524.001c0 16 -4.5 28 -13.5 36s-22.833 12.5 -41.5 13.5s-54 1.83301 -106 2.5z" />
    <glyph glyph-name="ft" unicode="ft" horiz-adv-x="1400" 
d="M920 832l-395.993 -1.00586l-77 -343c-30.667 -135.333 -61.334 -258.333 -92.001 -369c-40.667 -150.667 -80.834 -264.667 -120.501 -342s-89.5 -146.333 -149.5 -207s-114.667 -102.667 -164 -126c-29.333 -14 -57.666 -21 -84.999 -21c-22.667 0 -48 6 -76 18
c32 82.667 54 156.667 66 222l32 6c26 -60.667 59.333 -91 100 -91c21.333 0 41.333 8 60 24s37.667 60.5 57 133.5s50.666 224.833 93.999 455.5l122 640c-42 1.33301 -72.333 2 -91 2c-30.667 0 -61.334 -0.666992 -92.001 -2l-6 9l6 36l11 11c16 6 46.333 15.333 91 28
c45.333 12.667 80.333 25 105 37c2 4.66699 6.33301 23 13 55c11.333 49.333 21.333 84.833 30 106.5s23.667 45.5 45 71.5s60.166 62.833 116.499 110.5s108.833 88.834 157.5 123.501s85.167 56.667 109.5 66s51.166 14 80.499 14c31.333 0 61.333 -5.66699 90 -17
c-27.333 -92.667 -46.333 -179 -57 -259l-30 -7c-51.333 78.667 -102.666 118 -153.999 118c-46.667 0 -80.167 -30.167 -100.5 -90.5s-43.833 -162.833 -70.5 -307.5h394c26.667 138.667 40 239.334 40 302.001c38.667 8 99 27 181 57l68 24l23 -25
c-23.333 -71.333 -53.666 -190 -90.999 -356h103c79.333 0 135.666 2.66699 168.999 8l11 -16c-10 -31.333 -17.667 -63.333 -23 -96l-13 -10c-51.333 4.66699 -105.333 7 -162 7h-107c-11.333 -57.333 -25 -122.666 -41 -195.999l-42 -195l-30 -147
c-8 -41.333 -12.833 -68.166 -14.5 -80.499s-2.5 -24.833 -2.5 -37.5c0 -16.667 4.5 -29.5 13.5 -38.5s20.167 -13.5 33.5 -13.5c18.667 0 42.667 8.16699 72 24.5s79 49.5 149 99.5l14 -1l20 -39l-2 -12c-151.333 -110.667 -251.333 -178 -300 -202
s-88.334 -36 -119.001 -36c-38.667 0 -67.834 12.167 -87.501 36.5s-29.5 55.5 -29.5 93.5c0 22.667 2.5 49.334 7.5 80.001s24.5 122.667 58.5 276c39.333 176.667 66.666 306.334 81.999 389.001z" />
    <glyph glyph-name="fft" unicode="fft" horiz-adv-x="2030" 
d="M922 831l-397.996 -0.00488281l-77 -343c-30.667 -135.333 -61.334 -258.333 -92.001 -369c-40.667 -150.667 -80.834 -264.667 -120.501 -342s-89.5 -146.333 -149.5 -207s-114.667 -102.667 -164 -126c-29.333 -14 -57.666 -21 -84.999 -21c-22.667 0 -48 6 -76 18
c32 82.667 54 156.667 66 222l32 6c26 -60.667 59.333 -91 100 -91c21.333 0 41.333 8 60 24s37.667 60.5 57 133.5s50.666 224.833 93.999 455.5l122 640c-42 1.33301 -72.333 2 -91 2c-30.667 0 -61.334 -0.666992 -92.001 -2l-6 9l6 36l11 11c16 6 46.333 15.333 91 28
c45.333 12.667 80.333 25 105 37c2 4.66699 6.33301 23 13 55c11.333 49.333 21.333 84.833 30 106.5s23.667 45.5 45 71.5s60.166 62.833 116.499 110.5s108.833 88.834 157.5 123.501s85.167 56.667 109.5 66s51.166 14 80.499 14c31.333 0 61.333 -5.66699 90 -17
c-27.333 -92.667 -46.333 -179 -57 -259l-30 -7c-51.333 78.667 -102.666 118 -153.999 118c-46.667 0 -80.167 -30.167 -100.5 -90.5s-43.833 -162.833 -70.5 -307.5h399c18 90 31.5 146 40.5 168s22.167 44.833 39.5 68.5s48.666 55.5 93.999 95.5
s98.833 83.167 160.5 129.5s106.167 74.833 133.5 85.5s56 16 86 16s60 -5.66699 90 -17c-27.333 -92.667 -46.333 -179 -57 -259l-30 -7c-51.333 78.667 -102.666 118 -153.999 118c-46.667 0 -80.334 -30.167 -101.001 -90.5s-44 -162.833 -70 -307.5h394
c26.667 138.667 40 239.334 40 302.001c38.667 8 99 27 181 57l68 24l23 -25c-23.333 -71.333 -53.666 -190 -90.999 -356h103c79.333 0 135.666 2.66699 168.999 8l11 -16c-10 -31.333 -17.667 -63.333 -23 -96l-13 -10c-52 4.66699 -106.333 7 -163 7h-106
c-11.333 -57.333 -25 -122.666 -41 -195.999l-42 -195l-30 -147c-8 -41.333 -13 -68.166 -15 -80.499s-3 -24.833 -3 -37.5c0 -16.667 4.66699 -29.5 14 -38.5s20.333 -13.5 33 -13.5c18.667 0 42.667 8.16699 72 24.5s79.333 49.5 150 99.5l14 -1l20 -39l-2 -12
c-151.333 -110.667 -251.5 -178 -300.5 -202s-88.833 -36 -119.5 -36c-38 0 -67 12.333 -87 37s-30 55.667 -30 93c0 24.667 3.83301 57.167 11.5 97.5s26.167 126.5 55.5 258.5c38.667 176.667 65.667 306.334 81 389.001l-396 -1l-76 -343
c-30.667 -135.333 -61.334 -258.333 -92.001 -369c-41.333 -150.667 -81.666 -264.667 -120.999 -342s-89.166 -146.333 -149.499 -207s-114.833 -102.667 -163.5 -126c-29.333 -14 -58 -21 -86 -21c-23.333 0 -48.333 6 -75 18c32 82.667 54 156.667 66 222l32 6
c25.333 -60.667 58.666 -91 99.999 -91c14 0 27.5 3.5 40.5 10.5s25.333 18.833 37 35.5s25.834 57.667 42.501 123s38 166.333 64 303l76 397z" />
    <glyph glyph-name="fb" unicode="fb" horiz-adv-x="1852" 
d="M912 1340c-10 -43.333 -17.335 -82.335 -22.002 -117.002l-30 -7c-51.333 78.667 -102.666 118 -153.999 118c-42 0 -74 -26 -96 -78s-47 -158.667 -75 -320h23c104 0 181 5.33301 231 16l10 -16c-14 -38 -23.667 -69.667 -29 -95l-11 -10
c-96.667 5.33301 -178.334 5.33301 -245.001 0l-78 -347c-80 -355.333 -147 -585 -201 -689s-120.333 -192 -199 -264s-148.667 -108 -210 -108c-24 0 -49.333 6 -76 18c32 82.667 54 156.667 66 222l32 6c26 -60.667 59.333 -91 100 -91c28 0 53.5 14.833 76.5 44.5
s57.833 167.167 104.5 412.5l152 796c-72 2.66699 -133 2.66699 -183 0l-7 9l18 47c48.667 14 114 35.667 196 65c2 4.66699 6.33301 22.667 13 54c19.333 90 51.833 158.167 97.5 204.5s115.667 106 210 179s172.166 109.5 233.499 109.5c28 0 57.333 -5.66699 88 -17
c-8 -28 -14 -50 -18 -66c173.333 24 297 52 371 84l24 -25c-88 -369.333 -150.667 -647.666 -188 -834.999c74.667 108 155.834 191 243.501 249s172.834 87 255.501 87c95.333 0 143 -84 143 -252c0 -249.333 -75.5 -439.166 -226.5 -569.499
s-296.833 -195.5 -437.5 -195.5c-169.333 0 -254 74.333 -254 223c0 50 18.667 177 56 381c83.333 456 125 698.333 125 727c0 21.333 -6.66699 35 -20 41s-49.666 9 -108.999 9zM1543 663.998c0 112 -28.333 168 -85 168c-52 0 -110.5 -33.167 -175.5 -99.5
s-114.5 -144.5 -148.5 -234.5s-51 -177.333 -51 -262c0 -119.333 47.667 -179 143 -179c58 0 110.5 30 157.5 90s85.333 141.833 115 245.5s44.5 194.167 44.5 271.5z" />
    <glyph glyph-name="ffb" unicode="ffb" horiz-adv-x="2494" 
d="M1553 1344c-8.66699 -36.667 -15.666 -75.6689 -20.999 -117.002l-30 -7c-51.333 78.667 -102.666 118 -153.999 118c-36.667 0 -66.334 -20.333 -89.001 -61s-50 -153 -82 -337h23c104 0 181 5.33301 231 16l10 -16c-14 -38 -23.667 -69.667 -29 -95l-11 -10
c-96.667 5.33301 -179 4 -247 -4l-76 -343c-78 -347.333 -144.333 -574.833 -199 -682.5s-121.667 -197.667 -201 -270s-149.333 -108.5 -210 -108.5c-24 0 -49.333 6 -76 18c32 82.667 54 156.667 66 222l32 6c26 -60.667 59.333 -91 100 -91c28 0 53.5 14.833 76.5 44.5
s57.833 167.167 104.5 412.5l151 792h-398l-77 -343c-48 -214.667 -97.167 -398.5 -147.5 -551.5s-123.333 -276.833 -219 -371.5s-177.167 -142 -244.5 -142c-22.667 0 -48 6 -76 18c32 82.667 54 156.667 66 222l32 6c26 -60.667 59.333 -91 100 -91s71.667 27.5 93 82.5
s60.666 231.833 117.999 530.5l122 640c-70.667 2 -131.667 2 -183 0l-6 9l6 36l11 11c49.333 14 114.666 35.667 195.999 65c1.33301 2.66699 5.66602 21 12.999 55c19.333 87.333 49 152.5 89 195.5s109.833 103.167 209.5 180.5s179.834 116 240.501 116
c31.333 0 61.333 -5.66699 90 -17c-27.333 -92.667 -46.333 -179 -57 -259l-30 -7c-51.333 78.667 -102.666 118 -153.999 118c-40.667 0 -71.667 -24.667 -93 -74s-47.333 -157.333 -78 -324h399c0.666992 2 6 26.667 16 74c19.333 90.667 50.666 158 93.999 202
s113 103.5 209 178.5s175.333 112.5 238 112.5c28 0 57.333 -5.66699 88 -17c-8 -28 -14 -50 -18 -66c173.333 24 297 52 371 84l24 -25c-88 -369.333 -150.667 -647.666 -188 -834.999c74.667 108 155.834 191 243.501 249s172.834 87 255.5 87c95.333 0 143 -84 143 -252
c0 -249.333 -75.5 -439.166 -226.5 -569.499s-296.833 -195.5 -437.5 -195.5c-178 -2 -267 71.333 -267 220c0 50 18.667 177 56 381c92 458 138 701.333 138 730c0 21.333 -6.66699 35 -20 41s-50 9 -110 9zM2185 667.998c0 112 -28.334 168.002 -85.001 168.002
c-52.667 0 -112.167 -34.333 -178.5 -103s-115.666 -148.334 -147.999 -239.001s-48.5 -175.334 -48.5 -254.001c0 -119.333 47.667 -179 143 -179c91.333 0 167 70.667 227 212s90 273 90 395z" />
    <glyph glyph-name="fh" unicode="fh" horiz-adv-x="1892" 
d="M1799 176l-2.99805 -14c-180.667 -136 -302.334 -204 -365.001 -204c-48 0 -72 34.333 -72 103c0 42 18.333 131.333 55 268c64.667 240.667 97 378 97 412c0 30 -12.667 45 -38 45c-50 0 -114.5 -42.667 -193.5 -128s-142.333 -197.833 -190 -337.5
s-71.5 -244.834 -71.5 -315.501c-45.333 0 -116 -13.333 -212 -40l-20 19c68.667 224 146.667 603 234 1137l17 105c5.33301 32.667 8 53.667 8 63c0 20.667 -7 34.334 -21 41.001s-51.333 10 -112 10c-10 -43.333 -17.333 -82.333 -22 -117l-30 -7
c-51.333 78.667 -102.666 118 -153.999 118c-42 0 -74 -26 -96 -78s-47 -158.667 -75 -320h23c104 0 181 5.33301 231 16l10 -16c-14 -38 -23.667 -69.667 -29 -95l-11 -10c-96.667 5.33301 -178.334 5.33301 -245.001 0l-78 -347c-80 -355.333 -147 -585 -201 -689
s-120.333 -192 -199 -264s-148.667 -108 -210 -108c-24 0 -49.333 6 -76 18c32 82.667 54 156.667 66 222l32 6c26 -60.667 59.333 -91 100 -91c28 0 53.5 14.833 76.5 44.5s57.833 167.167 104.5 412.5l152 796c-72 2.66699 -133 2.66699 -183 0l-7 9l18 47
c48.667 14 114 35.667 196 65c2 4.66699 6.33301 22.667 13 54c19.333 90 51.833 158.167 97.5 204.5s115.667 106 210 179s172.166 109.5 233.499 109.5c28 0 57.333 -5.66699 88 -17c-8 -28 -14 -50 -18 -66c173.333 24 297 52 371 84l24 -25l-129 -559l-88 -402
c86 135.333 183.667 246.5 293 333.5s201.333 130.5 276 130.5c55.333 0 83 -29 83 -87c0 -47.333 -30.333 -181 -91 -401c-46.667 -169.333 -70 -274.333 -70 -315c0 -29.333 9.33301 -44 28 -44c19.333 0 66 27 140 81l12 -1z" />
    <glyph glyph-name="ffh" unicode="ffh" horiz-adv-x="2533" 
d="M2440 182l-2.99609 -14c-180.667 -136 -302.334 -204 -365 -204c-48 0 -72 34.333 -72 103c0 42 18.333 131.333 55 268c64.667 240.667 97 378 97 412c0 30 -12.667 45 -38 45c-44.667 0 -106.834 -40.667 -186.501 -122s-144.334 -194 -194.001 -338
s-74.5 -251 -74.5 -321c-45.333 0 -116 -13.333 -212 -40l-20 19c68.667 224 146.667 603 234 1137l17 105c5.33301 32.667 8 53.667 8 63c0 20.667 -8.33301 35 -25 43c-8.66699 4 -44.667 6 -108 6c-8.66699 -36.667 -15.667 -75.667 -21 -117l-30 -7
c-51.333 78.667 -102.666 118 -153.999 118c-36.667 0 -66.334 -20.333 -89.001 -61s-50 -153 -82 -337h23c104 0 181 5.33301 231 16l10 -16c-14 -38 -23.667 -69.667 -29 -95l-11 -10c-96.667 5.33301 -178.667 4 -246 -4l-77 -343
c-78 -347.333 -144.333 -574.833 -199 -682.5s-121.667 -197.667 -201 -270s-149.333 -108.5 -210 -108.5c-24 0 -49.333 6 -76 18c32 82.667 54 156.667 66 222l32 6c26 -60.667 59.333 -91 100 -91c28 0 53.5 14.833 76.5 44.5s57.833 167.167 104.5 412.5l151 792h-398
l-77 -343c-48 -214.667 -97.167 -398.5 -147.5 -551.5s-123.333 -276.833 -219 -371.5s-177.167 -142 -244.5 -142c-22.667 0 -48 6 -76 18c32 82.667 54 156.667 66 222l32 6c26 -60.667 59.333 -91 100 -91s71.667 27.5 93 82.5s60.666 231.833 117.999 530.5l122 640
c-70.667 2 -131.667 2 -183 0l-6 9l6 36l11 11c49.333 14 114.666 35.667 195.999 65c1.33301 2.66699 5.66602 21 12.999 55c19.333 87.333 49 152.5 89 195.5s109.833 103.167 209.5 180.5s179.834 116 240.501 116c31.333 0 61.333 -5.66699 90 -17
c-27.333 -92.667 -46.333 -179 -57 -259l-30 -7c-51.333 78.667 -102.666 118 -153.999 118c-40.667 0 -71.667 -24.667 -93 -74s-47.333 -157.333 -78 -324h399c0.666992 2 6 26.667 16 74c19.333 90.667 50.666 158 93.999 202s113 103.5 209 178.5
s175.333 112.5 238 112.5c28 0 57.333 -5.66699 88 -17l-19 -65c173.333 24 297 52 371 84l24 -25l-130 -562l-87 -398c86 135.333 183.667 246.5 293 333.5s201.333 130.5 276 130.5c55.333 0 83 -29 83 -87c0 -47.333 -30.333 -181 -91 -401
c-46.667 -169.333 -70 -274.333 -70 -315c0 -29.333 9.33301 -44 28 -44c19.333 0 66 27 140 81l12 -1z" />
    <glyph glyph-name="fk" unicode="fk" horiz-adv-x="1831" 
d="M1798 957c-20 -66.667 -31.999 -115.333 -35.999 -146l-17 -10c-37.333 12 -65.666 18 -84.999 18c-106.667 0 -206.334 -54 -299.001 -162c65.333 -189.333 116.833 -325 154.5 -407s70.167 -123 97.5 -123c25.333 0 73 24 143 72l11 -1l22 -39l-3 -14l-80 -53
c-127.333 -88.667 -212.666 -133 -255.999 -133c-30.667 0 -58.167 22.667 -82.5 68s-81.833 195.666 -172.5 450.999c-46 -48 -77.667 -87.667 -95 -119s-33.666 -86.5 -48.999 -165.5s-23 -140.167 -23 -183.5c-67.333 -3.33301 -143 -16.666 -227 -39.999l-17 25
c48.667 167.333 104.5 414.333 167.5 741s94.5 511.334 94.5 554.001c0 21.333 -6.66699 35 -20 41s-51.333 9 -114 9c-10 -43.333 -17.333 -82.333 -22 -117l-30 -7c-51.333 78.667 -102.666 118 -153.999 118c-42 0 -74 -26 -96 -78s-47 -158.667 -75 -320h23
c104 0 181 5.33301 231 16l10 -16c-14 -38 -23.667 -69.667 -29 -95l-11 -10c-96.667 5.33301 -178.334 5.33301 -245.001 0l-78 -347c-80 -355.333 -147 -585 -201 -689s-120.333 -192 -199 -264s-148.667 -108 -210 -108c-24 0 -49.333 6 -76 18
c32 82.667 54 156.667 66 222l32 6c26 -60.667 59.333 -91 100 -91c28 0 53.5 14.833 76.5 44.5s57.833 167.167 104.5 412.5l152 796c-72 2.66699 -133 2.66699 -183 0l-7 9l18 47c48.667 14 114 35.667 196 65c2 4.66699 6.33301 22.667 13 54
c19.333 90 51.833 158.167 97.5 204.5s115.667 106 210 179s172.166 109.5 233.499 109.5c28 0 57.333 -5.66699 88 -17c-8 -28 -14 -50 -18 -66c173.333 24 297 52 371 84l24 -25c-33.333 -133.333 -107 -472 -221 -1016c3.33301 3.33301 29 34.333 77 93
c135.333 165.333 243.666 277.666 324.999 336.999s159.666 89 234.999 89c13.333 0 29.333 -2 48 -6z" />
    <glyph glyph-name="ffk" unicode="ffk" horiz-adv-x="2472" 
d="M2439 961c-20 -66.667 -31.998 -115.332 -35.998 -145.999l-17 -10c-37.333 12 -65.666 18 -85 18c-106.667 0 -206.334 -54 -299 -162c65.333 -189.333 116.833 -325 154.5 -407s70.167 -123 97.5 -123c25.333 0 73 24 143 72l11 -1l22 -39l-3 -14l-80 -53
c-127.333 -88.667 -212.666 -133 -255.999 -133c-30.667 0 -58.167 22.667 -82.5 68s-81.833 195.666 -172.5 450.999c-46 -48 -77.667 -87.667 -95 -119s-33.666 -86.5 -48.999 -165.5s-23 -140.167 -23 -183.5c-67.333 -3.33301 -143 -16.666 -227 -39.999l-17 25
c46.667 162 102 406.833 166 734.5s96 514.5 96 560.5c0 21.333 -6.66699 35 -20 41s-51.333 9 -114 9c-8.66699 -36.667 -15.667 -75.667 -21 -117l-30 -7c-51.333 78.667 -102.666 118 -153.999 118c-36.667 0 -66.334 -20.333 -89.001 -61s-50 -153 -82 -337h23
c104 0 181 5.33301 231 16l10 -16c-14 -38 -23.667 -69.667 -29 -95l-11 -10c-96.667 5.33301 -178.334 4 -245.001 -4l-78 -343c-78 -347.333 -144.333 -574.833 -199 -682.5s-121.667 -197.667 -201 -270s-149.333 -108.5 -210 -108.5c-24 0 -49.333 6 -76 18
c32 82.667 54 156.667 66 222l32 6c26 -60.667 59.333 -91 100 -91c28 0 53.5 14.833 76.5 44.5s57.833 167.167 104.5 412.5l153 792h-400l-77 -343c-48 -214.667 -97.167 -398.5 -147.5 -551.5s-123.333 -276.833 -219 -371.5s-177.167 -142 -244.5 -142
c-22.667 0 -48 6 -76 18c32 82.667 54 156.667 66 222l32 6c26 -60.667 59.333 -91 100 -91s71.667 27.5 93 82.5s60.666 231.833 117.999 530.5l122 640c-70.667 2 -131.667 2 -183 0l-6 9l6 36l11 11c49.333 14 114.666 35.667 195.999 65
c1.33301 2.66699 5.66602 21 12.999 55c19.333 87.333 49 152.5 89 195.5s109.833 103.167 209.5 180.5s179.834 116 240.501 116c31.333 0 61.333 -5.66699 90 -17c-27.333 -92.667 -46.333 -179 -57 -259l-30 -7c-51.333 78.667 -102.666 118 -153.999 118
c-40.667 0 -71.667 -24.667 -93 -74s-47.333 -157.333 -78 -324h399c0.666992 2 6 26.667 16 74c19.333 90.667 50.666 158 93.999 202s113 103.5 209 178.5s175.333 112.5 238 112.5c28 0 57.333 -5.66699 88 -17l-19 -66c173.333 24 297 52 371 84l24 -25
c-33.333 -133.333 -107 -472 -221 -1016c3.33301 3.33301 29 34.333 77 93c135.333 165.333 243.666 277.666 324.999 336.999s159.666 89 235 89c13.333 0 29.333 -2 48 -6z" />
    <glyph glyph-name="fj" unicode="fj" horiz-adv-x="1288" 
d="M451 -559c14 49.333 23.3301 101.332 27.9971 155.999l28 6c8 -11.333 21 -26.666 39 -45.999c17.333 -12.667 34.333 -19 51 -19c38.667 0 67.5 20.833 86.5 62.5s57.5 210.5 115.5 506.5l87 445c27.333 140 41 230.333 41 271c0 24 -8 38 -24 42
c-10 -2.66699 -25.667 -7.33398 -47 -14.001c-0.666992 0 -17.667 -6.66699 -51 -20h-291l-78 -347c-80 -355.333 -147 -585 -201 -689s-120.333 -192 -199 -264s-148.667 -108 -210 -108c-24 0 -49.333 6 -76 18c32 82.667 54 156.667 66 222l32 6
c26 -60.667 59.333 -91 100 -91c28 0 53.5 14.833 76.5 44.5s57.833 167.167 104.5 412.5l152 796c-72 2.66699 -133 2.66699 -183 0l-7 9l7 36l11 11c48.667 14 114 35.667 196 65c2.66699 8.66699 6.66699 25.334 12 50.001c13.333 64.667 29 112.334 47 143.001
s69 83.667 153 159s151.333 126.666 202 153.999s96.667 41 138 41c29.333 0 59.333 -5.66699 90 -17c-26 -88.667 -45 -175 -57 -259l-30 -7c-51.333 78.667 -102.666 118 -153.999 118c-42 0 -73.667 -25.5 -95 -76.5s-46.666 -158.167 -75.999 -321.5h211
c112.667 0 189.667 6.66699 231 20c70 22.667 118.333 34 145 34c35.333 0 53 -27.667 53 -83c0 -36.667 -16 -124.667 -48 -264l-68 -296c-64.667 -282.667 -117.167 -471 -157.5 -565s-95.666 -176.167 -165.999 -246.5s-134.5 -105.5 -192.5 -105.5
c-40 0 -70.667 3.66699 -92 11zM1280 1329c0 -40.667 -11.5 -77.499 -34.5 -110.499s-57.167 -49.5 -102.5 -49.5c-76 0 -114 41 -114 123c0 37.333 12.167 71.666 36.5 102.999s58.833 47 103.5 47c74 0 111 -37.667 111 -113z" />
    <glyph glyph-name="tt" unicode="tt" horiz-adv-x="1430" 
d="M1474 930c-9.33301 -30.667 -17 -62.667 -23 -96l-13 -10c-49.333 4.66699 -103.333 7 -162 7h-107l-40 -191l-73 -348c-11.333 -54 -17 -93 -17 -117c0 -34.667 15.667 -52 47 -52c14 0 32.667 5.33301 56 16s79.333 45 168 103l14 -1l17 -34l-2 -12
c-128 -93.333 -220.667 -156.333 -278 -189s-104.333 -49 -141 -49c-78 0 -117 43.333 -117 130c0 35.333 22 154 66 356c52 238 78.667 367.333 80 388c-10.667 2 -90.667 3 -240 3l-158 -3l-40 -191l-73 -348c-11.333 -54 -17 -93 -17 -117c0 -34.667 15.667 -52 47 -52
c14.667 0 34 5.66699 58 17s79.333 45.333 166 102l14 -1l17 -34l-2 -12c-128 -93.333 -220.667 -156.333 -278 -189s-104.333 -49 -141 -49c-78 0 -117 43.333 -117 130c0 35.333 22 154 66 356c52 238 78.667 367.333 80 388h-209l-7 10l4 29l12 12
c55.333 12.667 130.333 35 225 67c1.33301 14 6.66602 48.333 15.999 103c13.333 77.333 20 139.333 20 186c40 8.66699 100.333 27.667 181 57l68 24l23 -25c-21.333 -65.333 -51.666 -184 -90.999 -356h399c25.333 157.333 38 257.333 38 300
c40 8.66699 100.333 27.667 181 57l68 24l23 -25c-21.333 -65.333 -51.666 -184 -90.999 -356h103c85.333 0 141.666 1.66699 168.999 5z" />
    <glyph glyph-name=".notdef" horiz-adv-x="1024" 
d="M102 0v1092h820v-1092h-820zM204 102h616v888h-616v-888z" />
    <glyph glyph-name="space" unicode=" " horiz-adv-x="512" 
 />
    <glyph glyph-name="space" unicode="&#xa0;" horiz-adv-x="512" 
 />
    <glyph glyph-name="exclam" unicode="!" horiz-adv-x="682" 
d="M287 387l-26.001 17.999c4 32.667 13.333 121.667 28 267l39 405c12 124 19.667 219.667 23 287c112 18.667 206.333 38.334 283 59.001l23 -18l-196 -634c-53.333 -172.667 -84.666 -283.667 -93.999 -333zM136.999 90.999c0 34.667 6.33398 65.167 19.001 91.5
s29.5 47.166 50.5 62.499s47.167 23 78.5 23c39.333 0 69.5 -11.167 90.5 -33.5s31.5 -52.166 31.5 -89.499c0 -42.667 -12.833 -83 -38.5 -121s-64.834 -57 -117.501 -57c-76 0 -114 41.333 -114 124z" />
    <glyph glyph-name="quotedbl" unicode="&#x22;" horiz-adv-x="1024" 
d="M559 1357c0 -23.333 -8.66699 -47.333 -26 -72l-245 -349h-68l142 426c20 59.333 54 89 102 89c26 0 48.333 -9.16699 67 -27.5s28 -40.5 28 -66.5zM1019 1357c0 -23.333 -8.66699 -47.333 -26 -72l-245 -349h-68l142 426c20 59.333 54 89 102 89
c26 0 48.333 -9.16699 67 -27.5s28 -40.5 28 -66.5z" />
    <glyph glyph-name="quotedbl" unicode="&#x2ba;" horiz-adv-x="1024" 
d="M559 1357c0 -23.333 -8.66699 -47.333 -26 -72l-245 -349h-68l142 426c20 59.333 54 89 102 89c26 0 48.333 -9.16699 67 -27.5s28 -40.5 28 -66.5zM1019 1357c0 -23.333 -8.66699 -47.333 -26 -72l-245 -349h-68l142 426c20 59.333 54 89 102 89
c26 0 48.333 -9.16699 67 -27.5s28 -40.5 28 -66.5z" />
    <glyph glyph-name="numbersign" unicode="#" horiz-adv-x="987" 
d="M220 0l63 341h-148l29 156h149l76 410h-148l29 156h148l55 296h76l-56 -296h229l55 296h75l-55 -296h148l-29 -156h-148l-77 -410h148l-29 -156h-148l-64 -341h-75l64 341h-229l-64 -341h-74zM387 497h229l77 410h-229z" />
    <glyph glyph-name="dollar" unicode="$" horiz-adv-x="1024" 
d="M322 -225l34.998 195.001c-56 2.66699 -107.333 12.167 -154 28.5s-97.667 39.5 -153 69.5l-3 11c9.33301 24.667 19.5 71.834 30.5 141.501s16.833 116.167 17.5 139.5l9 8h52l9 -8c0 -24.667 -3.33301 -74.667 -10 -150c44 -72 118 -114.333 222 -127l87 498
c-124 21.333 -208.667 59.5 -254 114.5s-68 124.5 -68 208.5c0 119.333 42.667 224.166 128 314.499s197 142.833 335 157.5l17 130l11 9h64l8 -10l-21 -129c55.333 0 103.5 -5.83301 144.5 -17.5s87.5 -32.167 139.5 -61.5l3 -11
c-7.33301 -22 -17.166 -65.5 -29.499 -130.5s-19.166 -108.167 -20.499 -129.5l-8 -9h-47l-9 8c4 32 6 67 6 105c0 6.66699 -0.333008 17 -1 31c-13.333 27.333 -38.166 51.5 -74.499 72.5s-76.5 34.5 -120.5 40.5l-84 -477c84 -18 145.167 -35.833 183.5 -53.5
s71 -40.834 98 -69.501s46.167 -60.667 57.5 -96s17 -73 17 -113c0 -94 -27.833 -179.833 -83.5 -257.5s-124.834 -136.5 -207.501 -176.5s-148 -60 -196 -60h-13l-33 -196l-11 -9h-66zM585.998 1276c-94 -4.66699 -161.5 -34.666 -202.5 -89.999s-61.5 -117 -61.5 -185
c0 -40.667 11.833 -75.834 35.5 -105.501s73.167 -55.5 148.5 -77.5zM456.998 78.002c97.333 0 168.667 28.5 214 85.5s68 121.167 68 192.5c0 37.333 -8.66699 70.5 -26 99.5s-37.333 49.833 -60 62.5s-59.667 26.667 -111 42z" />
    <glyph glyph-name="percent" unicode="%" horiz-adv-x="1821" 
d="M135 1023c0 153.333 59.334 270.333 178.001 351c60 40.667 133 61 219 61c127.333 0 218.333 -45 273 -135c29.333 -48 44 -104 44 -168s-15.333 -126 -46 -186c-32.667 -65.333 -78 -118 -136 -158c-60.667 -42 -134.334 -63 -221.001 -63
c-139.333 0 -232.333 51 -279 153c-21.333 46.667 -32 95 -32 145zM328.001 933c0 -43.333 10.168 -78 30.501 -104s47.166 -39 80.499 -39c84 0 145.333 76.333 184 229c19.333 77.333 29 146 29 206c0 96.667 -37.667 145 -113 145c-78 0 -137 -72 -177 -216
c-22.667 -79.333 -34 -153 -34 -221zM1037 254c0 153.333 59.0039 270.333 177.004 351c60.667 41.333 133.667 62 219 62c99.333 0 177.666 -28.667 234.999 -86c54.667 -54.667 82 -127 82 -217c0 -66.667 -16.667 -131.667 -50 -195
c-34.667 -67.333 -81.334 -119 -140.001 -155c-60.667 -38 -131.334 -57 -212.001 -57c-138.667 0 -231.334 50.333 -278.001 151c-22 46 -33 94.667 -33 146zM1230.01 165c0 -95.333 37.665 -142.999 112.998 -142.999c80.667 0 140.334 73.667 179.001 221
c21.333 81.333 32 149.666 32 204.999c0 102.667 -37.667 154 -113 154c-63.333 0 -115.666 -50.667 -156.999 -152c-36 -88 -54 -183 -54 -285zM1456 1487l-966 -1563h-75l-5 10l965 1562h76z" />
    <glyph glyph-name="ampersand" unicode="&#x26;" horiz-adv-x="1706" 
d="M1544 1082c76 -35.333 114.006 -93.666 114.006 -174.999c0 -43.333 -9.33301 -83.833 -28 -121.5s-42.167 -66.667 -70.5 -87s-62.333 -35.166 -102 -44.499s-103.5 -21.666 -191.5 -36.999c79.333 -34 119 -92.667 119 -176c0 -82 -32.167 -159 -96.5 -231
s-155 -131.667 -272 -179s-238.833 -71 -365.5 -71c-68.667 0 -132.834 7.66699 -192.501 23s-113.5 40.666 -161.5 75.999s-84.167 78.166 -108.5 128.499s-36.5 107.166 -36.5 170.499c0 198 138.333 341.667 415 431c-53.333 6 -98.333 28.667 -135 68s-55 89 -55 149
c0 51.333 13 98 39 140s68.333 86 127 132s114.667 81.333 168 106s114.666 37 183.999 37c80.667 0 155.667 -17.333 225 -52l6 -13c-5.33301 -12 -13.333 -50.167 -24 -114.5s-16.334 -107.5 -17.001 -129.5l-8 -9h-45l-8 9l-4 114c-53.333 54.667 -119 82 -197 82
c-69.333 0 -127.666 -21 -174.999 -63s-71 -96 -71 -162c0 -44 10.833 -83 32.5 -117s49.334 -59 83.001 -75s68.5 -24 104.5 -24c13.333 0 30.333 1.66699 51 5l8 -8c-14.667 -54 -22.667 -91.667 -24 -113c-22 4 -43.333 6 -64 6c-62.667 0 -124 -12.667 -184 -38
s-106.667 -65.5 -140 -120.5s-50 -116.167 -50 -183.5c0 -68 16.167 -128.167 48.5 -180.5s77.666 -92.666 135.999 -120.999s128.166 -42.5 209.499 -42.5c59.333 0 113.166 7.5 161.499 22.5s91.333 37.167 129 66.5s67.5 64.166 89.5 104.499s33 83.5 33 129.5
c0 34.667 -7.5 66.667 -22.5 96s-36.5 50.833 -64.5 64.5s-55 20.5 -81 20.5c-20 0 -41 -4.16699 -63 -12.5s-39.333 -21.333 -52 -39s-21.167 -32.667 -25.5 -45s-9.83301 -33.5 -16.5 -63.5l-9 -9h-35l-7 9l22 213c44 42.667 91.167 72 141.5 88
s126.166 30.667 227.499 44c94.667 12 166.667 23.667 216 35s86.166 29.5 110.499 54.5s36.5 53.5 36.5 85.5c0 50 -23.667 83 -71 99v13l26 33z" />
    <glyph glyph-name="quotesingle" unicode="'" horiz-adv-x="512" 
d="M559 1357c0 -23.333 -8.66699 -47.333 -26 -72l-245 -349h-68l142 426c20 59.333 54 89 102 89c26 0 48.333 -9.16699 67 -27.5s28 -40.5 28 -66.5z" />
    <glyph glyph-name="quotesingle" unicode="&#x2b9;" horiz-adv-x="512" 
d="M559 1357c0 -23.333 -8.66699 -47.333 -26 -72l-245 -349h-68l142 426c20 59.333 54 89 102 89c26 0 48.333 -9.16699 67 -27.5s28 -40.5 28 -66.5z" />
    <glyph glyph-name="parenleft" unicode="(" horiz-adv-x="682" 
d="M500 -262c-65.333 75.333 -126.501 162.167 -183.501 260.5s-97 187.166 -120 266.499s-34.5 167.333 -34.5 264c0 86.667 10 166.834 30 240.501s52.333 151.5 97 233.5s104.5 163.167 179.5 243.5s164.5 162.166 268.5 245.499h13l38 -39l-1 -13
c-129.333 -130 -228.666 -287.5 -297.999 -472.5s-104 -379.167 -104 -582.5c0 -127.333 14.667 -241.166 44 -341.499s71.333 -187.5 126 -261.5l-3 -12l-40 -32h-12z" />
    <glyph glyph-name="parenright" unicode=")" horiz-adv-x="682" 
d="M219 1492c58 -64 116.5 -146.002 175.5 -246.002s100.833 -190.5 125.5 -271.5s37 -172.167 37 -273.5c0 -86.667 -9.83301 -166.667 -29.5 -240s-52 -151.166 -97 -233.499s-105 -163.666 -180 -243.999s-164.5 -162.166 -268.5 -245.499h-13l-38 39l1 14
c128.667 127.333 228 283.666 298 468.999s105 380.333 105 585c0 248 -57 449 -171 603l3 12l40 32h12z" />
    <glyph glyph-name="asterisk" unicode="*" horiz-adv-x="909" 
d="M587 696l-15.998 11.0039c-6.66699 129.333 -14.334 233 -23.001 311c-94 -90.667 -168.333 -165.334 -223 -224.001l-20 2c-14.667 31.333 -33.667 66.666 -57 105.999l-28 48l4 9l198 73c35.333 12 68.333 25.667 99 41c-25.333 12.667 -66 31.667 -122 57l-172 76
l-3 15c35.333 42.667 65.666 93 90.999 151l18 1c85.333 -104 158.666 -185.667 219.999 -245c10.667 65.333 20 137.666 28 216.999l9 83l11 10c33.333 -13.333 76 -24.333 128 -33l52 -9l6 -14c-95.333 -156.667 -151 -251.667 -167 -285c10 2.66699 60.333 11.667 151 27
c44.667 7.33301 93.334 18.666 146.001 33.999l17 -16c-4 -30.667 -6 -57.667 -6 -81c0 -20.667 1.33301 -49.667 4 -87l-13 -9c-112 32.667 -217 57 -315 73c6 -9.33301 19.667 -34.333 41 -75l45 -82l63 -110l-6 -18c-60.667 -16.667 -114 -35.667 -160 -57z" />
    <glyph glyph-name="plus" unicode="+" horiz-adv-x="1024" 
d="M993 515h-392v-386h-177v386h-392v172h392v386h177v-386h392v-172z" />
    <glyph glyph-name="comma" unicode="," horiz-adv-x="512" 
d="M-60 -354l-37.001 30.001c43.333 62.667 86.833 150.5 130.5 263.5s67.834 206.167 72.501 279.5c86.667 15.333 172.667 39 258 71l33 -30l-73 -141c-21.333 -41.333 -48 -87.333 -80 -138s-63.167 -96.334 -93.5 -137.001s-64.833 -83 -103.5 -127z" />
    <glyph glyph-name="hyphen" unicode="-" horiz-adv-x="796" 
d="M90 403l-12 19.001c28.667 67.333 47.667 130.666 57 189.999c44 -9.33301 131 -14 261 -14c164 0 274.667 3.33301 332 10l10 -17c-31.333 -74 -51.333 -137.333 -60 -190c-73.333 7.33301 -187 11 -341 11c-104 0 -186.333 -3 -247 -9z" />
    <glyph glyph-name="hyphen" unicode="&#x2011;" horiz-adv-x="796" 
d="M90 403l-12 19.001c28.667 67.333 47.667 130.666 57 189.999c44 -9.33301 131 -14 261 -14c164 0 274.667 3.33301 332 10l10 -17c-31.333 -74 -51.333 -137.333 -60 -190c-73.333 7.33301 -187 11 -341 11c-104 0 -186.333 -3 -247 -9z" />
    <glyph glyph-name="hyphen" unicode="&#x2010;" horiz-adv-x="796" 
d="M90 403l-12 19.001c28.667 67.333 47.667 130.666 57 189.999c44 -9.33301 131 -14 261 -14c164 0 274.667 3.33301 332 10l10 -17c-31.333 -74 -51.333 -137.333 -60 -190c-73.333 7.33301 -187 11 -341 11c-104 0 -186.333 -3 -247 -9z" />
    <glyph glyph-name="hyphen" unicode="&#xad;" horiz-adv-x="796" 
d="M90 403l-12 19.001c28.667 67.333 47.667 130.666 57 189.999c44 -9.33301 131 -14 261 -14c164 0 274.667 3.33301 332 10l10 -17c-31.333 -74 -51.333 -137.333 -60 -190c-73.333 7.33301 -187 11 -341 11c-104 0 -186.333 -3 -247 -9z" />
    <glyph glyph-name="period" unicode="." horiz-adv-x="512" 
d="M83 107c0 50 14.667 91.833 44 125.5s66 50.5 110 50.5c38.667 0 70.167 -12 94.5 -36s36.5 -57.667 36.5 -101c0 -46 -13.167 -87.667 -39.5 -125s-64.5 -56 -114.5 -56c-41.333 0 -73.5 12.5 -96.5 37.5s-34.5 59.833 -34.5 104.5z" />
    <glyph glyph-name="slash" unicode="/" horiz-adv-x="645" 
d="M-5 -56l524 1555l11 9h121l6 -9l-524 -1555l-10 -9h-122z" />
    <glyph glyph-name="zero" unicode="0" horiz-adv-x="1024" 
d="M88 455c0 250.667 49.6699 472.669 149.003 666.002s232.333 290 399 290c48 0 91.333 -7.83301 130 -23.5s71.167 -35.5 97.5 -59.5s48.833 -54.5 67.5 -91.5s34.5 -84.333 47.5 -142s19.5 -122.834 19.5 -195.501c0 -94.667 -10.667 -194.667 -32 -300
s-50.833 -199.5 -88.5 -282.5s-79.834 -152 -126.501 -207s-94.834 -94.167 -144.501 -117.5s-104.5 -35 -164.5 -35c-78.667 0 -144.334 21.167 -197.001 63.5s-92 98.166 -118 167.499s-39 158.333 -39 267zM321.003 225.002c0 -61.333 10.168 -108.167 30.501 -140.5
s50.166 -48.5 89.499 -48.5c30.667 0 57.834 8.5 81.501 25.5s45.167 47.167 64.5 90.5s43 122.666 71 237.999s52.667 246.666 74 393.999s32 266 32 356c0 64 -12 111.833 -36 143.5s-54.667 47.5 -92 47.5c-21.333 0 -41.333 -5.16699 -60 -15.5
s-37.5 -30.166 -56.5 -59.499s-39.167 -78.666 -60.5 -147.999s-43.833 -166 -67.5 -290s-41.334 -233.5 -53.001 -328.5s-17.5 -183.167 -17.5 -264.5z" />
    <glyph glyph-name="one" unicode="1" horiz-adv-x="1024" 
d="M87 -10l-5.99902 7.99707l14 56l11 9c107.333 2.66699 175 8.33398 203 17.001c8 2.66699 16.167 8.5 24.5 17.5s15.5 23.833 21.5 44.5c12 43.333 35 162.333 69 357l80 463c24 138 37 218.333 39 241c-11.333 -7.33301 -56.333 -28.666 -135 -63.999l-236 -107l-18 15
l34 137c172 44.667 309.167 88.167 411.5 130.5s167.166 73.5 194.499 93.5l37 -28c-9.33301 -34 -40.333 -204 -93 -510l-101 -571c-14 -75.333 -21 -128.666 -21 -159.999c0 -24.667 7 -42.167 21 -52.5s49.833 -17 107.5 -20s103.5 -4.5 137.5 -4.5l7 -9l-13 -54l-10 -9
l-34 2c-8.66699 0.666992 -66 2.16699 -172 4.5s-166 3.5 -180 3.5c-125.333 0 -256.333 -3.33301 -393 -10z" />
    <glyph glyph-name="two" unicode="2" horiz-adv-x="1024" 
d="M6 -7l-7.00195 8.99902l7 47c8 9.33301 38.667 39 92 89c75.333 70.667 162.333 161.834 261 273.501s175.167 217.667 229.5 318s81.5 191.5 81.5 273.5c0 67.333 -17.167 120.833 -51.5 160.5s-85.833 59.5 -154.5 59.5c-45.333 0 -83.5 -7.83301 -114.5 -23.5
s-56.5 -36.667 -76.5 -63s-45 -67.833 -75 -124.5l-12 -6l-47 16l-3 11l111 270c50 44.667 98.833 73.834 146.5 87.501s94.834 20.5 141.501 20.5c76.667 0 144.667 -14.167 204 -42.5s104.666 -68.833 135.999 -121.5s47 -116.334 47 -191.001
c0 -38 -3.5 -71.833 -10.5 -101.5s-19.167 -61.5 -36.5 -95.5s-46.166 -76.667 -86.499 -128s-80.666 -97.333 -120.999 -138l-192.5 -191l-193 -185l1 -12l108 -1l256 3c84.667 0.666992 141 2.16699 169 4.5s60 6.83301 96 13.5l15 -15
c-14.667 -31.333 -36 -101.333 -64 -210l-10 -8c-182 5.33301 -320 8 -414 8z" />
    <glyph glyph-name="three" unicode="3" horiz-adv-x="1024" 
d="M21 58l57.9971 315.001l10 8l50 -5l8 -11c-3.33301 -37.333 -5 -70 -5 -98c0 -78 20.333 -135 61 -171s93 -54 157 -54c94.667 0 167.167 40.833 217.5 122.5s75.5 177.5 75.5 287.5c0 80 -19.333 141.333 -58 184s-94.334 64 -167.001 64
c-42 0 -90.333 -9.66699 -145 -29l-11 12l33 105c18 -4.66699 40.333 -7 67 -7c104.667 0 181.834 27.167 231.501 81.5s74.5 120.166 74.5 197.499c0 63.333 -18 110.166 -54 140.499s-81.667 45.5 -137 45.5c-56.667 0 -105.167 -13 -145.5 -39s-77.5 -70.333 -111.5 -133
l-12 -6l-43 18l-3 11l111 220c32.667 32 75.834 55.667 129.501 71s108.167 23 163.5 23c104.667 0 188.167 -24.333 250.5 -73s93.5 -117 93.5 -205c0 -42.667 -8.16699 -83 -24.5 -121s-39.5 -71.167 -69.5 -99.5s-66.667 -56 -110 -83s-80.666 -45.167 -111.999 -54.5
l-1 -8c108 -12 187 -45.667 237 -101s75 -125.333 75 -210c0 -78.667 -21.667 -155.667 -65 -231s-109.166 -138.166 -197.499 -188.499s-190.5 -75.5 -306.5 -75.5c-62 0 -116.667 6.5 -164 19.5s-99 34.5 -155 64.5z" />
    <glyph glyph-name="four" unicode="4" horiz-adv-x="1024" 
d="M208 -8l-7 8.00098l15 54l11 9c34 1.33301 74.5 3.33301 121.5 6s74.667 6.16699 83 10.5s15.833 12 22.5 23s15 41.167 25 90.5s20.333 108 31 176l-492 -5l-7 9l8 68l127 203c40 63.333 94.333 144 163 242l143 200l200 258c98 19.333 180.667 42.666 248 69.999
l27 -23c-16.667 -79.333 -35.334 -177.333 -56.001 -294l-101 -574c52.667 0.666992 125 3.33398 217 8.00098l10 -8l-36 -150l-11 -8c-77.333 3.33301 -146.666 5 -207.999 5l-20.5 -137c-7.66699 -50.667 -11.5 -87.334 -11.5 -110.001
c0 -17.333 4.16699 -29.666 12.5 -36.999s26.833 -12.833 55.5 -16.5s80 -6.83398 154 -9.50098l7 -8l-12 -51l-10 -9c-2 0 -36.333 1 -103 3c-96 3.33301 -173.667 5 -233 5c-56 -0 -180.333 -2.66699 -373 -8zM541 523.001l72.998 425.001l22 120l28 157
c-60 -74 -144.833 -188.333 -254.5 -343s-187.167 -274.334 -232.5 -359.001c42.667 -2 85.334 -3 128.001 -3c64.667 0 143.334 1 236.001 3z" />
    <glyph glyph-name="five" unicode="5" horiz-adv-x="1024" 
d="M18 68c26.667 108.667 44.332 205.332 52.999 289.999l9 8l44 -6l7 -9c-2.66699 -15.333 -4 -32.333 -4 -51c0 -76.667 20.833 -138.334 62.5 -185.001s98.5 -70 170.5 -70c91.333 0 163.666 45.333 216.999 136s80 193.334 80 308.001c0 82 -18.667 145.667 -56 191
s-92.666 68 -165.999 68c-46.667 0 -87.167 -9.83301 -121.5 -29.5s-66.166 -51.167 -95.499 -94.5l-63 27c72 361.333 115 603.666 129 726.999l11 8c82.667 -9.33301 194.334 -14 335.001 -14c143.333 0 252.666 3 327.999 9l12 -20l-92 -185
c-107.333 -9.33301 -191 -14 -251 -14c-149.333 0 -243.666 2.33301 -282.999 7l-86 -408c76 68.667 171.333 103 286 103c71.333 0 136.166 -13.667 194.499 -41s103.333 -70.166 135 -128.499s47.5 -118.5 47.5 -180.5c0 -78.667 -19.333 -159.667 -58 -243
s-101.5 -155.166 -188.5 -215.499s-191.833 -90.5 -314.5 -90.5c-126.667 0 -239.667 31 -339 93z" />
    <glyph glyph-name="six" unicode="6" horiz-adv-x="1024" 
d="M954 1236l-16.001 -6.00293c-46.667 46.667 -104 70 -172 70c-103.333 0 -188.5 -56.5 -255.5 -169.5s-115.833 -258.833 -146.5 -437.5c92.667 106 195.334 159 308.001 159c85.333 0 156.666 -28.167 213.999 -84.5s86 -135.833 86 -238.5
c0 -66.667 -10.667 -130.667 -32 -192s-46.5 -111.166 -75.5 -149.499s-69 -76.833 -120 -115.5s-99.5 -67.5 -145.5 -86.5s-97.667 -28.5 -155 -28.5c-79.333 0 -147.166 19.167 -203.499 57.5s-97 92 -122 161s-37.5 148.167 -37.5 237.5c0 86.667 10.333 174.5 31 263.5
s46.5 166.333 77.5 232s70.5 130.334 118.5 194.001s105.167 119.834 171.5 168.501s129.5 84.167 189.5 106.5s118 33.5 174 33.5c50 0 101.667 -10.667 155 -32zM325.999 300.997c0 -164.667 57.333 -247 172 -247c77.333 0 133.5 46.167 168.5 138.5
s52.5 187.5 52.5 285.5c0 88 -15.667 149.5 -47 184.5s-71.333 52.5 -120 52.5c-73.333 0 -129.333 -38.5 -168 -115.5s-58 -176.5 -58 -298.5z" />
    <glyph glyph-name="seven" unicode="7" horiz-adv-x="1024" 
d="M157 -8l-12.999 25.001c52 75.333 125 187 219 335l83 129l131 197l167 247l99 148l53 75c-36.667 2.66699 -67.667 4 -93 4c-257.333 0 -411.833 -0.666992 -463.5 -2s-110.834 -5 -177.501 -11l-10 16l12 59c14.667 67.333 25 122.333 31 165l10 12
c13.333 0 53 -2 119 -6c37.333 -2 67.833 -3.33301 91.5 -4s61.5 -1 113.5 -1l226 -3c99.333 -2 154.333 -3 165 -3c47.333 0 108 2.33301 182 7l9 -10l-5 -66c-61.333 -84 -144 -214.833 -248 -392.5s-202.167 -358.834 -294.5 -543.501s-148.833 -307.667 -169.5 -369
l-12 -8c-58 2.66699 -100 4 -126 4s-59 -1.33301 -99 -4z" />
    <glyph glyph-name="eight" unicode="8" horiz-adv-x="1024" 
d="M391 673c-62.667 34 -110.17 73.999 -142.503 119.999s-48.5 103.333 -48.5 172c0 60.667 12.333 115.834 37 165.501s61.667 95.334 111 137.001s101 76 155 103s115.667 40.5 185 40.5c84 0 155.333 -24 214 -72s88 -114.333 88 -199
c0 -36.667 -6 -71.334 -18 -104.001s-30.167 -63.667 -54.5 -93s-48.166 -53 -71.499 -71s-74.666 -53 -153.999 -105c158 -80 237 -188.333 237 -325c0 -44.667 -8.66699 -91.834 -26 -141.501s-41.5 -92.167 -72.5 -127.5s-74 -71.833 -129 -109.5
s-104.833 -64.834 -149.5 -81.501s-95.667 -25 -153 -25c-101.333 0 -183.666 27.833 -246.999 83.5s-95 130.834 -95 225.501c0 34.667 4.5 67.167 13.5 97.5s22.833 59.5 41.5 87.5s43.5 56 74.5 84s56.5 48.333 76.5 61s62.667 38.334 128 77.001zM631.997 801.999
c54.667 38 101 81 139 129s57 104.333 57 169c0 72 -19.5 125.333 -58.5 160s-87.833 52 -146.5 52c-65.333 0 -119.166 -22 -161.499 -66s-63.5 -99.667 -63.5 -167c0 -48.667 14.167 -94 42.5 -136s92.166 -89 191.499 -141zM451.997 633.999
c-62 -32 -115.833 -77.998 -161.5 -137.998s-68.5 -128.333 -68.5 -205c0 -72 21.5 -129.333 64.5 -172s98.5 -64 166.5 -64c46 0 89.167 10.833 129.5 32.5s72 55.667 95 102s34.5 94.166 34.5 143.499c0 54.667 -17.833 104.167 -53.5 148.5s-104.5 95.166 -206.5 152.499
z" />
    <glyph glyph-name="nine" unicode="9" horiz-adv-x="1024" 
d="M108 -9c-1.33301 20.667 -8.16406 55.8301 -20.4971 105.497s-22.833 85.167 -31.5 106.5l47 23c48 -110 125.333 -165 232 -165c62 0 116.5 20.5 163.5 61.5s89 109.333 126 205s68.167 210.167 93.5 343.5c-95.333 -112 -194.666 -168 -297.999 -168
c-87.333 0 -159.833 29.333 -217.5 88s-86.5 146.334 -86.5 263.001c0 64.667 9.16699 125.834 27.5 183.501s44.166 106.5 77.499 146.5s77.166 78.333 131.499 115s102.666 63.667 144.999 81s90.166 26 143.499 26c72.667 0 138 -18.5 196 -55.5
s100.167 -91.333 126.5 -163s39.5 -150.167 39.5 -235.5c0 -83.333 -10.5 -172.833 -31.5 -268.5s-55.833 -191.167 -104.5 -286.5s-108.834 -177.166 -180.501 -245.499s-140.667 -117.833 -207 -148.5s-134.166 -46 -203.499 -46c-49.333 0 -105.333 11.333 -168 34z
M363.002 873.996c0 -70.667 15.666 -125.502 46.999 -164.502s72.666 -58.5 123.999 -58.5c44 0 83 15.5 117 46.5s58.833 79.833 74.5 146.5s23.5 135 23.5 205c0 48 -6 92.833 -18 134.5s-32.167 72.334 -60.5 92.001s-60.166 29.5 -95.499 29.5
c-33.333 0 -63.333 -8.33301 -90 -25s-48.167 -41.667 -64.5 -75s-30.166 -75.166 -41.499 -125.499s-17 -103.833 -17 -160.5z" />
    <glyph glyph-name="colon" unicode=":" horiz-adv-x="512" 
d="M168 757c0 50 14.667 91.833 44 125.5s66 50.5 110 50.5c40 0 71.833 -12.333 95.5 -37s35.5 -58 35.5 -100c0 -45.333 -13.167 -86.833 -39.5 -124.5s-64.5 -56.5 -114.5 -56.5c-40 0 -71.833 12.167 -95.5 36.5s-35.5 59.5 -35.5 105.5zM51 107
c0 50 14.667 91.833 44 125.5s66 50.5 110 50.5c38.667 0 70.167 -12 94.5 -36s36.5 -57.667 36.5 -101c0 -46 -13.167 -87.667 -39.5 -125s-64.5 -56 -114.5 -56c-41.333 0 -73.5 12.5 -96.5 37.5s-34.5 59.833 -34.5 104.5z" />
    <glyph glyph-name="semicolon" unicode=";" horiz-adv-x="512" 
d="M169 757c0 50 14.667 91.833 44 125.5s66 50.5 110 50.5c40 0 71.833 -12.333 95.5 -37s35.5 -58 35.5 -100c0 -46.667 -13.5 -88.5 -40.5 -125.5s-64.833 -55.5 -113.5 -55.5c-42 0 -74.333 12.333 -97 37s-34 59.667 -34 105zM-75 -354l-37.001 30.001
c43.333 62.667 86.833 150.5 130.5 263.5s67.834 206.167 72.501 279.5c86.667 15.333 172.667 39 258 71l33 -30l-73 -141c-21.333 -41.333 -48 -87.333 -80 -138s-63.167 -96.334 -93.5 -137.001s-64.833 -83 -103.5 -127z" />
    <glyph glyph-name="less" unicode="&#x3c;" horiz-adv-x="1024" 
d="M993 15l-961 435v154l961 437v-176l-728 -337l728 -337v-176z" />
    <glyph glyph-name="equal" unicode="=" horiz-adv-x="1024" 
d="M993 715h-961v172h961v-172zM993 352h-961v172h961v-172z" />
    <glyph glyph-name="greater" unicode="&#x3e;" horiz-adv-x="1024" 
d="M993 450l-961 -435v176l728 337l-728 337v176l961 -437v-154z" />
    <glyph glyph-name="question" unicode="?" horiz-adv-x="909" 
d="M407 383c-32.667 31.333 -54.6729 58.4971 -66.0059 81.4971s-17 47.5 -17 73.5c0 28.667 8.33301 60 25 94s55.667 82.333 117 145c76.667 78 128.834 139.167 156.501 183.5s41.5 90.5 41.5 138.5s-17.833 86.5 -53.5 115.5s-81.167 43.5 -136.5 43.5
c-45.333 0 -85.166 -11 -119.499 -33s-66.833 -72.667 -97.5 -152l-11 -7l-49 8l-4 10c40.667 104.667 68.334 188.334 83.001 251.001c53.333 33.333 101.333 56.333 144 69s87 19 133 19c68 0 131.667 -12.333 191 -37s103.333 -61.334 132 -110.001s43 -102.667 43 -162
c0 -41.333 -6 -79.166 -18 -113.499s-30.667 -67 -56 -98s-58.166 -62.5 -98.499 -94.5s-88.166 -67 -143.499 -105c-51.333 -34.667 -89.166 -62.167 -113.499 -82.5s-42.833 -41.166 -55.5 -62.499s-19 -41.333 -19 -60c0 -29.333 12 -55.666 36 -78.999l-1 -12l-30 -24
h-13zM206.994 90.9971c0 48.667 13.166 90.333 39.499 125s62.5 52 108.5 52c38 0 67.667 -11 89 -33s32 -52 32 -90c0 -44.667 -13.167 -85.5 -39.5 -122.5s-63.166 -55.5 -110.499 -55.5c-79.333 0 -119 41.333 -119 124z" />
    <glyph glyph-name="at" unicode="@" horiz-adv-x="1428" 
d="M1439 751c0 -74.667 -16.334 -149.668 -49.001 -225.001s-84.334 -140.333 -155.001 -195c-72.667 -56 -144.667 -84 -216 -84c-58 -2 -103.667 8.83301 -137 32.5s-50 58.5 -50 104.5c-47.333 -84 -118.666 -126 -213.999 -126c-161.333 0 -242 87.333 -242 262
c0 128.667 37 239.334 111 332.001c80 100 182.333 150 307 150c68.667 0 113.334 -22.333 134.001 -67l8 41l175 32l24 -22c-35.333 -132 -64 -253.833 -86 -365.5s-33 -181.834 -33 -210.501c0 -30.667 5.16699 -50.834 15.5 -60.501s22.833 -14.5 37.5 -14.5
c18 -2 46.5 11.5 85.5 40.5s72.167 78.167 99.5 147.5c29.333 72.667 44 149.334 44 230.001c0 161.333 -66.333 280 -199 356c-72 41.333 -161 62 -267 62s-207.667 -26.833 -305 -80.5s-172.666 -129.5 -225.999 -227.5c-52 -94.667 -78 -198.667 -78 -312
c0 -151.333 44.833 -274.166 134.5 -368.499s212.167 -141.5 367.5 -141.5c178.667 0 333.334 57.333 464.001 172l25 -25l-18 -59c-142.667 -114 -308.334 -171 -497.001 -171c-264.667 0 -454.334 90.333 -569.001 271c-58 91.333 -87 196 -87 314
c0 120.667 31.333 233 94 337c64.667 108.667 156.667 196.667 276 264c122 69.333 263 104 423 104c168.667 0 310.667 -44.667 426 -134c118 -91.333 177 -212.333 177 -363zM895.999 809.999c0 77.333 -31 115.999 -93 115.999c-33.333 0 -66.666 -16.667 -99.999 -50
c-35.333 -35.333 -66 -87 -92 -155c-26.667 -70 -40 -135 -40 -195c0 -72 9.33301 -119.667 28 -143s40.667 -35 66 -35c33.333 0 67.666 20.333 102.999 61c44 50.667 80 138.667 108 264c13.333 60.667 20 106.334 20 137.001z" />
    <glyph glyph-name="A" unicode="A" horiz-adv-x="1479" 
d="M-61 -8l-6.99805 8.99902l7 52l10 8c52 4 81.833 6.83301 89.5 8.5s15.5 5.5 23.5 11.5s16 14.833 24 26.5s33.667 54.834 77 129.501l117 199l283 487l173 291c50.667 84 88 149.667 112 197h195l41 -298l47 -330l39 -270l31 -202l20 -121
c7.33301 -54.667 18.666 -89.667 33.999 -105s63 -23.333 143 -24l7 -9l-6 -51l-10 -9c-150.667 5.33301 -251.334 8 -302.001 8c-44 -0 -141.333 -2.66699 -292 -8l-8 9l8 51l10 9c64.667 0 106 5 124 15s27 26 27 48c0 46.667 -16 187 -48 421
c-60.667 0.666992 -100.334 1 -119.001 1l-153 -1h-180c-39.333 -68 -81 -144.5 -125 -229.5s-70.167 -139 -78.5 -162s-12.5 -38.5 -12.5 -46.5c0 -12 7 -22.167 21 -30.5s63.333 -13.5 148 -15.5l7 -9l-7 -52l-10 -8c-0.666992 0 -25 1.33301 -73 4
c-64 2.66699 -112.667 4 -146 4c-19.333 -0 -99.666 -2.66699 -240.999 -8zM504.002 635.999c32 -0.666992 51.333 -1 58 -1c207.333 0 319 0.333008 335 1l-78 541zM598.002 -65.001z" />
    <glyph glyph-name="B" unicode="B" horiz-adv-x="1366" 
d="M48 -6l-6.99805 6.99219l7 53l10 9l29 8c41.333 9.33301 66.5 19.166 75.5 29.499s22.667 64.833 41 163.5s50.5 281.834 96.5 549.501s69 423.5 69 467.5c0 16.667 -4.16699 28.834 -12.5 36.501s-18.5 12.334 -30.5 14.001s-58.333 4.83398 -139 9.50098l-7 8l8 55l9 8
c89.333 -4.66699 192.666 -7 309.999 -7c5.33301 0 49 1.33301 131 4c79.333 2.66699 158.666 4 237.999 4c62 0 117.5 -4.16699 166.5 -12.5s93.167 -25.166 132.5 -50.499s68.666 -56.666 87.999 -93.999s29 -79.666 29 -126.999c0 -39.333 -7 -77.5 -21 -114.5
s-34.667 -71.167 -62 -102.5s-59.833 -58.166 -97.5 -80.499s-67.667 -37.166 -90 -44.499s-71.833 -21 -148.5 -41c134 -13.333 228 -46.5 282 -99.5s81 -122.167 81 -207.5c0 -126.667 -55.833 -233.5 -167.5 -320.5s-248.167 -130.5 -409.5 -130.5
c-45.333 0 -99.666 1.66699 -162.999 5c-74.667 4.66699 -131.667 7 -171 7c-100 0 -192.333 -2 -277 -6zM543.002 771.992c22 -1.33301 47.3311 -2 75.998 -2c82.667 0 145 6.33301 187 19s78.667 32.667 110 60s56.5 65.333 75.5 114s28.5 98.334 28.5 149.001
c0 58 -20.167 106.333 -60.5 145s-111.166 58 -212.499 58c-35.333 0 -71.666 -2 -108.999 -6c-2.66699 -20.667 -17 -99.334 -43 -236.001zM434 103.992c106.667 -16.667 183.666 -25 230.999 -25c104.667 0 179.834 37.667 225.501 113s68.5 156.333 68.5 243
c0 52.667 -10.667 99.334 -32 140.001s-53 69.167 -95 85.5s-108 24.5 -198 24.5l-108 -2l-38 -232c-22.667 -132.667 -40.667 -248.334 -54 -347.001z" />
    <glyph glyph-name="C" unicode="C" horiz-adv-x="1403" 
d="M1276 235l-21.998 -81.9951c-86 -56.667 -174.167 -103.5 -264.5 -140.5s-190.5 -55.5 -300.5 -55.5c-118.667 0 -220.167 22 -304.5 66s-147 105.5 -188 184.5s-61.5 176.5 -61.5 292.5c0 143.333 27.167 279.666 81.5 408.999s155.5 249.333 303.5 360s314 166 498 166
c42 0 86.333 -3.16699 133 -9.5s92.834 -16.333 138.501 -30s84.5 -30.834 116.5 -51.501l2 -12c-39.333 -126.667 -64 -235.667 -74 -327l-8 -8h-55l-9 8c3.33301 104.667 5 160 5 166c0 17.333 -3.66699 31.333 -11 42s-26.833 25.167 -58.5 43.5s-71.334 33 -119.001 44
s-97.5 16.5 -149.5 16.5c-64.667 0 -124.334 -8.66699 -179.001 -26s-105.334 -48.833 -152.001 -94.5s-83.5 -105.334 -110.5 -179.001s-46 -150.834 -57 -231.501s-16.5 -158.667 -16.5 -234c0 -120 16.667 -211.833 50 -275.5s79.5 -109.834 138.5 -138.501
s126.167 -43 201.5 -43c40 0 80.5 3.83301 121.5 11.5s80 18.5 117 32.5s107.5 52 211.5 114z" />
    <glyph glyph-name="D" unicode="D" horiz-adv-x="1593" 
d="M188 1404l9.00098 7.99609c96 -4.66699 205 -7 327 -7l380 6c170.667 0 300 -22.5 388 -67.5s152.167 -109.167 192.5 -192.5s60.5 -175.666 60.5 -276.999c0 -130.667 -28.333 -262.5 -85 -395.5s-150.334 -247.333 -281.001 -343s-282.667 -143.5 -456 -143.5
c-34.667 0 -95.667 1.33301 -183 4c-84 2.66699 -147.667 4 -191 4c-116 0 -216.333 -2 -301 -6l-7 7l7 53l10 9l29 8c41.333 9.33301 66.5 19.166 75.5 29.499s22.667 64.833 41 163.5s50.5 281.834 96.5 549.501s69 423.5 69 467.5c0 16.667 -4.16699 28.834 -12.5 36.501
s-18.5 12.334 -30.5 14.001s-58.333 4.83398 -139 9.50098l-7 8zM434.001 120.996l140.003 -19.002c64 -9.33301 118.667 -14 164 -14c74.667 0 136.667 10.167 186 30.5s92.666 51.833 129.999 94.5s70.666 94.334 99.999 155.001s55 139.167 77 235.5s33 193.5 33 291.5
c0 62.667 -7.33301 118.667 -22 168s-33.834 90.333 -57.501 123s-52.834 59.334 -87.501 80.001s-72 34.5 -112 41.5s-88.333 10.5 -145 10.5c-79.333 0 -146 -4 -200 -12c-3.33301 -32 -15.666 -101.667 -36.999 -209l-87 -486c-44 -250.667 -71.333 -414 -82 -490z" />
    <glyph glyph-name="E" unicode="E" horiz-adv-x="1251" 
d="M41 1l6.99707 52.999l10 9c52 12.667 83.333 22.334 94 29.001c5.33301 3.33301 10 8 14 14s9.5 23.167 16.5 51.5s31.167 160.833 72.5 397.5l77 446c24.667 147.333 37 240.666 37 279.999c0 16.667 -4.16699 29 -12.5 37s-18.5 12.667 -30.5 14
s-58.333 4.33301 -139 9l-7 8l8 55l9 8c106 -4.66699 248.667 -7 428 -7c32 0 234.667 2.33301 608 7l10 -12c-1.33301 -16 -11 -72.667 -29 -170c-9.33301 -52 -16.666 -100.667 -21.999 -146l-9 -8h-52l-8 8c2 78 3 124.667 3 140c0 20 -2.33301 33.667 -7 41
s-16.334 14.333 -35.001 21s-54.167 12.667 -106.5 18s-101.833 8 -148.5 8c-73.333 0 -134 -4 -182 -12l-62 -312c-9.33301 -46.667 -21.666 -115 -36.999 -205c145.333 -3.33301 237.333 -5 276 -5c60 0 124.667 1.66699 194 5l6 -12l-26 -88l-12 -9
c-124 2.66699 -248 5.66699 -372 9c-23.333 0 -50.666 -0.666992 -81.999 -2l-63 -358c-18.667 -103.333 -30 -178.333 -34 -225h166c84 0 157.167 2 219.5 6s104.833 9.33301 127.5 16s39.334 16.667 50.001 30s23.667 49 39 107c3.33301 14.667 12 43.334 26 86.001l8 8
h59l7 -8l-67 -341l-11 -9c-106.667 2 -179.667 3 -219 3l-441 4c-101.333 0 -218.333 -2 -351 -6zM552.997 -65.001z" />
    <glyph glyph-name="F" unicode="F" 
d="M192 1403l8.99902 8.99707c90.667 -4.66699 194.334 -7 311.001 -7l354 3c89.333 0 201.333 1.33301 336 4l9 -12c-5.33301 -37.333 -14.5 -91.5 -27.5 -162.5s-20.5 -121.5 -22.5 -151.5l-11 -8h-51l-8 8c1.33301 46 2.33301 92 3 138c0 20 -1.83301 33.5 -5.5 40.5
s-12.834 13.833 -27.501 20.5s-46 13 -94 19s-98.667 9 -152 9c-58 0 -112 -3.66699 -162 -11c-12 -37.333 -26.333 -109.666 -43 -216.999l-66 -376l62 -2c200 0 338.667 5 416 15l9 -13l-25 -94l-11 -9c-101.333 2.66699 -223 4 -365 4
c-42.667 0 -77.667 -1.33301 -105 -4c-48 -282.667 -72 -443 -72 -481c0 -21.333 7.16699 -36.333 21.5 -45s34.5 -13.667 60.5 -15l106 -5l7 -8l-6 -50l-9 -9c-77.333 4.66699 -187 7 -329 7c-109.333 0 -214 -2.33301 -314 -7l-7 8l6 50l9 9
c6 0.666992 21.333 1.66699 46 3c58 2 93.333 8 106 18s23.834 33.167 33.501 69.5s45.834 235.166 108.501 596.499c54 308.667 81 486.667 81 534c0 16.667 -4.33301 28.834 -13 36.501s-18.834 12.334 -30.501 14.001s-58.167 4.83398 -139.5 9.50098l-6 8z" />
    <glyph glyph-name="G" unicode="G" horiz-adv-x="1593" 
d="M1334 93l-7.00098 -7.00293c-33.333 -6.66699 -87 -22.667 -161 -48c-103.333 -35.333 -186 -57.666 -248 -66.999s-120 -14 -174 -14c-184.667 0 -329.5 47.167 -434.5 141.5s-157.5 232.166 -157.5 413.499c0 99.333 14.5 196.666 43.5 291.999
s69.167 177.666 120.5 246.999s125.5 137.5 222.5 204.5s186.667 113.667 269 140s168.166 39.5 257.499 39.5c77.333 0 155.333 -9 234 -27s138 -40.333 178 -67l8 -14l-46 -169c-12 -42.667 -22.667 -95 -32 -157l-9 -8h-57l-7 8c5.33301 72.667 8 136.334 8 191.001
c-91.333 75.333 -208 113 -350 113c-89.333 0 -168.333 -14.333 -237 -43s-126.667 -79.167 -174 -151.5s-84.666 -162.666 -111.999 -270.999s-41 -214.833 -41 -319.5c0 -149.333 33.667 -263.666 101 -342.999s164 -119 290 -119c91.333 0 171.333 19.667 240 59l38 155
c7.33301 28.667 14.5 65 21.5 109s10.5 71.333 10.5 82s-3 19.834 -9 27.501s-13 12.5 -21 14.5s-31.5 4 -70.5 6s-73.167 3.33301 -102.5 4l-7 8l10 54l9 9c128 -4.66699 221 -7 279 -7c28 0 130.667 2.33301 308 7l7 -9l-8 -54l-10 -8c-36 -0.666992 -62.167 -4 -78.5 -10
s-28.666 -16.167 -36.999 -30.5s-17.833 -48.5 -28.5 -102.5l-19 -87c-10.667 -52 -17.167 -85.667 -19.5 -101s-3.5 -31.666 -3.5 -48.999c0 -13.333 2 -27.333 6 -42z" />
    <glyph glyph-name="H" unicode="H" horiz-adv-x="1594" 
d="M1134 793c49.333 282 73.999 445.004 73.999 489.004c0 12.667 -2.66699 22.667 -8 30s-13.5 12.666 -24.5 15.999s-31.167 6 -60.5 8l-90 5l-7 8l8 55l9 8c77.333 -4.66699 171 -7 281 -7c86 0 205.667 2.33301 359 7l6 -8l-9 -55l-9 -8
c-75.333 -2.66699 -118.166 -5.33398 -128.499 -8.00098s-19 -7.16699 -26 -13.5s-13.167 -15.5 -18.5 -27.5c-8 -20 -22 -81.667 -42 -185l-129 -749c-20.667 -125.333 -31 -203 -31 -233c0 -20.667 6.83301 -35.5 20.5 -44.5s35.5 -14.167 65.5 -15.5l102 -5l7 -8l-6 -50
l-9 -9c-77.333 4.66699 -179.666 7 -306.999 7c-121.333 0 -233.333 -2.33301 -336 -7l-7 8l6 50l9 9c6 0.666992 21.333 1.66699 46 3c55.333 2 88.833 6.66699 100.5 14s21.667 22 30 44s22.833 90.667 43.5 206l65 369l-281 1l-308 -1
c-59.333 -334.667 -89 -525 -89 -571c0 -20.667 7 -35.5 21 -44.5s35.333 -14.167 64 -15.5l103 -5l7 -8l-6 -50l-9 -9c-86.667 4.66699 -189 7 -307 7c-121.333 0 -233.333 -2.33301 -336 -7l-7 8l5 50l10 9c6 0.666992 21.333 1.66699 46 3c56 2 89.5 6.66699 100.5 14
s20.833 21.833 29.5 43.5s26.667 109.834 54 264.501l92 531c34.667 200 52 321.667 52 365c0 13.333 -2.5 23.666 -7.5 30.999s-13 12.666 -24 15.999s-31.167 6 -60.5 8l-90 5l-7 8l8 55l9 8c80 -4.66699 173.667 -7 281 -7c70 0 189.667 2.33301 359 7l6 -8l-9 -55l-9 -8
c-73.333 -2.66699 -115.333 -5.16699 -126 -7.5s-20.334 -7.33301 -29.001 -15s-17 -23.334 -25 -47.001s-21 -87.5 -39 -191.5l-51 -287c132 -4.66699 231 -7 297 -7z" />
    <glyph glyph-name="I" unicode="I" horiz-adv-x="797" 
d="M8 -7l-7 8.00195l6 50l9 9c6 0.666992 21.333 1.66699 46 3c56 2 89.5 6.66699 100.5 14s20.833 21.666 29.5 42.999s26.334 109 53.001 263l93 532c34.667 200.667 52 322.667 52 366c0 12 -2.16699 21.667 -6.5 29s-11.5 13 -21.5 17s-30.667 7 -62 9l-92 5l-7 8l8 54
l9 9c90.667 -4.66699 196 -7 316 -7c49.333 0 157.333 2.33301 324 7l6 -8l-9 -55l-9 -8c-76 -2.66699 -118.667 -5.33398 -128 -8.00098c-10.667 -3.33301 -19.5 -8 -26.5 -14s-13.167 -15.333 -18.5 -28c-8.66699 -21.333 -23.334 -86.333 -44.001 -195l-131 -759
c-18 -114 -27 -184.667 -27 -212c0 -21.333 7 -36.333 21 -45s35 -13.667 63 -15l104 -5l7 -8l-6 -50l-9 -9c-77.333 4.66699 -187 7 -329 7c-109.333 0 -214 -2.33301 -314 -7zM302 -64.998z" />
    <glyph glyph-name="J" unicode="J" horiz-adv-x="797" 
d="M239 1341l-6 7.99902l7 54l10 9c90.667 -4.66699 195.667 -7 315 -7c50.667 0 158.667 2.33301 324 7l7 -8l-9 -55l-9 -8c-74 -2.66699 -116.5 -5.33398 -127.5 -8.00098s-20.167 -7.16699 -27.5 -13.5s-14.5 -17.666 -21.5 -33.999s-18.833 -69.833 -35.5 -160.5
l-132 -764c-29.333 -178.667 -50.666 -295.334 -63.999 -350.001c-26 -106.667 -63.333 -196.667 -112 -270s-103 -125.166 -163 -155.499s-132 -45.5 -216 -45.5c-30.667 0 -60.334 3.33301 -89.001 10l-16 46l9 17c22.667 -2.66699 45 -4 67 -4
c61.333 0 106.166 8.83301 134.499 26.5s52 47.167 71 88.5s45.167 162.333 78.5 363l119 712c46 274 69 434 69 480c0 17.333 -4.16699 30 -12.5 38s-18.666 12.833 -30.999 14.5s-58.833 4.83398 -139.5 9.50098z" />
    <glyph glyph-name="K" unicode="K" horiz-adv-x="1479" 
d="M560 697c42.667 29.333 92.6689 69.835 150.002 121.502s139.333 130 246 235s175.5 175 206.5 210s48.833 58.167 53.5 69.5s7 26 7 44v25l8 9c30 -4 54 -6 72 -6c94.667 0 176.334 2 245.001 6l8 -9l-9 -56l-9 -8c-44.667 -1.33301 -74.334 -4 -89.001 -8
s-31.834 -12 -51.501 -24s-64.834 -48.5 -135.501 -109.5l-221 -200.5l-229 -216l393 -559c54.667 -78 91.167 -123.833 109.5 -137.5s52.833 -21.5 103.5 -23.5l7 -8l-5 -51l-11 -9l-30 1c-88 4.66699 -157.667 7 -209 7c-34.667 0 -76.334 -2.66699 -125.001 -8
l-231.5 348.5c-61 88.333 -146.5 202.833 -256.5 343.5l-49 -292c-15.333 -90.667 -25.333 -154.834 -30 -192.501s-7 -62.5 -7 -74.5c0 -21.333 7.16699 -36.333 21.5 -45s34.5 -13.667 60.5 -15l106 -5l7 -8l-6 -50l-9 -9c-77.333 4.66699 -187 7 -329 7
c-109.333 0 -214 -2.33301 -314 -7l-7 8l6 50l9 9c6 0.666992 21.333 1.66699 46 3c56 2 89.5 6.66699 100.5 14s20.833 21.666 29.5 42.999s26.334 109 53.001 263l93 532c34.667 200.667 52 322.667 52 366c0 12 -2.16699 21.667 -6.5 29s-11.5 13 -21.5 17
s-30.667 7 -62 9l-92 5l-7 8l8 54l9 9c90.667 -4.66699 196 -7 316 -7c49.333 0 157.333 2.33301 324 7l6 -8l-9 -55l-9 -8c-73.333 -2.66699 -115.333 -5.16699 -126 -7.5s-20.5 -7.33301 -29.5 -15s-17.333 -24 -25 -49s-22.167 -97.167 -43.5 -216.5z" />
    <glyph glyph-name="L" unicode="L" horiz-adv-x="1251" 
d="M79 1l7.00098 52.9951l10 9c50 12 80 21 90 27c6 3.33301 10.5 6.66602 13.5 9.99902s6.16699 9 9.5 17c9.33301 25.333 22.666 88.333 39.999 189l127 746c19.333 122 29 198.333 29 229c0 16.667 -4.33301 28.834 -13 36.501s-19 12.334 -31 14.001
s-58.333 4.83398 -139 9.50098l-6 8l7 54l10 9c94 -4.66699 199.333 -7 316 -7c31.333 0 139 2.33301 323 7l6 -8l-8 -55l-9 -8c-74.667 -2.66699 -117.5 -5.33398 -128.5 -8.00098s-20.833 -8.16699 -29.5 -16.5s-17.334 -28.166 -26.001 -59.499
s-24.334 -110.666 -47.001 -237.999l-126 -716c-17.333 -91.333 -27.666 -159.666 -30.999 -204.999h166c84 0 157.167 2 219.5 6s104.833 9.33301 127.5 16s39.334 16.667 50.001 30s23.667 49 39 107c3.33301 14.667 12 43.334 26 86.001l8 8h59l7 -8
c-2 -16 -8.33301 -49 -19 -99c-8.66699 -40 -17 -82.667 -25 -128c-10 -54.667 -17.667 -92.667 -23 -114l-11 -9c-112 2 -193.667 3 -245 3l-404 4c-154 0 -274.667 -2 -362 -6z" />
    <glyph glyph-name="M" unicode="M" horiz-adv-x="1933" 
d="M1550 1411c98 -6.66699 154.67 -10.002 170.003 -10.002l283 10l8 -8l-6 -53l-12 -9l-49.5 -5c-26.333 -2.66699 -46.5 -6 -60.5 -10s-25.333 -11.167 -34 -21.5s-16.167 -26 -22.5 -47s-14.833 -59.833 -25.5 -116.5l-140 -805
c-19.333 -119.333 -29 -189.666 -29 -210.999c0 -19.333 5.66699 -33 17 -41s33.666 -13.333 66.999 -16l94 -9l7 -8l-9 -51l-10 -6c-104.667 4 -207 6 -307 6c-94.667 0 -194.334 -2 -299.001 -6l-8 8l6 49l8 6c73.333 10.667 117.333 18.167 132 22.5
s27.167 23.833 37.5 58.5s26.166 115.667 47.499 243l76 444l57 371c-280.667 -449.333 -492.334 -801.666 -635.001 -1057l-98 -176h-55l-128 526l-161 635l-152 -612c-54 -222.667 -81 -350 -81 -382c0 -24.667 5.83301 -41.5 17.5 -50.5s59.5 -15.833 143.5 -20.5l9 -8
l-7 -49l-8 -8c-69.333 4 -141.666 6 -216.999 6c-76 0 -147 -2 -213 -6l-8 8l4 49l10 8c64.667 7.33301 102.5 17.333 113.5 30s30.5 66.5 58.5 161.5s63 221.167 105 378.5l116 438c27.333 105.333 41 170.333 41 195c0 36.667 -18.167 58 -54.5 64s-81.5 10.333 -135.5 13
l-6 11l6 51l8 8c102.667 -4 180.667 -6 234 -6c60 0 129 2 207 6l108 -448l152 -603l102 166l389 652z" />
    <glyph glyph-name="N" unicode="N" horiz-adv-x="1593" 
d="M1225 291c107.333 593.333 161 921 161 983c0 24 -8 40.333 -24 49s-36.167 13.5 -60.5 14.5s-54.166 2.83301 -89.499 5.5l-8 11l10 49l9 8h53c114.667 -4 185 -6 211 -6c21.333 0 86 2 194 6l9 -8l-4 -51l-11 -9c-60 -1.33301 -95.833 -3.33301 -107.5 -6
s-23.667 -12.334 -36 -29.001s-31.833 -92 -58.5 -226l-138 -709c-20.667 -107.333 -41 -237 -61 -389h-176l-635 1124c-108 -569.333 -162 -895 -162 -977c0 -27.333 9.33301 -45 28 -53s38.834 -12.5 60.501 -13.5s50.167 -2.83301 85.5 -5.5l6 -8l-8 -51l-8 -6h-53
c-129.333 4 -203.333 6 -222 6c-27.333 0 -89.333 -2.66699 -186 -8l-6 8l4 51l8 8c66 2.66699 103.667 6.16699 113 10.5s18.666 11.333 27.999 21s18.333 34.5 27 74.5l42 194c18.667 89.333 35 171.333 49 246l114 622c-35.333 53.333 -61.5 84 -78.5 92
s-71.5 16 -163.5 24l-6 9l6 51l13 8c57.333 -3.33301 105.666 -4.66602 144.999 -3.99902l283 4l182 -324z" />
    <glyph glyph-name="O" unicode="O" horiz-adv-x="1706" 
d="M153 531c0 52 7.33105 121.834 21.998 209.501s45 176.667 91 267s105.667 168.166 179 233.499s156 114 248 146s192.667 48 302 48c84.667 0 165.5 -11.167 242.5 -33.5s146.333 -60.833 208 -115.5s105.334 -119.5 131.001 -194.5s38.5 -159.167 38.5 -252.5
c0 -246 -76.833 -454.667 -230.5 -626s-359.5 -257 -617.5 -257c-130 0 -241.667 22.667 -335 68s-163.166 110.333 -209.499 195s-69.5 188.667 -69.5 312zM432.998 468.001c0 -86 12.8301 -161.001 38.4971 -225.001s70 -112.5 133 -145.5s131.167 -49.5 204.5 -49.5
c107.333 0 196 31.5 266 94.5s130.667 172.333 182 328s77 303.834 77 444.501c0 154 -34.167 263.5 -102.5 328.5s-156.833 97.5 -265.5 97.5c-101.333 0 -184.166 -23.5 -248.499 -70.5s-119.166 -120.833 -164.499 -221.5s-76.666 -204.667 -93.999 -312
s-26 -197 -26 -269zM737.995 -65z" />
    <glyph glyph-name="P" unicode="P" horiz-adv-x="1366" 
d="M239 1412c80 -4.66699 178.003 -6.99512 294.003 -6.99512c97.333 0 193 1.66699 287 5c54 1.33301 102 2 144 2c95.333 0 170.833 -12.833 226.5 -38.5s100.167 -64.834 133.5 -117.501s50 -115.334 50 -188.001c0 -136.667 -50.167 -252.667 -150.5 -348
s-218.833 -143 -355.5 -143c-64.667 0 -132.334 12.667 -203.001 38l-9 64l6 8c50.667 -18.667 99 -28 145 -28c59.333 0 111.833 19.167 157.5 57.5s80 89 103 152s34.5 127.167 34.5 192.5c0 83.333 -21.833 147 -65.5 191s-108.5 66 -194.5 66
c-30.667 0 -81 -5.33301 -151 -16c-24.667 -120.667 -46.334 -236.334 -65.001 -347.001l-66 -379c-25.333 -142.667 -47 -279.334 -65 -410.001c-2 -14 -3 -27.667 -3 -41c0 -18 5.5 -31.833 16.5 -41.5s32.833 -15.5 65.5 -17.5l106 -6l7 -8l-6 -50l-9 -9
c-97.333 4.66699 -199.666 7 -306.999 7c-127.333 0 -239.333 -2.33301 -336 -7l-7 8l6 50l9 9c6 0.666992 21.333 1.66699 46 3c56 2 89.667 6.83301 101 14.5s21.166 21.667 29.499 42s26.166 109.5 53.499 267.5l93 533c34 197.333 51 317.666 51 360.999
c0 12 -2.16699 21.667 -6.5 29s-11.5 13 -21.5 17s-30.667 7 -62 9l-92 5l-7 8l8 54z" />
    <glyph glyph-name="Q" unicode="Q" horiz-adv-x="1706" 
d="M610 -31c-144.667 24 -257.005 83.332 -337.005 177.999s-120 220 -120 376c0 100.667 15.833 207.667 47.5 321s84 215.333 157 306s163.167 160.834 270.5 210.501s229.666 74.5 366.999 74.5c130.667 0 243.167 -24 337.5 -72s165 -114.833 212 -200.5
s70.5 -193.5 70.5 -323.5c0 -167.333 -36.167 -318.166 -108.5 -452.499s-170.166 -239.666 -293.499 -315.999s-271.333 -114.5 -444 -114.5c-40.667 0 -80.667 2.66699 -120 8c70 -18 183.333 -62 340 -132c90.667 -40.667 162 -69.5 214 -86.5s97.667 -25.5 137 -25.5
c20 0 40.333 5.33301 61 16s39.5 28 56.5 52s31.5 60.667 43.5 110l9 6l49 -17l5 -9c-22.667 -102 -59.667 -184.5 -111 -247.5s-114 -94.5 -188 -94.5c-29.333 0 -58.5 4 -87.5 12s-57.667 18.667 -86 32s-75.166 38.666 -140.499 75.999
c-139.333 80.667 -236.166 133.5 -290.499 158.5s-103.166 37.5 -146.499 37.5c-41.333 0 -76.666 -16.833 -105.999 -50.5s-44.666 -84.834 -45.999 -153.501l-10 -7l-43 28l-7 14c-0.666992 7.33301 -1 12.333 -1 15c0 54.667 13.333 104 40 148s60.667 76 102 96
s80.333 30 117 30c11.333 0 28 -1 50 -3zM432.995 467.999c0 -86 12.8301 -161.001 38.4971 -225.001s70 -112.5 133 -145.5s131.167 -49.5 204.5 -49.5c107.333 0 196 31.5 266 94.5s130.667 172.333 182 328s77 303.834 77 444.501c0 154 -34.167 263.5 -102.5 328.5
s-156.833 97.5 -265.5 97.5c-101.333 0 -184.166 -23.5 -248.499 -70.5s-119.166 -120.833 -164.499 -221.5s-76.666 -204.667 -93.999 -312s-26 -197 -26 -269z" />
    <glyph glyph-name="R" unicode="R" horiz-adv-x="1479" 
d="M1196 279c52 -90 85.499 -144.999 100.499 -164.999s28.333 -33.333 40 -40s39.834 -11.667 84.501 -15l9 -8l-5 -49l-10 -8c-49.333 4 -106 6 -170 6c-62.667 0 -126.667 -2 -192 -6c-182 348.667 -321.333 595 -418 739l8 33c19.333 -1.33301 39 -2 59 -2
c116.667 0 208.334 29.167 275.001 87.5s100 142.5 100 252.5c0 144.667 -82.667 217 -248 217c-70 0 -123.667 -5.33301 -161 -16l-133 -770c-40 -228 -60 -358 -60 -390v-22c0 -18 5 -31.5 15 -40.5s33 -14.5 69 -16.5l105 -7l6 -8l-6 -49l-9 -8
c-110.667 4 -220.334 6 -329.001 6s-213.334 -2 -314.001 -6l-8 6l6 51l10 8l48 4c39.333 2 68.5 4.5 87.5 7.5s35.333 31.833 49 86.5s28.834 130 45.501 226l92 530c34 197.333 51 319.666 51 366.999c0 22.667 -5.66699 37 -17 43s-35.666 10 -72.999 12l-90 6l-8 9l8 53
l10 8c84.667 -4 190 -6 316 -6l395 8c172 0 284 -30 336 -90s78 -127.667 78 -203c0 -86.667 -31.833 -165.167 -95.5 -235.5s-171.834 -120.833 -324.501 -151.5z" />
    <glyph glyph-name="S" unicode="S" 
d="M1032 1045l-10.0029 -8h-48l-8 9c1.33301 24 2 42 2 54l-2 103c-23.333 35.333 -59.5 63.166 -108.5 83.499s-101.5 30.5 -157.5 30.5c-54 0 -103.667 -10.5 -149 -31.5s-80 -54 -104 -99s-36 -94.167 -36 -147.5c0 -41.333 7.33301 -75.333 22 -102
s33.667 -47.834 57 -63.501s48.5 -28 75.5 -37s78.833 -20.833 155.5 -35.5c68 -13.333 119.5 -26.666 154.5 -39.999s64.5 -31.666 88.5 -54.999s43.167 -53.833 57.5 -91.5s21.5 -79.5 21.5 -125.5c0 -90 -27.833 -176.667 -83.5 -260s-127 -149.5 -214 -198.5
s-184.833 -73.5 -293.5 -73.5c-67.333 0 -132.833 9.66699 -196.5 29s-116.5 45 -158.5 77l-4 12c6 20.667 15.5 70.334 28.5 149.001s20.167 128.667 21.5 150l11 9h47l8 -8l-2 -112c0 -9.33301 0.666992 -28.333 2 -57c18.667 -31.333 57.834 -61.666 117.501 -90.999
s123.167 -44 190.5 -44c102.667 0 179.5 28.667 230.5 86s76.5 122.333 76.5 195c0 32.667 -5.5 62 -16.5 88s-24.5 46.167 -40.5 60.5s-34.667 25.5 -56 33.5s-54.666 17.333 -99.999 28c-108 26 -186.167 49.667 -234.5 71s-87.166 56.5 -116.499 105.5
s-44 110.833 -44 185.5c0 101.333 27.667 190.666 83 267.999s124.333 137.166 207 179.499s171.667 63.5 267 63.5c119.333 0 222 -29.667 308 -89l4 -11c-23.333 -95.333 -41 -192 -53 -290z" />
    <glyph glyph-name="T" unicode="T" horiz-adv-x="1251" 
d="M237 60c6.66699 0.666992 22.3311 1.66895 46.998 3.00195c54.667 2 87.167 6.16699 97.5 12.5s20.166 19 29.499 38s29.333 116.167 60 291.5l84 487l69 406c-90.667 0 -158.5 -0.833008 -203.5 -2.5s-80.333 -5.33398 -106 -11.001s-41.167 -10.5 -46.5 -14.5
s-12.166 -13.667 -20.499 -29s-17.833 -43.333 -28.5 -84s-19 -74 -25 -100l-9 -8h-58l-7 9c16.667 90 33 204 49 342l12 12c14.667 0 60.334 -2 137.001 -6c144.667 -6.66699 291.667 -10 441 -10c91.333 0 201.833 1.5 331.5 4.5s220.167 6.83301 271.5 11.5l15 -17
c-38.667 -190.667 -59 -303.334 -61 -338.001l-9 -8h-59l-7 8c6 54.667 9 104.667 9 150c0 35.333 -4 57.833 -12 67.5s-32.167 16.167 -72.5 19.5s-94.166 5 -161.499 5l-112 -1l-80 -421l-91 -535c-14 -86 -23 -148 -27 -186c-0.666992 -12 -1 -22.333 -1 -31
c0 -18 5.5 -31.833 16.5 -41.5s32.833 -15.5 65.5 -17.5l106 -6l7 -8l-6 -50l-9 -9c-78 4.66699 -187.667 7 -329 7c-104 0 -208.667 -2.33301 -314 -7l-7 8l5 50z" />
    <glyph glyph-name="U" unicode="U" horiz-adv-x="1593" 
d="M1319 127c0 -22.667 5.66895 -38.1689 17.002 -46.502s31.666 -13.166 60.999 -14.499l108 -7l6 -8l-6 -49l-8 -10c-109.333 5.33301 -181.666 8 -216.999 8l-240 -4l-10 12c24.667 108.667 41 192.667 49 252c-114.667 -121.333 -209.334 -201.833 -284.001 -241.5
s-152 -59.5 -232 -59.5c-129.333 0 -222.5 31.5 -279.5 94.5s-85.5 135.5 -85.5 217.5c0 84.667 24.333 261.334 73 530.001s73 427 73 475c0 18.667 -5.83301 33.167 -17.5 43.5s-63.834 17.5 -156.501 21.5l-8 9l8 53l14 8c55.333 0 110 -0.666992 164 -2l162 -4
c42.667 0 87.667 2 135 6l12 -16c-12 -52 -27 -125.667 -45 -221l-61 -320l-59 -348c-14 -82 -21 -140.667 -21 -176c0 -68.667 22.167 -119 66.5 -151s96.5 -48 156.5 -48c50 0 98 10.833 144 32.5s93.5 54.167 142.5 97.5s80.333 76 94 98s25.5 63.333 35.5 124l102 623
c16.667 96 25 152.667 25 170c0 26.667 -8 43.167 -24 49.5s-69.333 11.5 -160 15.5l-6 9l8 53l10 8c104 -4 209 -6 315 -6c46 0 154 2 324 6l6 -6l-8 -55l-10 -11c-80 -2 -124.167 -4.16699 -132.5 -6.5s-17.333 -8 -27 -17s-20 -37.667 -31 -86
s-23.5 -112.833 -37.5 -193.5l-121 -700c-19.333 -111.333 -27.333 -181 -24 -209zM708.002 -65.002z" />
    <glyph glyph-name="V" unicode="V" horiz-adv-x="1366" 
d="M512 -15c-2.66699 30 -22.002 161.332 -58.002 393.999l-68 433l-74 433c-6 32.667 -11.667 54 -17 64c-2.66699 5.33301 -6.5 10 -11.5 14s-11.5 7.33301 -19.5 10c-14.667 4.66699 -52.667 7.33398 -114 8.00098l-8 9l8 53l12 9l241 -6l335 6l7 -9l-7 -49l-9 -9
c-70 -2.66699 -112 -8.66699 -126 -18s-21 -23.333 -21 -42c0 -46.667 8 -121.667 24 -225l119 -778l234 430l101.5 194c43 83.333 82.167 163 117.5 239s54.833 120.5 58.5 133.5s5.5 22.167 5.5 27.5c0 12.667 -8 21.334 -24 26.001s-61.667 9 -137 13l-7 9l7 50l10 8
c1.33301 0 20.333 -0.666992 57 -2c64.667 -2 108.667 -3 132 -3l236 5l9 -10l-8 -53l-9 -8c-30 0 -52.167 -2.16699 -66.5 -6.5s-26.166 -12.333 -35.499 -24s-32.666 -51.834 -69.999 -120.501l-499 -904c-95.333 -172.667 -147.333 -273 -156 -301h-169z" />
    <glyph glyph-name="W" unicode="W" horiz-adv-x="2048" 
d="M1823 981c61.333 156.667 92.002 257.666 92.002 302.999c0 22.667 -8.83301 37.834 -26.5 45.501s-64.167 11.5 -139.5 11.5l-6 9l6 53l10 10c117.333 -5.33301 198.666 -8 243.999 -8c62 0 122.667 2 182 6l8 -8l-4 -53l-8 -11c-52 0 -83.333 -6.16699 -94 -18.5
s-38 -72.833 -82 -181.5l-344 -848l-121 -307h-172c-20.667 91.333 -43.334 183.333 -68.001 276l-198 752l-504 -1028h-170l-51 598c-18.667 204 -35 365.167 -49 483.5s-24.667 190.833 -32 217.5s-18.166 42.5 -32.499 47.5s-51.5 8.5 -111.5 10.5l-9 9l9 55l10 8l301 -6
c123.333 0 214.666 2 273.999 6l8 -8l-8 -55l-8 -9c-66 0 -108.5 -5.16699 -127.5 -15.5s-28.5 -33.833 -28.5 -70.5c0 -46 6.33301 -138.667 19 -278l59 -674l193 395l344 721h65l301 -1145z" />
    <glyph glyph-name="X" unicode="X" horiz-adv-x="1479" 
d="M1062 1412c70.667 -5.33301 138.669 -7.99707 204.002 -7.99707l312 8l6 -8l-7 -54l-10 -9c-60.667 -0.666992 -98.667 -4.33398 -114 -11.001s-46.666 -32.834 -93.999 -78.501s-129 -130.5 -245 -254.5l-203 -217l190 -379
c97.333 -194.667 153.666 -298.5 168.999 -311.5s61.666 -22.167 138.999 -27.5l7 -9l-8 -51l-10 -8l-316 6c-16.667 0 -116.334 -2 -299.001 -6l-6 7l8 52l10 8c65.333 1.33301 107 5.66602 125 12.999s27 19 27 35c0 8 -2.5 19.833 -7.5 35.5
s-22.833 54.834 -53.5 117.501l-86 175l-74 143l-183 -205c-30 -32.667 -66.833 -76.334 -110.5 -131.001s-68.5 -88.167 -74.5 -100.5s-9 -21.833 -9 -28.5c0 -18.667 11.833 -32.334 35.5 -41.001s70.5 -13.334 140.5 -14.001l6 -9l-6 -49l-12 -9l-69 2
c-110.667 3.33301 -191 5 -241 5c-70 0 -141.667 -2.33301 -215 -7l-7 8l8 51l9 8c56.667 1.33301 95.334 6.33301 116.001 15s49.667 33.667 87 75l477 518l-202 402c-12 24 -34.833 67.167 -68.5 129.5s-56.167 99.333 -67.5 111s-23 19.167 -35 22.5s-56.667 6 -134 8
l-8 9l9 54l8 8l357 -6c89.333 0 184.666 2 285.999 6l6 -8l-8 -55l-9 -8l-67 -2c-36.667 -2 -59.167 -6.16699 -67.5 -12.5s-12.5 -15.166 -12.5 -26.499c0 -30 43.333 -129.333 130 -298l70 -138l161 183l76 92c28.667 33.333 54 65 76 95s34.333 48.333 37 55
s4 12.334 4 17.001c0 10.667 -8 18.667 -24 24s-64 9 -144 11l-7 9l8 54z" />
    <glyph glyph-name="Y" unicode="Y" horiz-adv-x="1251" 
d="M297 60c8.66699 0.666992 24.001 1.66699 46.001 3c50.667 2 81.5 5.5 92.5 10.5s20.833 14.667 29.5 29s18.667 51.166 30 110.499l34 179c11.333 59.333 17 96.666 17 111.999c0 38 -20.833 128.167 -62.5 270.5s-78.5 245.5 -110.5 309.5s-62.667 105.167 -92 123.5
s-60.666 27.5 -93.999 27.5c-20 0 -41 -5.66699 -63 -17l-9 9v45l8 14c36 26 68.667 51.667 98 77c45.333 40 70 61 74 63c28.667 4 48.667 6 60 6c32.667 0 65.167 -7.16699 97.5 -21.5s65 -45.166 98 -92.499s64.5 -119.333 94.5 -216s56.333 -201.667 79 -315
c19.333 -93.333 31 -148.333 35 -165c34.667 82.667 63.5 147.5 86.5 194.5s57.5 108.833 103.5 185.5s94.333 146.5 145 209.5s92.167 107.5 124.5 133.5s60.5 43.5 84.5 52.5s49 13.833 75 14.5l-12 -186c-38.667 -7.33301 -74.334 -21.333 -107.001 -42
c-42.667 -27.333 -90.834 -72.5 -144.501 -135.5s-106.334 -140.167 -158.001 -231.5s-89.667 -168.166 -114 -230.499s-45.5 -147 -63.5 -254s-27 -175.833 -27 -206.5c0 -22 7.33301 -37.333 22 -46s34.334 -13.667 59.001 -15l107 -5l7 -8l-6 -50l-9 -9
c-77.333 4.66699 -187 7 -329 7c-104 0 -208.667 -2.33301 -314 -7l-7 8l5 50zM582.001 -65z" />
    <glyph glyph-name="Z" unicode="Z" horiz-adv-x="1366" 
d="M676 100c208.667 0 361.668 11.666 459.001 34.999c7.33301 12.667 14.5 26.334 21.5 41.001s14.167 30.5 21.5 47.5s14.333 34.833 21 53.5s16 47.334 28 86.001l10 10h55l11 -11c-31.333 -118.667 -58 -239.334 -80 -362.001l-11 -8c-18.667 -1.33301 -39 -2 -61 -2
c-13.333 0 -38 0.666992 -74 2l-162 6c-28.667 1.33301 -104.334 2 -227.001 2h-369c-96.667 -0 -199.667 -2.66699 -309 -8l-8 10l10 55c12.667 9.33301 67.334 74.333 164.001 195l256 317l578 731h-258c-100.667 0 -173.167 -1.33301 -217.5 -4
s-85.666 -6.5 -123.999 -11.5s-59.833 -9.5 -64.5 -13.5s-14.834 -25.667 -30.501 -65s-30.167 -85.666 -43.5 -138.999l-12 -10h-55l-8 8c32.667 179.333 51 290.666 55 333.999l12 14c209.333 -5.33301 428 -8 656 -8c77.333 0 230.666 2 459.999 6l9 -8l-9 -55l-295 -357
l-698 -889z" />
    <glyph glyph-name="bracketleft" unicode="[" horiz-adv-x="682" 
d="M784 1411c-33.333 0 -89.001 -2.33301 -167.001 -7c-19.333 -1.33301 -33.166 -4.33301 -41.499 -9s-14.833 -17.334 -19.5 -38.001l-29 -150c-22.667 -119.333 -43.667 -241.666 -63 -366.999l-99 -695c-15.333 -112.667 -23 -191.667 -23 -237c0 -24.667 11 -40 33 -46
s86.667 -11.333 194 -16l6 -10l-8 -51l-10 -8c-40.667 4 -133.334 6 -278.001 6c-86 0 -146.333 -2 -181 -6l-12 12c22.667 94 63 327.667 121 701s103 699.333 135 978l16 13c74 -4 143.667 -6 209 -6c76.667 0 153.334 2.66699 230.001 8l6 -10l-8 -56z" />
    <glyph glyph-name="backslash" unicode="\" horiz-adv-x="1241" 
d="M956 -56l-6 -9h-121l-11 9l-524 1555l7 9h120l11 -9z" />
    <glyph glyph-name="bracketright" unicode="]" horiz-adv-x="682" 
d="M262 373l109 739.002c17.333 129.333 24.666 208.666 21.999 237.999c0 25.333 -14.167 41.833 -42.5 49.5s-90.5 11.5 -186.5 11.5l-6 10l8 52l12 10c36.667 -4 129 -6 277 -6c82 0 142 1.33301 180 4l12 -11c-16.667 -65.333 -54.667 -306.833 -114 -724.5
s-103 -737.5 -131 -959.5l-14 -14c-83.333 7.33301 -156.666 11 -219.999 11c-62 0 -139 -2 -231 -6l-7 10l9 53l8 6c12 0 47.333 1.5 106 4.5s92.667 6.83301 102 11.5s17.5 18.167 24.5 40.5s34.5 179.166 82.5 470.499z" />
    <glyph glyph-name="asciicircum" unicode="^" horiz-adv-x="1024" 
d="M993 661h-199l-282 551l-282 -551h-199l387 758h188z" />
    <glyph glyph-name="underscore" unicode="_" horiz-adv-x="1022" 
d="M0 -256v103h1022v-103h-1022z" />
    <glyph glyph-name="grave" unicode="`" horiz-adv-x="682" 
d="M682 1119l-57 -28l-123 118l-148 134l-154 131l10 23l12 5l222 -27l13 -10c41.333 -66.667 115 -177.667 221 -333z" />
    <glyph glyph-name="a" unicode="a" 
d="M1042 213l21.999 -38.9961l-4 -13c-120.667 -88.667 -203.5 -145.334 -248.5 -170.001s-82.5 -37 -112.5 -37c-21.333 0 -38.166 9 -50.499 27s-18.5 40.667 -18.5 68c0 28 5.33301 68.667 16 122s33.667 150.333 69 291c-112 -192 -212.667 -324.833 -302 -398.5
s-162.333 -110.5 -219 -110.5c-30.667 0 -57.167 13.667 -79.5 41s-33.5 76.666 -33.5 147.999c0 62.667 9.33301 135.667 28 219s45 167.666 79 252.999c17.333 42.667 37.833 77.167 61.5 103.5s74.834 68.166 153.501 125.499s134.5 92 167.5 104s70.167 18 111.5 18
c29.333 0 64 -4.5 104 -13.5s76.667 -22.167 110 -39.5l92 54l33 -24c-16.667 -39.333 -37 -112 -61 -218l-74 -338c-26 -120 -39 -193.333 -39 -220c0 -26 8.66699 -39 26 -39c21.333 0 73.666 28.667 156.999 86h12zM760.999 810.004c-59.333 30 -114 45.001 -164 45.001
c-52 0 -94 -20.667 -126 -62s-66.667 -133.333 -104 -276s-56 -248.334 -56 -317.001c0 -50 13.333 -75 40 -75c28 0 78 42 150 126s131.167 177 177.5 279s73.833 195.333 82.5 280zM430.999 -64.9951z" />
    <glyph glyph-name="b" unicode="b" horiz-adv-x="1100" 
d="M543 1495l25.001 -22.002c-70.667 -297.333 -132 -575.666 -184 -834.999c80.667 118 165.667 203.5 255 256.5s170.666 79.5 243.999 79.5c52.667 0 89.667 -24.167 111 -72.5s32 -108.166 32 -179.499c0 -110.667 -22.833 -225.834 -68.5 -345.501
s-130.167 -219.5 -253.5 -299.5s-237.333 -120 -342 -120c-53.333 0 -100 8.66699 -140 26s-69 43.833 -87 79.5s-27 74.834 -27 117.501c0 33.333 3.16699 71.833 9.5 115.5s21.833 132.167 46.5 265.5c83.333 457.333 125 699.666 125 726.999
c0 16 -4.33301 28.167 -13 36.5s-24 12.833 -46 13.5s-56 1.33398 -102 2.00098l-9 9l7 43l10 9c145.333 18 281 49.333 407 94zM331.001 233.998c0 -62 13.833 -107.334 41.5 -136.001s61.5 -43 101.5 -43c34.667 0 70.334 13.5 107.001 40.5s70.5 70.333 101.5 130
s56.833 131.5 77.5 215.5s31 157.667 31 221c0 56.667 -7.66699 98.834 -23 126.501s-36 41.5 -62 41.5c-21.333 0 -50.333 -10.333 -87 -31s-74.334 -52.5 -113.001 -95.5s-70.167 -89.167 -94.5 -138.5s-43.833 -103.833 -58.5 -163.5s-22 -115.5 -22 -167.5z" />
    <glyph glyph-name="c" unicode="c" horiz-adv-x="909" 
d="M810 229l22.9961 -41.999l-3 -12c-114 -82 -207.667 -139.333 -281 -172s-142.666 -49 -207.999 -49c-52 0 -99.333 12.5 -142 37.5s-73.167 59.5 -91.5 103.5s-27.5 90.667 -27.5 140c0 60 6.83301 123.667 20.5 191s31 125.833 52 175.5s41.333 86.834 61 111.501
s42.667 46.667 69 66s73.166 49.666 140.499 90.999c48.667 31.333 82 51.666 100 60.999s41.333 17.5 70 24.5s59.334 10.5 92.001 10.5c64 0 134.667 -16.333 212 -49l3 -11c-10 -24 -22.167 -66.167 -36.5 -126.5s-23.833 -109.166 -28.5 -146.499l-11 -9h-51l-7 9
c5.33301 36 8 69 8 99c0 6 -0.333008 16 -1 30c-57.333 50 -118.666 75 -183.999 75c-47.333 0 -84.666 -8.83301 -111.999 -26.5s-50.166 -43.834 -68.499 -78.501s-38.666 -98.5 -60.999 -191.5s-33.5 -175.833 -33.5 -248.5c0 -60 13.667 -108.333 41 -145
s65 -55 113 -55c39.333 0 83.166 8.83301 131.499 26.5s114.833 54.5 199.5 110.5h11z" />
    <glyph glyph-name="d" unicode="d" 
d="M694 1340l-7.99902 9.00098l6 43l10 9c144 18 279.667 49.333 407 94l25 -22l-72 -312l-114 -556c-41.333 -206 -65.333 -334.667 -72 -386c-3.33301 -26 -5 -45 -5 -57c0 -22.667 7 -34 21 -34c16.667 0 63.667 28.333 141 85l12 -1l21 -39l-3 -13
c-124 -94 -205.167 -150.833 -243.5 -170.5s-70.5 -29.5 -96.5 -29.5c-23.333 0 -41.5 9.66699 -54.5 29s-19.5 41.666 -19.5 66.999c0 37.333 12.667 105.666 38 204.999l50 212c-76 -145.333 -166.667 -267.666 -272 -366.999s-191 -149 -257 -149
c-39.333 0 -70.333 18 -93 54s-34 85 -34 147c0 82.667 10.667 169 32 259s46.5 164.667 75.5 224s54 98.666 75 117.999s66.667 52 137 98s123.166 75.5 158.499 88.5s73 19.5 113 19.5c37.333 0 83 -7 137 -21l32 211c9.33301 62 14 105.667 14 131c0 18 -4.5 31 -13.5 39
s-23.833 12.333 -44.5 13s-55 1.33398 -103 2.00098zM784.001 824.001c-48.667 23.333 -106.004 35.001 -172.004 35.001c-51.333 0 -89.166 -8.83301 -113.499 -26.5s-51.666 -67 -81.999 -148s-54.833 -166.167 -73.5 -255.5s-28 -166.666 -28 -231.999
c0 -47.333 12.333 -71 37 -71c22.667 0 51.334 13.333 86.001 40s77.834 74.167 129.501 142.5s94.5 140.666 128.5 216.999s57.333 146.166 70 209.499z" />
    <glyph glyph-name="e" unicode="e" horiz-adv-x="909" 
d="M775 228l22.9951 -41l-3 -12c-117.333 -83.333 -212.166 -140.5 -284.499 -171.5s-136.166 -46.5 -191.499 -46.5c-48.667 0 -94.334 10.333 -137.001 31s-73.167 50.5 -91.5 89.5s-27.5 80.167 -27.5 123.5c0 72 13.833 164.333 41.5 277
s62.834 196.334 105.501 251.001s111.834 109.334 207.501 164.001s177.834 82 246.501 82c58 0 105.333 -14.833 142 -44.5s55 -72.167 55 -127.5c0 -68 -20.333 -129.5 -61 -184.5s-108.167 -101.333 -202.5 -139s-191.166 -64.834 -290.499 -81.501
c-7.33301 -48.667 -11 -93.334 -11 -134.001c0 -65.333 15.5 -109.833 46.5 -133.5s65.5 -35.5 103.5 -35.5c27.333 0 58.666 5.16699 93.999 15.5s64.833 22 88.5 35s68.834 40.833 135.501 83.5zM314.995 453c138.667 30.667 232 78.167 280 142.5s72 124.5 72 180.5
c0 32 -9.33301 56.833 -28 74.5s-41.667 26.5 -69 26.5c-54.667 0 -102 -28.833 -142 -86.5s-77.667 -170.167 -113 -337.5zM316.995 -65z" />
    <glyph glyph-name="f" unicode="f" horiz-adv-x="682" 
d="M101 840l7.00293 36.0059l11 11c15.333 5.33301 45.666 14.666 90.999 27.999s80.333 25.666 105 36.999c2 4.66699 6.33301 23 13 55c11.333 49.333 21.333 84.833 30 106.5s23.667 45.5 45 71.5s60.333 63 117 111s109.167 89.167 157.5 123.5
s84.666 56.166 108.999 65.499s51.166 14 80.499 14c31.333 0 61.333 -5.66699 90 -17c-26 -88.667 -45 -175 -57 -259l-30 -7c-51.333 78.667 -102.666 118 -153.999 118c-18.667 0 -36.167 -5.83301 -52.5 -17.5s-29 -27.334 -38 -47.001s-21.833 -63.834 -38.5 -132.501
s-30.667 -135.667 -42 -201h23c13.333 0 50.5 1.66699 111.5 5s100.833 7 119.5 11l10 -16c-14 -38 -23.667 -69.667 -29 -95l-11 -10c-23.333 1.33301 -69.333 2 -138 2c-55.333 0 -91 -0.666992 -107 -2l-78 -347c-32 -142.667 -63.333 -268.667 -94 -378
c-40.667 -146.667 -80.5 -257.834 -119.5 -333.501s-88.5 -143.667 -148.5 -204s-114 -101.833 -162 -124.5c-30 -14 -58.667 -21 -86 -21c-24 0 -49.333 6 -76 18c32 82.667 54 156.667 66 222l32 6c26 -60.667 59.333 -91 100 -91c14 0 27.5 3.5 40.5 10.5
s25.167 18.5 36.5 34.5s25.5 57 42.5 123s37.5 162.333 61.5 289l74 387l78 409c-38 1.33301 -68.333 2 -91 2c-34.667 0 -65.334 -0.666992 -92.001 -2z" />
    <glyph glyph-name="g" unicode="g" horiz-adv-x="1024" 
d="M291 23c-36 32 -53.9951 65.6699 -53.9951 101.003c0 8 1.33301 16.5 4 25.5s5 14.667 7 17s7.33301 6.16602 16 11.499c88.667 54 143.334 89.667 164.001 107l-38 -1c-77.333 0 -143 20.333 -197 61s-81 105.667 -81 195c0 44.667 6.66699 87.5 20 128.5
s31.333 77.5 54 109.5s45.667 56.5 69 73.5s59.166 36 107.499 57s91.166 37.5 128.499 49.5s69.666 18 96.999 18c22 0 43.667 -1.5 65 -4.5s36.5 -5.83301 45.5 -8.5s25.5 -9 49.5 -19l30 -11c2 -1.33301 22.167 -3 60.5 -5s67.166 -3 86.499 -3
c17.333 0 46.666 1.33301 87.999 4c29.333 2 48.333 3 57 3l11 -16l-23 -105c-12.667 2.66699 -38.334 5 -77.001 7s-60.667 3 -66 3c-6.66699 0 -18 -0.666992 -34 -2c15.333 -34.667 23 -73.334 23 -116.001c0 -46.667 -8.5 -93 -25.5 -139s-36.833 -83.833 -59.5 -113.5
s-50 -53.667 -82 -72s-75.667 -38.166 -131 -59.499c-37.333 -14.667 -65 -26.834 -83 -36.501s-32.5 -21.167 -43.5 -34.5s-16.5 -25 -16.5 -35c0 -13.333 6 -28 18 -44s52 -47.333 120 -94c96.667 -67.333 161.167 -120.5 193.5 -159.5s48.5 -85.833 48.5 -140.5
c0 -104.667 -50.667 -188.667 -152 -252s-223.666 -95 -366.999 -95c-86.667 0 -163.334 10.833 -230.001 32.5s-116 53.167 -148 94.5s-48 85.666 -48 132.999c0 58 25.333 114.833 76 170.5s135.667 103.5 255 143.5zM324.005 543.003
c0 -68 14.167 -116.332 42.5 -144.999s64.5 -43 108.5 -43c46 0 84.333 16.167 115 48.5s54 76.666 70 132.999s24 111.5 24 165.5c0 67.333 -14.667 114.666 -44 141.999s-65 41 -107 41c-66.667 0 -118.167 -35.167 -154.5 -105.5s-54.5 -149.166 -54.5 -236.499z
M335.005 -15.9961l-88.999 -43.9971c-29.333 -15.333 -53.333 -30 -72 -44s-35.334 -30.5 -50.001 -49.5s-25.667 -39.5 -33 -61.5s-11 -44.667 -11 -68c0 -45.333 12 -83.333 36 -114s58 -54.834 102 -72.501s92.667 -26.5 146 -26.5c82 0 147 19.167 195 57.5
s72 84.5 72 138.5c0 31.333 -12 61.666 -36 90.999s-110.667 93.666 -260 192.999z" />
    <glyph glyph-name="h" unicode="h" 
d="M545 1495l25 -22.0029c-96.667 -410 -168.667 -730 -216 -960c91.333 144.667 191.833 258.167 301.5 340.5s198.834 123.5 267.501 123.5c55.333 0 83 -29 83 -87c0 -32 -4.5 -68.167 -13.5 -108.5s-34.833 -137.833 -77.5 -292.5
c-46.667 -169.333 -70 -274.333 -70 -315c0 -29.333 9.33301 -44 28 -44c12.667 0 28 5.33301 46 16s49.333 32.334 94 65.001l12 -1l21 -35l-3 -14c-113.333 -85.333 -195 -140.666 -245 -165.999s-90 -38 -120 -38c-19.333 0 -36.166 8 -50.499 24s-21.5 42.333 -21.5 79
c0 25.333 2.83301 52.833 8.5 82.5s21.167 91.5 46.5 185.5c64.667 241.333 97 378.666 97 411.999c0 30 -12.667 45 -38 45c-20 0 -45.667 -9.66699 -77 -29c-50 -31.333 -100.667 -80.666 -152 -147.999s-94.666 -142 -129.999 -224c-22.667 -54 -46.667 -130 -72 -228
c-16 -63.333 -24 -114 -24 -152c-20.667 0 -55.167 -5 -103.5 -15s-84.5 -18.333 -108.5 -25l-20 19c44 145.333 89.167 339.666 135.5 582.999s79.166 428 98.499 554l17 105c5.33301 30 8 51 8 63c0 15.333 -4.33301 27.333 -13 36s-24.334 13.334 -47.001 14.001
s-56.334 1.33398 -101.001 2.00098l-9 9l7 43l9 9c144 18 279.667 49.333 407 94z" />
    <glyph glyph-name="i" unicode="i" horiz-adv-x="682" 
d="M393 1285c0 41.333 13.001 76.668 39.001 106.001s59.333 44 100 44c34.667 0 62 -10.5 82 -31.5s30 -48.167 30 -81.5c0 -40.667 -12 -77.5 -36 -110.5s-57.667 -49.5 -101 -49.5c-40.667 0 -69.834 11.667 -87.501 35s-26.5 52.666 -26.5 87.999zM79.001 679.002
l-20 35.001l2 13c117.333 91.333 208.833 156 274.5 194s116.834 57 153.501 57c16.667 0 31 -7.16699 43 -21.5s18 -32.5 18 -54.5c0 -29.333 -5.16699 -66.333 -15.5 -111s-32.166 -129.334 -65.499 -254.001c-58 -214.667 -87 -339 -87 -373
c0 -9.33301 2.83301 -17.5 8.5 -24.5s12.167 -10.5 19.5 -10.5c20 0 73.333 31 160 93l12 -1l22 -40l-4 -13l-167 -114.5c-64.667 -43 -110.834 -69.833 -138.501 -80.5s-51.834 -16 -72.501 -16c-26 0 -45.333 9.66699 -58 29s-19 44.333 -19 75s3.83301 65.5 11.5 104.5
s24.167 106.5 49.5 202.5c56 214 84 340 84 378c0 18.667 -7.66699 28 -23 28c-25.333 0 -83.333 -32 -174 -96zM215.001 -64.9971z" />
    <glyph glyph-name="j" unicode="j" horiz-adv-x="682" 
d="M423 1285c0 42 13.167 77.499 39.5 106.499s59.833 43.5 100.5 43.5c34.667 0 61.834 -10.333 81.501 -31s29.5 -48 29.5 -82c0 -43.333 -12.333 -80.833 -37 -112.5s-58 -47.5 -100 -47.5c-38.667 0 -67.334 11.333 -86.001 34s-28 52.334 -28 89.001zM-120 -571.001
c11.333 40 18.332 95 20.999 165l28 6c22.667 -32 41.334 -51.5 56.001 -58.5s28.334 -10.5 41.001 -10.5c12 0 22.667 3.66699 32 11c14.667 12 27 34 37 66c17.333 56.667 53.333 219 108 487l87 445c20.667 108 31 175.667 31 203c0 21.333 -7.33301 32 -22 32
c-25.333 0 -84.333 -32.333 -177 -97l-13 1l-21 35l2 13c141.333 107.333 240.5 176 297.5 206s103.167 45 138.5 45s53 -27.667 53 -83c0 -35.333 -16 -123.333 -48 -264l-68 -296c-40 -168.667 -74.667 -304.5 -104 -407.5s-60.333 -183 -93 -240
s-78.667 -115.5 -138 -175.5c-38.667 -40 -70.834 -65.667 -96.501 -77s-53.834 -17 -84.501 -17c-23.333 0 -45.666 3.66699 -66.999 11z" />
    <glyph glyph-name="k" unicode="k" 
d="M193 1340l-9.00391 8.99707l7 43l9 9c145.333 18 281 49.333 407 94l25 -22c-33.333 -133.333 -107 -472 -221 -1016c2.66699 2.66699 28.334 33.667 77.001 93c62.667 76.667 118.167 141 166.5 193s97.166 96.833 146.499 134.5s92.666 63.5 129.999 77.5
s76.333 21 117 21c18 0 36.333 -2 55 -6l4 -12c-20 -67.333 -32.333 -118 -37 -152l-11 -8c-39.333 12.667 -69.666 19 -90.999 19c-43.333 0 -91.666 -12.667 -144.999 -38s-104.666 -66.666 -153.999 -123.999l69.5 -193.5c39 -107.667 70.833 -186.167 95.5 -235.5
s42.834 -78.5 54.501 -87.5s22.5 -13.5 32.5 -13.5c25.333 0 73 24 143 72l11 -1l22 -39l-3 -14c-26.667 -16.667 -53.334 -34.334 -80.001 -53.001c-127.333 -88.667 -212.666 -133 -255.999 -133c-12 0 -23 2.66699 -33 8s-22.167 18.166 -36.5 38.499
s-29.666 51.333 -45.999 93l-74 196c-33 89 -54.833 150.167 -65.5 183.5c-37.333 -38.667 -63.5 -69.167 -78.5 -91.5s-25.833 -42.666 -32.5 -60.999s-15.667 -55.5 -27 -111.5s-19 -97.167 -23 -123.5s-6 -53.166 -6 -80.499c-67.333 -3.33301 -143 -16.666 -227 -39.999
l-17 25c56 195.333 113.667 452.333 173 771s89 493.334 89 524.001c0 16 -4.5 28 -13.5 36s-22.833 12.5 -41.5 13.5s-54 1.83301 -106 2.5z" />
    <glyph glyph-name="l" unicode="l" horiz-adv-x="682" 
d="M576 221l23 -39.001l-4 -13c-148 -104.667 -241.667 -166.167 -281 -184.5s-71.666 -27.5 -96.999 -27.5c-28.667 0 -49 11.5 -61 34.5s-18 49.5 -18 79.5c0 60.667 20 182.334 60 365.001l139 635c8 34.667 16.167 76.5 24.5 125.5s12.5 79.5 12.5 91.5
c0 14.667 -4.16699 26.5 -12.5 35.5s-24 13.833 -47 14.5s-56.833 1.33398 -101.5 2.00098l-8 9l6 43l10 9c145.333 18 281 49.333 407 94l25 -22c-56.667 -236 -112.334 -484.667 -167.001 -746l-96 -453c-8.66699 -40.667 -13 -73.334 -13 -98.001c0 -28.667 9 -43 27 -43
c26 0 79.667 29.667 161 89z" />
    <glyph glyph-name="m" unicode="m" horiz-adv-x="1706" 
d="M105 -38l-19.999 28.9932c0.666992 2.66699 8.66699 28.334 24 77.001c32.667 104.667 64.834 230 96.501 376s47.5 243.667 47.5 293c0 13.333 -3 24.166 -9 32.499s-13 12.5 -21 12.5c-7.33301 0 -17.333 -4.16699 -30 -12.5s-50.334 -35.833 -113.001 -82.5l-14 1
l-20 35l1 14c48 40.667 104.167 85.334 168.5 134.001s111.666 79.334 141.999 92.001s55.5 19 75.5 19c17.333 0 30.833 -6.33301 40.5 -19s14.5 -27.667 14.5 -45c0 -20.667 -4.66699 -54 -14 -100s-36.666 -168.333 -81.999 -367
c87.333 162.667 185.666 291.834 294.999 387.501s198 143.5 266 143.5c20.667 0 37.667 -7.5 51 -22.5s20 -34.5 20 -58.5c0 -19.333 -3 -46.666 -9 -81.999s-17.333 -86.333 -34 -153l-55 -215c84.667 168.667 185 298.5 301 389.5s211 136.5 285 136.5
c24 0 42 -9.33301 54 -28s18 -42 18 -70c0 -47.333 -12.333 -118 -37 -212c-76.667 -286 -115 -453.667 -115 -503c0 -22.667 7.66699 -34 23 -34c18 0 69 30.667 153 92l12 -1l22 -39l-3 -13c-111.333 -81.333 -193.333 -137 -246 -167s-95.667 -45 -129 -45
c-22.667 0 -40.834 8.66699 -54.501 26s-20.5 38.333 -20.5 63c0 30 5.83301 71.667 17.5 125s32.5 137.333 62.5 252c27.333 106 44.833 178.167 52.5 216.5s11.5 67.5 11.5 87.5c0 31.333 -10.667 47 -32 47c-16 0 -39.667 -9.66699 -71 -29
s-70.333 -55.166 -117 -107.499s-88.167 -112.666 -124.5 -180.999s-67.833 -155 -94.5 -260s-40 -173.5 -40 -205.5c-48 0 -118.667 -9.66699 -212 -29l-24 29c38 96 76.833 229.167 116.5 399.5s59.5 284.833 59.5 343.5c0 14 -3.16699 24.667 -9.5 32
s-14.166 11 -23.499 11c-17.333 0 -42.5 -10.667 -75.5 -32s-73.333 -63.333 -121 -126s-88.667 -127.167 -123 -193.5s-62 -144.666 -83 -234.999s-32.5 -153.5 -34.5 -189.5c-43.333 0 -116.333 -13 -219 -39z" />
    <glyph glyph-name="n" unicode="n" 
d="M88 -37l-26 24.999c20.667 52 47.334 138.833 80.001 260.5s56.5 227.5 71.5 317.5s22.5 147.333 22.5 172c0 22.667 -7.66699 34 -23 34c-20.667 0 -68.667 -28 -144 -84l-14 1l-20 35l1 13c34.667 29.333 75 61.833 121 97.5s87.667 65.334 125 89.001
s65.333 38.667 84 45s35.667 9.5 51 9.5c36.667 0 55 -21.667 55 -65c0 -31.333 -6 -76.833 -18 -136.5s-37 -161.167 -75 -304.5c75.333 139.333 170.166 258.333 284.499 357s207.166 148 278.499 148c56.667 0 85 -31.667 85 -95c0 -34.667 -7.66699 -84.167 -23 -148.5
s-40 -158.833 -74 -283.5c-22.667 -82.667 -38.167 -147.167 -46.5 -193.5s-12.5 -76.166 -12.5 -89.499c0 -24.667 8 -37 24 -37c26 0 75 27.333 147 82l12 -1l22 -39l-3 -13c-114 -86 -195.667 -141.167 -245 -165.5s-91.666 -36.5 -126.999 -36.5
c-28 0 -46.833 10.833 -56.5 32.5s-14.5 44.167 -14.5 67.5c0 54 23.333 164 70 330c51.333 180 77 295 77 345c0 27.333 -13 41 -39 41c-12 0 -28.5 -5.33301 -49.5 -16s-51.667 -36.834 -92 -78.501s-77.333 -88.834 -111 -141.501s-63 -109.667 -88 -171
s-45.833 -127.166 -62.5 -197.499s-27 -126.166 -31 -167.499c-84.667 -6.66699 -156.667 -19.334 -216 -38.001z" />
    <glyph glyph-name="o" unicode="o" 
d="M101 280c0 62 10.499 139.833 31.499 233.5s57 172 108 235s119.833 117 206.5 162s176 67.5 268 67.5c94.667 0 171.667 -27 231 -81s89 -135 89 -243c0 -98 -18.333 -198.167 -55 -300.5s-85.5 -177.166 -146.5 -224.499s-125 -87.833 -192 -121.5
s-143.167 -50.5 -228.5 -50.5c-81.333 0 -144.666 15.667 -189.999 47s-77 71.666 -95 120.999s-27 101 -27 155zM336.999 288c0 -81.333 15.334 -140.335 46.001 -177.002s74.667 -55 132 -55c39.333 0 74.5 11 105.5 33s59.667 61.5 86 118.5s47.666 127.833 63.999 212.5
s24.5 161.667 24.5 231c0 87.333 -17 148.333 -51 183s-75.333 52 -124 52c-51.333 0 -96.5 -19.667 -135.5 -59s-73.333 -116.166 -103 -230.499s-44.5 -217.166 -44.5 -308.499zM450 -65.002z" />
    <glyph glyph-name="p" unicode="p" 
d="M54 723l0.998047 14.002c52 44 106.333 87.333 163 130s100.667 72.667 132 90s59 26 83 26c42 0 63 -22.333 63 -67c0 -24 -6.16699 -66 -18.5 -126s-31.833 -142 -58.5 -246c55.333 86.667 105.166 155.5 149.499 206.5s104.333 101.667 180 152
s143.167 75.5 202.5 75.5c24.667 0 45.5 -8.16699 62.5 -24.5s30.833 -46.333 41.5 -90s16 -87.5 16 -131.5c0 -82 -16.333 -173.333 -49 -274s-66 -174.334 -100 -221.001c-29.333 -41.333 -78.666 -85.833 -147.999 -133.5s-127.166 -82.5 -173.499 -104.5
s-100.833 -33 -163.5 -33c-43.333 0 -82 4.33301 -116 13l-54.5 -239c-21 -95.333 -33.167 -153.666 -36.5 -174.999s-6 -52.333 -8 -93c-16 -0.666992 -55.667 -6.83398 -119 -18.501s-99.666 -19.834 -108.999 -24.501l-21 16l91 344
c31.333 127.333 69.833 298.5 115.5 513.5s72.167 348.167 79.5 399.5c2 14 3 26 3 36c0 12.667 -3 23.167 -9 31.5s-13 12.5 -21 12.5s-20.333 -5.5 -37 -16.5s-52 -37.167 -106 -78.5l-14 1zM344.998 121.002c64.667 -36 129.002 -54.0039 193.002 -54.0039
c30.667 0 58.167 6.83301 82.5 20.5s48.333 39.5 72 77.5s46 89.333 67 154s38.667 127.334 53 188.001s21.5 123 21.5 187c0 42.667 -3.83301 72.834 -11.5 90.501s-20.834 26.5 -39.501 26.5s-45.834 -9.33301 -81.501 -28s-75 -52.167 -118 -100.5
s-81.167 -103.666 -114.5 -165.999s-55.833 -114.166 -67.5 -155.499s-30.5 -121.333 -56.5 -240z" />
    <glyph glyph-name="q" unicode="q" horiz-adv-x="1100" 
d="M466 -571l-18.9951 38c22 18 35.167 29.5 39.5 34.5s9.66602 15.667 15.999 32s13.166 41.833 20.499 76.5c3.33301 19.333 10.666 52.666 21.999 99.999l67 298l53 239l35 152c-94 -138.667 -190.333 -245.834 -289 -321.501s-178.667 -113.5 -240 -113.5
c-34.667 0 -60.334 17.333 -77.001 52s-25 76 -25 124c0 52.667 7.5 117 22.5 193s37.167 152.333 66.5 229s56.5 128.334 81.5 155.001s74.167 67 147.5 121s127.666 90.667 162.999 110s79.333 29 132 29c80.667 0 158.667 -18.667 234 -56l96 58l35 -21
c-8.66699 -19.333 -16 -37.666 -22 -54.999c-10.667 -32.667 -28.5 -103.5 -53.5 -212.5s-55.5 -252.5 -91.5 -430.5l-92 -432c-29.333 -140 -47.333 -232.667 -54 -278c-2 -16.667 -3 -32.667 -3 -48c0 -4 1 -14 3 -30c-48 0 -137.333 -14.333 -268 -43zM779.005 822
c-23.333 15.333 -50.998 26.6641 -82.998 33.9971s-59.333 11 -82 11c-40.667 0 -76 -8.16699 -106 -24.5s-61.333 -66.833 -94 -151.5s-60.334 -178.667 -83.001 -282s-34 -172.666 -34 -207.999c0 -48 15 -72 45 -72c20 0 49.833 14.167 89.5 42.5
s90.167 82.333 151.5 162s105.166 153.834 131.499 222.501s47.833 157.334 64.5 266.001z" />
    <glyph glyph-name="r" unicode="r" horiz-adv-x="797" 
d="M119 -38l-21.001 25.0039c52.667 178 90.834 332.167 114.501 462.5s35.5 222.166 35.5 275.499c0 34 -7.66699 51 -23 51c-18.667 0 -64 -27 -136 -81l-15 1l-19 33l1 14c116 96 200 159.333 252 190s90.333 46 115 46c19.333 0 34 -7.5 44 -22.5s15 -32.833 15 -53.5
c0 -22.667 -2.66699 -47.334 -8 -74.001s-30.666 -136.334 -75.999 -329.001h14c31.333 73.333 64.666 142.666 99.999 207.999s70 118.833 104 160.5s63.667 69.167 89 82.5s52.333 20 81 20c18 0 35.333 -2.33301 52 -7l7 -10c-10 -30.667 -19.333 -75 -28 -133
s-13 -104 -13 -138l-23 -15c-31.333 28.667 -66.333 43 -105 43c-32.667 0 -63.5 -11 -92.5 -33s-61.167 -67 -96.5 -135s-66 -149.167 -92 -243.5s-45 -192.5 -57 -294.5c-34.667 -6 -72.5 -11.833 -113.5 -17.5s-76.167 -14.167 -105.5 -25.5z" />
    <glyph glyph-name="s" unicode="s" horiz-adv-x="909" 
d="M103 295l45.001 -0.00195312l9 -9l3 -89c26 -32 62.167 -59.833 108.5 -83.5s95.166 -35.5 146.499 -35.5c36 0 68.833 5.5 98.5 16.5s51.834 29.833 66.501 56.5s22 54 22 82c0 25.333 -6.16699 47.333 -18.5 66s-28.833 33.5 -49.5 44.5s-54 21.5 -100 31.5
c-67.333 15.333 -114.833 27.166 -142.5 35.499s-52.334 21.166 -74.001 38.499s-39.667 41.333 -54 72s-21.5 64 -21.5 100s6.83301 70.5 20.5 103.5s33 61.333 58 85s65.5 52.834 121.5 87.501s99 56.834 129 66.501s66.667 14.5 110 14.5c90 0 173 -21.333 249 -64
c-13.333 -64 -25 -142 -35 -234l-9 -8h-44l-9 8l-11 92c-30 29.333 -65.833 52 -107.5 68s-81.834 24 -120.501 24c-46.667 0 -85.667 -13.5 -117 -40.5s-47 -61.833 -47 -104.5c0 -46 15.667 -79.167 47 -99.5s92 -39.166 182 -56.499
c62.667 -12 109.167 -25.167 139.5 -39.5s55.5 -38.166 75.5 -71.499s30 -72 30 -116c0 -46 -9.66699 -86.833 -29 -122.5s-58.666 -76.667 -117.999 -123s-111.333 -78.833 -156 -97.5s-102.667 -28 -174 -28c-36 0 -72.667 2.66699 -110 8s-90 21.333 -158 48l-4 10
c6.66699 22.667 14.5 64 23.5 124s14.167 103.667 15.5 131z" />
    <glyph glyph-name="t" unicode="t" horiz-adv-x="797" 
d="M316 831l-209.004 0.000976562l-7 10l6 35l12 12c55.333 12.667 130.333 35 225 67c1.33301 15.333 6 47.666 14 96.999c13.333 74 20 136 20 186c40 8.66699 100.333 27.667 181 57c36.667 13.333 59.334 21.333 68.001 24l23 -25
c-21.333 -65.333 -51.666 -184 -90.999 -356h103c80 0 136.333 2.66699 169 8l11 -16c-9.33301 -30.667 -17 -62.667 -23 -96l-13 -10c-49.333 4.66699 -103.333 7 -162 7h-107l-40 -191l-42 -196l-31 -152c-8 -42.667 -12.833 -70.334 -14.5 -83.001s-2.5 -24 -2.5 -34
c0 -17.333 4.5 -30.333 13.5 -39s20.167 -13 33.5 -13c12 0 25 2.83301 39 8.5s33 16 57 31s65.667 43.167 125 84.5l14 -1l20 -39l-2 -12c-153.333 -112 -254.166 -179.667 -302.499 -203s-87.166 -35 -116.499 -35c-38.667 0 -67.834 12 -87.501 36s-29.5 55.333 -29.5 94
c0 24.667 3.33301 55.334 10 92.001s25.334 124.667 56.001 264c52 240 78.667 369.333 80 388z" />
    <glyph glyph-name="u" unicode="u" 
d="M69 716l-16.002 38l2 14c94 68.667 172 120.834 234 156.501s111.667 53.5 149 53.5c43.333 0 65 -26.333 65 -79c0 -25.333 -3.83301 -57 -11.5 -95s-22.5 -99 -44.5 -183l-84 -336c-10 -46.667 -15 -79.667 -15 -99c0 -28 11.667 -42 35 -42
c14.667 0 36.334 9.5 65.001 28.5s71.334 64.833 128.001 137.5c44 56 84.333 121.5 121 196.5s68.334 163.5 95.001 265.5c14 56 23 108.667 27 158c68.667 4 141.334 17.333 218.001 40l17 -18c-40.667 -130.667 -81.834 -279.667 -123.501 -447
s-62.5 -276.333 -62.5 -327c0 -24.667 9.66699 -37 29 -37c11.333 0 23.333 3.83301 36 11.5s28.334 18.5 47.001 32.5l52 37h12l22 -39l-3 -13c-136.667 -102.667 -223.334 -163.334 -260.001 -182.001s-68.667 -28 -96 -28c-20.667 0 -36.667 7.5 -48 22.5
s-17 35.5 -17 61.5c0 40 17 125.333 51 256l39 152c-64 -124.667 -150.833 -239 -260.5 -343s-197.834 -156 -264.501 -156c-28.667 0 -52 10 -70 30s-27 49.667 -27 89c0 26 2.83301 53.667 8.5 83s20.5 89 44.5 179c57.333 214.667 86 351.334 86 410.001
c0 28 -9.66699 42 -29 42c-8 0 -17.5 -2.33301 -28.5 -7s-47.167 -26.334 -108.5 -65.001zM429.998 -65z" />
    <glyph glyph-name="v" unicode="v" 
d="M57 694l82 261.003c56.667 10 94.334 15 113.001 15c26 0 55.667 -1.66699 89 -5c81.333 -6.66699 141.666 -10 180.999 -10c60 0 102.667 9.33301 128 28l28 -39c-34.667 -38 -74.5 -95.333 -119.5 -172s-79.667 -156.834 -104 -240.501s-36.5 -162.834 -36.5 -237.501
c0 -70 12.333 -121.333 37 -154s57.334 -49 98.001 -49c58.667 0 114.667 29.5 168 88.5s97.666 140.167 132.999 243.5s53 192.333 53 267c0 79.333 -29.333 119 -88 119c-18 0 -36.667 -6 -56 -18l-14 4l-12 26l3 13c20 14.667 44 36.667 72 66s46.333 51.666 55 66.999
c16 4.66699 31 7 45 7c100 0 150 -68.667 150 -206c0 -117.333 -35.833 -243.833 -107.5 -379.5s-153.834 -241.5 -246.501 -317.5s-182.334 -114 -269.001 -114c-72 0 -131 24.667 -177 74s-69 122 -69 218c0 53.333 7.83301 107.333 23.5 162s43.334 111.667 83.001 171
s116.5 146.333 230.5 261c-28 -6 -51.167 -10.5 -69.5 -13.5s-59.166 -4.5 -122.499 -4.5l-90 2c-6.66699 0 -28.667 -1.66699 -66 -5l-65 -129l-11 -8h-42z" />
    <glyph glyph-name="w" unicode="w" horiz-adv-x="1706" 
d="M53 692c45.333 125.333 70.668 213.664 76.001 264.997c36 8 69.333 12 100 12c31.333 0 67 -1.66699 107 -5c77.333 -7.33301 134.333 -11 171 -11c59.333 0 108.333 8 147 24l29 -33c-77.333 -86 -142.833 -187.167 -196.5 -303.5s-80.5 -229.833 -80.5 -340.5
c0 -137.333 37.333 -206 112 -206c18 0 36.5 5.16699 55.5 15.5s47.167 37.5 84.5 81.5s70.333 95.833 99 155.5s51.5 119.334 68.5 179.001s34.5 133.167 52.5 220.5s27 142 27 164v12c86 14.667 158.667 32.667 218 54l26 -18c-91.333 -316 -137 -549.667 -137 -701
c0 -61.333 11.667 -104.5 35 -129.5s50.666 -37.5 81.999 -37.5c29.333 0 62.5 13.667 99.5 41s75.833 71.166 116.5 131.499s72.834 132 96.501 215s35.5 154.5 35.5 214.5c0 38 -8 68.333 -24 91s-39.667 34 -71 34c-18.667 0 -36.667 -5 -54 -15l-14 2l-15 29l3 13
c56 40.667 101 79.667 135 117c18.667 5.33301 35.334 8 50.001 8c45.333 0 81.166 -17.833 107.499 -53.5s39.5 -86.167 39.5 -151.5c0 -96 -23.5 -196.167 -70.5 -300.5s-105.667 -196.166 -176 -275.499s-138.5 -138 -204.5 -176s-126.667 -57 -182 -57
c-50 0 -94.333 18.833 -133 56.5s-58 96.834 -58 177.501c0 39.333 6 92.666 18 159.999l-52 -92c-16.667 -29.333 -37.5 -60.166 -62.5 -92.499s-53.667 -63.5 -86 -93.5s-62.5 -53.667 -90.5 -71s-53 -29.166 -75 -35.499s-44.667 -9.5 -68 -9.5
c-60 0 -110.333 24.167 -151 72.5s-61 119.5 -61 213.5c0 90 21.5 177 64.5 261s136.167 197.333 279.5 340c-53.333 -15.333 -106.333 -23 -159 -23c-6.66699 0 -20 0.666992 -40 2c-36 1.33301 -60 2 -72 2c-26 0 -52.667 -2.33301 -80 -7
c-14.667 -28.667 -25.667 -52 -33 -70c-14.667 -34 -23.334 -53.333 -26.001 -58l-12 -8h-43z" />
    <glyph glyph-name="x" unicode="x" horiz-adv-x="1024" 
d="M-16 -16c10.667 29.333 19.3369 66.6689 26.0039 112.002s10 71.833 10 79.5s-0.333008 15.167 -1 22.5l50 5l12 -64c20 -8 37.667 -12 53 -12c23.333 0 48.666 8.5 75.999 25.5s66 58.167 116 123.5s82.333 109.666 97 132.999c-20.667 124 -36.5 211.167 -47.5 261.5
s-27 83.333 -48 99s-41.5 23.5 -61.5 23.5c-25.333 0 -51.333 -8.66699 -78 -26s-46.667 -38.333 -60 -63l-12 -4l-33 19l-2 11c66.667 105.333 105.334 173.666 116.001 204.999c53.333 27.333 103.666 41 150.999 41c63.333 0 111.333 -17.167 144 -51.5
s54.667 -72.333 66 -114s22.333 -104.167 33 -187.5c96 140.667 161.167 228.334 195.5 263.001s64.833 58 91.5 70s52 18 76 18c19.333 0 42.333 -5.33301 69 -16c-23.333 -56.667 -39 -131.667 -47 -225l-43 -8l-19 57c-14 6.66699 -27 10 -39 10
c-36 0 -72 -16.167 -108 -48.5s-89.333 -99.833 -160 -202.5c20.667 -136 38.667 -230.833 54 -284.5s31 -88.834 47 -105.501s32.333 -25 49 -25c30 0 81 31 153 93l12 -1l23 -37l-2 -12c-116.667 -102 -192.834 -162.833 -228.501 -182.5s-66.834 -29.5 -93.501 -29.5
c-30.667 0 -58.334 12 -83.001 36s-42.5 56.667 -53.5 98s-25.5 120.666 -43.5 237.999c-78 -113.333 -133.5 -190.166 -166.5 -230.499s-60 -70.166 -81 -89.499s-41.333 -32.833 -61 -40.5s-40.167 -11.5 -61.5 -11.5c-13.333 0 -23.833 1.16699 -31.5 3.5
s-26.167 10.166 -55.5 23.499z" />
    <glyph glyph-name="y" unicode="y" 
d="M49 -371l125.999 80.999l30 -12c-1.33301 -14 -2 -27 -2 -39c0 -36.667 12 -68.334 36 -95.001s56.333 -40 97 -40c22.667 0 45 4.83301 67 14.5s44.167 26 66.5 49s44.166 56.333 65.499 100s44.666 106.834 69.999 189.501s47 161.667 65 237l55 222
c-90 -130.667 -172 -226 -246 -286s-131 -90 -171 -90c-26.667 0 -50 15.333 -70 46s-30 82.334 -30 155.001c0 37.333 12.667 169 38 395c5.33301 85.333 8 133.666 8 144.999c0 35.333 -2.66699 58.5 -8 69.5s-15 16.5 -29 16.5c-21.333 0 -70.333 -28 -147 -84l-15 2
l-19 33l1 16l119 92c58.667 46 107.667 79.333 147 100s72.333 31 99 31c26 0 46 -10.833 60 -32.5s21 -52.834 21 -93.501c0 -24 -5.33301 -87 -16 -189l-20 -179c-12.667 -116.667 -19 -200 -19 -250c0 -43.333 4.5 -69.5 13.5 -78.5s16.5 -13.5 22.5 -13.5
c16 0 40.667 14.667 74 44s73.833 82.333 121.5 159s88.834 168.667 123.501 276s58.334 208 71.001 302l229 50l23 -19c-4.66699 -9.33301 -20.667 -58.666 -48 -147.999s-58 -200 -92 -332c-43.333 -169.333 -80.833 -303.166 -112.5 -401.499
s-68.5 -185.833 -110.5 -262.5s-90.333 -143.667 -145 -201s-110.667 -101.5 -168 -132.5s-114.666 -46.5 -171.999 -46.5c-58 0 -107.333 14.5 -148 43.5s-61 73.833 -61 134.5v22zM956.999 -65.001z" />
    <glyph glyph-name="z" unicode="z" horiz-adv-x="1024" 
d="M54 54l689.001 725.999c-50 -25.333 -101.667 -38 -155 -38c-36 0 -92 5 -168 15c-64 8.66699 -107 13 -129 13c-13.333 0 -27.666 -1 -42.999 -3c-8 -15.333 -23 -48.666 -45 -99.999l-11 -7l-42 4l-5 9l89 282c36 12.667 71 19 105 19
c50.667 0 122.334 -12.667 215.001 -38c87.333 -24.667 159.333 -37 216 -37c32 0 58.667 5.5 80 16.5s40.666 30.833 57.999 59.5l40 -16l-28 -106l-666 -694c77.333 34 140.333 51 189 51c34 0 85.333 -6.33301 154 -19c74.667 -13.333 126.667 -20 156 -20
c10.667 0 26.667 1.66699 48 5l50 110l12 6l38 -3l7 -8c-24.667 -68 -49.334 -163.667 -74.001 -287c-32 -17.333 -71.333 -26 -118 -26c-34.667 0 -63.834 2 -87.501 6s-77.5 17 -161.5 39c-93.333 24 -169.333 36 -228 36c-66.667 0 -120 -22.667 -160 -68z" />
    <glyph glyph-name="braceleft" unicode="{" horiz-adv-x="682" 
d="M33 607l0.00292969 39.998c67.333 0 114.666 17.333 141.999 52c26 32.667 44.333 80.667 55 144l63 367c16.667 97.333 40.667 163.333 72 198c37.333 41.333 97.333 62 180 62h140v-40c-56.667 0 -102.334 -20.667 -137.001 -62c-26.667 -32.667 -45 -78 -55 -136
l-60 -354c-13.333 -77.333 -34 -133.333 -62 -168c-31.333 -39.333 -83 -67 -155 -83c90 -27.333 135 -82 135 -164c0 -27.333 -4 -64.333 -12 -111l-59 -345c-4.66699 -27.333 -7 -51.666 -7 -72.999c0 -34 5 -57.333 15 -70c19.333 -23.333 54.666 -35 105.999 -35v-40
h-142c-36.667 0 -66.667 8 -90 24c-53.333 36 -80 89.667 -80 161c0 24 3 52.667 9 86l63 347c4.66699 26 7 53 7 81c0 34.667 -9 62.334 -27 83.001c-22 24 -55.667 36 -101 36z" />
    <glyph glyph-name="bar" unicode="|" horiz-adv-x="1024" 
d="M434 0v1497h157v-1497h-157z" />
    <glyph glyph-name="braceright" unicode="}" horiz-adv-x="682" 
d="M699 652l0.000976562 -39.999c-67.333 0 -114.333 -16.833 -141 -50.5s-45.334 -82.167 -56.001 -145.5l-63 -367c-16.667 -97.333 -40.334 -163.333 -71.001 -198c-38 -41.333 -98.333 -62 -181 -62h-140v40c56.667 0 102.334 20.667 137.001 62
c26.667 32.667 45 78 55 136l60 354c13.333 77.333 34 133.333 62 168c31.333 39.333 83 67 155 83c-90 27.333 -135 82 -135 164c0 27.333 4 64.333 12 111l59 345c4.66699 27.333 7 51.666 7 72.999c0 34 -5 57.333 -15 70c-19.333 23.333 -54.666 35 -105.999 35v40h142
c36.667 0 66.667 -8 90 -24c53.333 -36 80 -89.667 80 -161c0 -24 -3 -52.667 -9 -86l-63 -347c-4.66699 -26 -7 -53 -7 -81c0 -34.667 9.33301 -62 28 -82c21.333 -24.667 54.666 -37 99.999 -37z" />
    <glyph glyph-name="asciitilde" unicode="~" horiz-adv-x="1024" 
d="M989 601c-32.667 -71.333 -70.334 -125.667 -113.001 -163c-54 -48 -106.333 -72 -157 -72c-42 0 -95 14.333 -159 43c-38 16.667 -87.667 40.334 -149 71.001c-40.667 20 -72.334 30 -95.001 30c-53.333 0 -113.666 -60.667 -180.999 -182l-101 112
c78 168.667 171 253 279 253c42 0 95 -14.333 159 -43c38 -16.667 87.667 -40.334 149 -71.001c40.667 -20 72.334 -30 95.001 -30c54 0 112 56 174 168z" />
    <glyph glyph-name="exclamdown" unicode="&#xa1;" horiz-adv-x="682" 
d="M527 861c0 -48.667 -12.668 -91.334 -38.001 -128.001s-62.333 -55 -111 -55c-38 0 -67.5 11 -88.5 33s-31.5 51.333 -31.5 88c0 46.667 13.167 88.334 39.5 125.001s63.833 55 112.5 55c32.667 0 60.334 -9.66699 83.001 -29s34 -49 34 -89zM375.999 559l26 -17.998
c-5.33301 -38.667 -15.333 -136.334 -30 -293.001l-39 -403c-10.667 -111.333 -17.667 -199 -21 -263c-112 -18 -206.333 -37.667 -283 -59l-23 19l195 632c54 173.333 85.667 284.666 95 333.999z" />
    <glyph glyph-name="cent" unicode="&#xa2;" horiz-adv-x="1024" 
d="M423 -44c-14.667 -1.33301 -26.332 -2 -34.999 -2c-54 0 -102.5 12 -145.5 36s-74 58.333 -93 103s-28.5 92 -28.5 142c0 60 6.83301 123.667 20.5 191s31 125.833 52 175.5s41.333 86.834 61 111.501s42.667 46.667 69 66s73.166 49.666 140.499 90.999
c50 32.667 83.667 53.167 101 61.5s39.666 16.166 66.999 23.499l34 159l10 9h65l8 -8l-32 -149c70 0 143.667 -16.333 221 -49l3 -11c-10 -24 -22.167 -66.167 -36.5 -126.5s-23.833 -109.166 -28.5 -146.499l-11 -9h-51l-7 9c5.33301 36 8 69 8 99c0 6 -0.333008 16 -1 30
c-36.667 30.667 -78.667 52.667 -126 66l-154 -735c36 3.33301 75.833 13.5 119.5 30.5s105.834 52.167 186.501 105.5h11l23 -42l-3 -12c-150 -108 -270.667 -175.333 -362 -202l-40 -190l-10 -9h-66l-7 9zM453.002 103l154 733.001c-28 -2 -52.167 -8 -72.5 -18
s-41.5 -29 -63.5 -57s-39.833 -64 -53.5 -108s-27.5 -101.167 -41.5 -171.5s-21 -133.5 -21 -189.5c0 -44 8.16699 -83.333 24.5 -118s40.833 -58.334 73.5 -71.001z" />
    <glyph glyph-name="sterling" unicode="&#xa3;" horiz-adv-x="1024" 
d="M94 -33l-0.000976562 158.004c4.66699 2 28.334 9.33301 71.001 22c27.333 9.33301 43.333 14.333 48 15c40.667 86.667 61 217 61 391c0 17.333 -0.666992 44.333 -2 81l-39 2c-36 0 -74 -2.66699 -114 -8l-9 10l8 80l11 9c30.667 -3.33301 52.667 -5 66 -5
c26.667 0.666992 53.334 1.66699 80.001 3c3.33301 113.333 7.33301 190.833 12 232.5s14.667 78.5 30 110.5s40.333 64.5 75 97.5s100 79.833 196 140.5c60 38 104 62.333 132 73c52 19.333 100.333 29 145 29c34 0 68.833 -6 104.5 -18s60.5 -23 74.5 -33l4 -11l-63 -253
l-10 -8l-39 10l-6 10l11 109c-37.333 38.667 -88.666 58 -153.999 58c-61.333 0 -109.833 -18.333 -145.5 -55s-61.334 -90.834 -77.001 -162.501s-29.167 -180.5 -40.5 -326.5c10 0 28 -0.666992 54 -2c49.333 -2 75.333 -3 78 -3c77.333 0 133 3 167 9l10 -10l-11 -75
l-11 -8c-52.667 4 -119.667 6 -201 6c-20.667 0 -53.667 -1.33301 -99 -4c-18 -80.667 -34.167 -144.334 -48.5 -191.001s-29.5 -86.834 -45.5 -120.501s-36.667 -69.834 -62 -108.501l-35 -56c131.333 6.66699 201.666 10 210.999 10c14.667 0 54.334 -2.33301 119.001 -7
c62.667 -4 110 -6 142 -6c24 0 47.333 3.66699 70 11c33.333 61.333 57 117.333 71 168l11 7l43 -4l7 -9c-6.66699 -25.333 -33 -137.666 -79 -336.999l-76 -31c-11.333 -0.666992 -20.666 -1 -27.999 -1c-42 0 -109 14.333 -201 43
c-94 29.333 -161.833 48.666 -203.5 57.999s-77.834 14 -108.501 14c-6 0 -14.667 -0.333008 -26 -1c-32.667 -40 -71.334 -78 -116.001 -114z" />
    <glyph glyph-name="currency" unicode="&#xa4;" horiz-adv-x="1024" 
d="M26 858l76 77l182 -197c66.667 55.333 141.334 83 224.001 83c81.333 0 156 -27.667 224 -83l181 196l76 -76l-199 -184c41.333 -61.333 62 -127 62 -197s-20.667 -135.667 -62 -197l199 -184l-76 -76l-181 196c-66.667 -55.333 -141.334 -83 -224.001 -83
c-34.667 0 -70 5 -106 15s-75.333 32.667 -118 68l-182 -196l-76 76l199 184c-40.667 60 -61 125.667 -61 197c0 37.333 4.83301 71 14.5 101s25.167 62 46.5 96zM248 477c0 -44.667 11.167 -87.332 33.5 -127.999s54 -72.834 95 -96.501s84.833 -35.5 131.5 -35.5
c71.333 0 132.5 25.5 183.5 76.5s76.5 112.167 76.5 183.5s-25.333 132.5 -76 183.5s-112 76.5 -184 76.5c-46.667 0 -90.667 -12 -132 -36s-73 -56.5 -95 -97.5s-33 -83.167 -33 -126.5z" />
    <glyph glyph-name="yen" unicode="&#xa5;" horiz-adv-x="1024" 
d="M901 463l-7.99805 -51.001l-12 -9h-277l-29 -180c-5.33301 -33.333 -8 -65.666 -8 -96.999c0 -38 27 -58.333 81 -61l107 -5l7 -8l-6 -50l-9 -9c-77.333 4.66699 -181.333 7 -312 7c-90.667 0 -188.667 -2.33301 -294 -7l-7 8l5 50l10 9
c5.33301 0.666992 20.666 1.66699 45.999 3c53.333 3.33301 84.333 7 93 11c12.667 6 22.334 15.667 29.001 29c14.667 30 28 85.333 40 166l20 134h-275l-7 9l11 51l11 9h269l8 47l-39 134h-224l-7 10l14 51l11 9h185c-28.667 96.667 -63.667 200 -105 310
c-58.667 158.667 -96 249.667 -112 273c-14 20.667 -32 31.667 -54 33l-89 5l-7 8l6 50l9 9c77.333 -4.66699 177.666 -7 300.999 -7c77.333 0 168.666 2.33301 273.999 7l7 -8l-5 -50l-10 -9c-5.33301 -0.666992 -19 -1.66699 -41 -3c-38.667 -2.66699 -64.667 -6 -78 -10
c-18 -5.33301 -27 -15.666 -27 -30.999c0 -24.667 41.333 -154.667 124 -390l74 -210l145 238l68 117c76.667 132 115.334 210 116.001 234c0.666992 31.333 -21 48 -65 50l-98 5l-7 8l6 50l9 9c77.333 -4.66699 161 -7 251 -7c53.333 0 132.666 2.33301 237.999 7l7 -8
l-5 -50l-10 -9c-5.33301 -0.666992 -19 -1.66699 -41 -3c-34.667 -2.66699 -57.334 -7.33398 -68.001 -14.001c-25.333 -16.667 -76 -80 -152 -190c-47.333 -68 -129.666 -199.333 -246.999 -394l-11 -20h186l10 -9l-11 -51l-12 -10h-214l-74 -137l-8 -44h277z" />
    <glyph glyph-name="brokenbar" unicode="&#xa6;" horiz-adv-x="1024" 
d="M434 906v592h157v-592h-157zM434 0v592h157v-592h-157z" />
    <glyph glyph-name="section" unicode="&#xa7;" 
d="M101 -181l53.998 264.003l11 9l52 -3l7 -8l-9 -164c31.333 -46.667 70.5 -83 117.5 -109s93.5 -39 139.5 -39c42 0 82.833 10 122.5 30s70.5 46.167 92.5 78.5s33 68.833 33 109.5c0 33.333 -8 63.166 -24 89.499s-38.5 50.166 -67.5 71.499s-88.833 56 -179.5 104
c-72.667 39.333 -128.5 73.833 -167.5 103.5s-68 66.167 -87 109.5s-28.5 86.333 -28.5 129c0 40 8.16699 78.333 24.5 115s37 68 62 94s61.5 57.333 109.5 94c-54.667 50 -82 105.667 -82 167c0 84.667 38.667 168.167 116 250.5s173.333 123.5 288 123.5
c56 0 114.167 -8.5 174.5 -25.5s110.833 -40.833 151.5 -71.5l3 -12l-52 -249l-10 -9l-52 3l-6 9l4 141c-83.333 76 -171.333 114 -264 114c-58 0 -104.667 -15.667 -140 -47s-53 -69 -53 -113c0 -44.667 21 -86.334 63 -125.001s126 -92.667 252 -162
c58 -32 102.167 -60.167 132.5 -84.5s55.5 -55.833 75.5 -94.5s30 -80 30 -124c0 -40 -8.66699 -80.333 -26 -121s-39.666 -75.5 -66.999 -104.5s-59.666 -56.833 -96.999 -83.5c61.333 -52 92 -116.667 92 -194c0 -67.333 -24 -133.333 -72 -198s-105 -115.5 -171 -152.5
s-140 -55.5 -222 -55.5c-133.333 0 -242.333 42.667 -327 128zM727.998 327.003c32 14.667 58.665 39.167 79.998 73.5s32 67.833 32 100.5c0 26.667 -7.16699 53.167 -21.5 79.5s-40.666 53.166 -78.999 80.499s-112.166 72 -221.499 134l-85 49
c-64 -58 -96 -118.333 -96 -181c0 -20 5 -41 15 -63s25.167 -43.833 45.5 -65.5s42.5 -40.167 66.5 -55.5s59 -35.666 105 -60.999l120 -68z" />
    <glyph glyph-name="dieresis" unicode="&#xa8;" horiz-adv-x="682" 
d="M660 1139c-30.667 0 -55.168 9.66602 -73.501 28.999s-27.5 42.333 -27.5 69c0 38 14.333 71.833 43 101.5s62.667 44.5 102 44.5c29.333 0 53.333 -9.66699 72 -29s28 -42.666 28 -69.999c0 -37.333 -14.667 -70.833 -44 -100.5s-62.666 -44.5 -99.999 -44.5z
M240.999 1139c-33.333 0 -58.5 10.166 -75.5 30.499s-25.5 42.833 -25.5 67.5c0 39.333 14.667 73.5 44 102.5s63 43.5 101 43.5c29.333 0 53.333 -9.66699 72 -29s28 -42.666 28 -69.999c0 -35.333 -14 -68.333 -42 -99s-62 -46 -102 -46z" />
    <glyph glyph-name="copyright" unicode="&#xa9;" horiz-adv-x="1530" 
d="M765 1423c122 0 240.667 -30.999 356 -92.999s206.333 -151 273 -267s100 -239 100 -369s-32.5 -251.333 -97.5 -364s-154 -201.667 -267 -267s-234.5 -98 -364.5 -98s-251.5 32.667 -364.5 98s-202 154.333 -267 267s-97.5 234 -97.5 364
c0 131.333 33.167 254.166 99.5 368.499s156.5 203 270.5 266s233.667 94.5 359 94.5zM765 1310c-106 0 -207 -26.6641 -303 -79.9971s-172.167 -128.333 -228.5 -225s-84.5 -200.334 -84.5 -311.001c0 -110 27.5 -212.667 82.5 -308s130.167 -170.5 225.5 -225.5
s198 -82.5 308 -82.5c109.333 0 211.833 27.5 307.5 82.5s171 130.5 226 226.5s82.5 198.333 82.5 307c0 109.333 -28.333 213.166 -85 311.499s-133.5 173.666 -230.5 225.999s-197.167 78.5 -300.5 78.5zM1040 497.004l54.0029 -22.998
c-30.667 -64.667 -74.834 -113.167 -132.501 -145.5s-124.5 -48.5 -200.5 -48.5c-118 0 -211.5 39.833 -280.5 119.5s-103.5 174.167 -103.5 283.5c0 81.333 18.5 157 55.5 227s87.167 121.667 150.5 155s133.333 50 210 50c26.667 0 56.167 -2 88.5 -6s66 -11 101 -21
s64.5 -21 88.5 -33v-218h-68c-10 39.333 -18.5 68 -25.5 86s-19.333 36.667 -37 56s-38.334 34.166 -62.001 44.499s-50.167 15.5 -79.5 15.5c-76.667 0 -136.334 -31.167 -179.001 -93.5s-64 -137.833 -64 -226.5c0 -100.667 24.667 -185.334 74 -254.001
s114.333 -103 195 -103c33.333 0 62.333 4.83301 87 14.5s46.167 23 64.5 40s39.5 43.833 63.5 80.5z" />
    <glyph glyph-name="ordfeminine" unicode="&#xaa;" horiz-adv-x="682" 
d="M737 938l-4 -14.0029c-118 -83.333 -193.333 -125 -226 -125c-34 0 -51 21.333 -51 64c0 30 13.667 96.333 41 199c-51.333 -83.333 -103.833 -148 -157.5 -194s-100.834 -69 -141.501 -69c-51.333 0 -77 39.667 -77 119c0 51.333 12 117.833 36 199.5
s53.333 135.834 88 162.501l114.5 85.5c41.667 30.333 86.834 45.5 135.501 45.5c46.667 0 90.334 -10.333 131.001 -31l61 29l24 -16c-10 -21.333 -30.333 -98.666 -61 -231.999s-46 -209.666 -46 -228.999c0 -10.667 2.66699 -16 8 -16c19.333 0 51.666 15.667 96.999 47
l13 -1zM535 1312c-40 20 -69.3311 29.999 -87.998 29.999c-28.667 0 -50.334 -9.16699 -65.001 -27.5s-35.834 -67.333 -63.501 -147s-41.5 -151.5 -41.5 -215.5c0 -24.667 5.66699 -37 17 -37c17.333 0 43 17.167 77 51.5s68.333 83.833 103 148.5s55 130.334 61 197.001z
M684.002 731.996l-20 -82h-656l20 82h656z" />
    <glyph glyph-name="guillemotleft" unicode="&#xab;" horiz-adv-x="1024" 
d="M480 496v46l228 202l195 178l12 1l34 -29l1 -12l-259 -369l171 -380l-3 -14l-35 -21l-14 3l-129 160l-115 135zM91 496v46l228 202l195 178l12 1l34 -29l1 -12l-259 -369l171 -380l-3 -14l-35 -21l-14 3l-129 160l-115 135z" />
    <glyph glyph-name="logicalnot" unicode="&#xac;" horiz-adv-x="1024" 
d="M993 242h-177v407h-784v179h961v-586z" />
    <glyph glyph-name="registered" unicode="&#xae;" horiz-adv-x="1530" 
d="M765 1423c122 0 240.667 -30.999 356 -92.999s206.333 -151 273 -267s100 -239 100 -369s-32.5 -251.333 -97.5 -364s-154 -201.667 -267 -267s-234.5 -98 -364.5 -98s-251.5 32.667 -364.5 98s-202 154.333 -267 267s-97.5 234 -97.5 364
c0 131.333 33.167 254.166 99.5 368.499s156.5 203 270.5 266s233.667 94.5 359 94.5zM765 1310c-106 0 -207 -26.6641 -303 -79.9971s-172.167 -128.333 -228.5 -225s-84.5 -200.334 -84.5 -311.001c0 -110 27.5 -212.667 82.5 -308s130.167 -170.5 225.5 -225.5
s198 -82.5 308 -82.5c109.333 0 211.833 27.5 307.5 82.5s171 130.5 226 226.5s82.5 198.333 82.5 307c0 109.333 -28.333 213.166 -85 311.499s-133.5 173.666 -230.5 225.999s-197.167 78.5 -300.5 78.5zM428 332.004l-0.00488281 40.9971l14 -1
c24.667 0 42 1.83301 52 5.5s16.667 9.5 20 17.5s5 23.333 5 46v565c0 28 -1.83301 46.667 -5.5 56s-9.66699 15.666 -18 18.999s-24.166 5 -47.499 5h-20v44h356c72.667 0 128.334 -8.83301 167.001 -26.5s66.167 -43.667 82.5 -78s24.5 -66.833 24.5 -97.5
c0 -27.333 -6.66699 -55.166 -20 -83.499s-33.666 -52.833 -60.999 -73.5s-68.666 -37.334 -123.999 -50.001c23.333 -8 40.333 -15.667 51 -23s23.5 -19.833 38.5 -37.5s26.333 -33.167 34 -46.5s20.5 -38.666 38.5 -75.999c21.333 -46 39.333 -81.5 54 -106.5
s26.834 -41 36.501 -48s23.834 -10.5 42.501 -10.5v-41h-119c-36 0 -61 5.83301 -75 17.5s-43 67.167 -87 166.5c-25.333 58 -44 97.667 -56 119s-24.833 36.333 -38.5 45s-34.5 13 -62.5 13c-8.66699 0 -24.667 -1 -48 -3v-239c0 -27.333 2.33301 -45.666 7 -54.999
s11.167 -15.166 19.5 -17.499s29.166 -4.16602 62.499 -5.49902v-41h-323zM661.995 747.001c23.333 -2 40.999 -3 52.999 -3c82 0 135.333 18.167 160 54.5s37 76.833 37 121.5c0 50.667 -14.333 90.5 -43 119.5s-67 43.5 -115 43.5c-12 0 -26.5 -0.833008 -43.5 -2.5
s-27.667 -3.83398 -32 -6.50098s-8.16602 -7.66699 -11.499 -15s-5 -15.666 -5 -24.999v-287z" />
    <glyph glyph-name="macron" unicode="&#xaf;" horiz-adv-x="682" 
d="M150 1313h647l-30 -127h-647z" />
    <glyph glyph-name="macron" unicode="&#x2c9;" horiz-adv-x="682" 
d="M150 1313h647l-30 -127h-647z" />
    <glyph glyph-name="degree" unicode="&#xb0;" horiz-adv-x="819" 
d="M270 864c-65.333 66 -97.998 145.332 -97.998 237.999c0 96 33.167 176.333 99.5 241s145.166 97 236.499 97c94 0 174.167 -33.167 240.5 -99.5s99.5 -145.166 99.5 -236.499c0 -94.667 -32.833 -174.667 -98.5 -240s-144.834 -98 -237.501 -98
c-94 0 -174.667 32.667 -242 98zM506.002 1319c-59.333 0 -108.999 -22 -148.999 -66s-60 -93.667 -60 -149c0 -56.667 21 -106 63 -148s91.333 -63 148 -63c59.333 0 109.666 21 150.999 63s62 92.667 62 152c0 56 -20.667 105.167 -62 147.5s-92.333 63.5 -153 63.5z" />
    <glyph glyph-name="plusminus" unicode="&#xb1;" horiz-adv-x="1024" 
d="M993 645h-392v-311h-177v311h-392v172h392v352h177v-352h392v-172zM993 0h-961v172h961v-172z" />
    <glyph glyph-name="twosuperior" unicode="&#xb2;" horiz-adv-x="655" 
d="M88 552l-8.00195 11.998l5 33c4.66699 5.33301 24 23.333 58 54c96.667 87.333 178.667 176.166 246 266.499s101 169.833 101 238.5c0 37.333 -9.83301 67 -29.5 89s-49.167 33 -88.5 33c-33.333 0 -60.833 -7 -82.5 -21s-46.5 -47.667 -74.5 -101l-13 -6l-35 11l-3 13
l69 164c33.333 28 64.833 46 94.5 54s58.834 12 87.501 12c72 0 130.5 -18.5 175.5 -55.5s67.5 -90.833 67.5 -161.5c0 -24 -2.5 -45.667 -7.5 -65s-13.667 -40.166 -26 -62.499s-32.333 -49.666 -60 -81.999s-63.167 -69.5 -106.5 -111.5l-117 -110
c-34 -32.667 -57 -53.667 -69 -63l55 -1c178.667 0 285.334 4.33301 320.001 13l16 -15c-12 -25.333 -25.667 -68.666 -41 -129.999l-11 -8c-122.667 3.33301 -207.667 5 -255 5z" />
    <glyph glyph-name="threesuperior" unicode="&#xb3;" horiz-adv-x="655" 
d="M104 598l35.999 190.002l11 9l37 -3l8 -12c-2 -22.667 -3 -42 -3 -58c0 -46.667 12 -79.667 36 -99s53.667 -29 89 -29c34.667 0 64.667 9.33301 90 28s45.333 47.5 60 86.5s22 79.167 22 120.5c0 92.667 -43.333 139 -130 139c-25.333 0 -55.666 -6 -90.999 -18l-13 13
l24 73c14.667 -4 30 -6 46 -6c62.667 0 108.167 15.667 136.5 47s42.5 68.333 42.5 111c0 35.333 -10.333 61.166 -31 77.499s-46 24.5 -76 24.5c-34.667 0 -63.5 -7 -86.5 -21s-45.167 -40.333 -66.5 -79l-13 -6l-33 14l-3 12l69 134c44 38.667 105.667 58 185 58
c66 0 118.833 -15 158.5 -45s59.5 -72 59.5 -126c0 -40 -12.167 -76.833 -36.5 -110.5s-71.5 -67.5 -141.5 -101.5c60 -9.33301 104.167 -30.833 132.5 -64.5s42.5 -74.167 42.5 -121.5c0 -81.333 -33.5 -151.833 -100.5 -211.5s-151.833 -89.5 -254.5 -89.5
c-30 0 -60.5 3.16699 -91.5 9.5s-67.167 20.166 -108.5 41.499z" />
    <glyph glyph-name="acute" unicode="&#xb4;" horiz-adv-x="682" 
d="M845 1474c-232.667 -160 -410.333 -287.333 -533 -382l-52 27l7 13l165 188l130 145l15 10l132 12l121 15l10 -5z" />
    <glyph glyph-name="mu" unicode="&#xb5;" horiz-adv-x="1160" 
d="M89 732l-15.0029 34l2 13c104.667 76.667 187.5 131.667 248.5 165s109.167 50 144.5 50c19.333 0 34.666 -7.16699 45.999 -21.5s17 -33.833 17 -58.5c0 -29.333 -4.66699 -62.166 -14 -98.499s-39.333 -138.833 -90 -307.5c-54 -179.333 -81 -286.666 -81 -321.999
c0 -24 10.667 -36 32 -36c10 0 23.5 4 40.5 12s43.5 29.5 79.5 64.5s76.167 83.333 120.5 145s79 121.667 104 180s43.833 109.333 56.5 153s34.334 122.5 65.001 236.5c68 8.66699 141.667 23.334 221 44.001l21 -18c-34.667 -92.667 -79.167 -236.667 -133.5 -432
s-81.5 -313.333 -81.5 -354c0 -23.333 8 -35 24 -35c9.33301 0 22 4.16699 38 12.5s50 30.166 102 65.499l13 -1l14 -35l-3 -15l-164 -121c-49.333 -36 -88.833 -60.167 -118.5 -72.5s-52.167 -18.5 -67.5 -18.5c-22.667 0 -40.334 7.66699 -53.001 23
s-19 36.666 -19 63.999c0 25.333 10.333 76.166 31 152.499s45.334 158.833 74.001 247.5c-70 -114.667 -157.167 -225 -261.5 -331s-182.833 -159 -235.5 -159c-31.333 0 -55.666 19.667 -72.999 59c-10 -38.667 -15 -90 -15 -154c0 -42.667 2.66699 -89.334 8 -140.001
c5.33301 -51.333 8 -92.333 8 -123c0 -53.333 -10.667 -95.333 -32 -126s-52.666 -46 -93.999 -46c-22.667 0 -42 4.5 -58 13.5s-29.667 22.5 -41 40.5s-17 40 -17 66c0 21.333 2.5 42 7.5 62s18.833 62.333 41.5 127c39.333 112 76 228 110 348l108 379
c36.667 132.667 57.667 213.334 63 242.001s8 48.667 8 60c0 9.33301 -3.16699 17 -9.5 23s-13.166 9 -20.499 9c-16 0 -61.667 -22.667 -137 -68z" />
    <glyph glyph-name="mu" unicode="&#x3bc;" horiz-adv-x="1160" 
d="M89 732l-15.0029 34l2 13c104.667 76.667 187.5 131.667 248.5 165s109.167 50 144.5 50c19.333 0 34.666 -7.16699 45.999 -21.5s17 -33.833 17 -58.5c0 -29.333 -4.66699 -62.166 -14 -98.499s-39.333 -138.833 -90 -307.5c-54 -179.333 -81 -286.666 -81 -321.999
c0 -24 10.667 -36 32 -36c10 0 23.5 4 40.5 12s43.5 29.5 79.5 64.5s76.167 83.333 120.5 145s79 121.667 104 180s43.833 109.333 56.5 153s34.334 122.5 65.001 236.5c68 8.66699 141.667 23.334 221 44.001l21 -18c-34.667 -92.667 -79.167 -236.667 -133.5 -432
s-81.5 -313.333 -81.5 -354c0 -23.333 8 -35 24 -35c9.33301 0 22 4.16699 38 12.5s50 30.166 102 65.499l13 -1l14 -35l-3 -15l-164 -121c-49.333 -36 -88.833 -60.167 -118.5 -72.5s-52.167 -18.5 -67.5 -18.5c-22.667 0 -40.334 7.66699 -53.001 23
s-19 36.666 -19 63.999c0 25.333 10.333 76.166 31 152.499s45.334 158.833 74.001 247.5c-70 -114.667 -157.167 -225 -261.5 -331s-182.833 -159 -235.5 -159c-31.333 0 -55.666 19.667 -72.999 59c-10 -38.667 -15 -90 -15 -154c0 -42.667 2.66699 -89.334 8 -140.001
c5.33301 -51.333 8 -92.333 8 -123c0 -53.333 -10.667 -95.333 -32 -126s-52.666 -46 -93.999 -46c-22.667 0 -42 4.5 -58 13.5s-29.667 22.5 -41 40.5s-17 40 -17 66c0 21.333 2.5 42 7.5 62s18.833 62.333 41.5 127c39.333 112 76 228 110 348l108 379
c36.667 132.667 57.667 213.334 63 242.001s8 48.667 8 60c0 9.33301 -3.16699 17 -9.5 23s-13.166 9 -20.499 9c-16 0 -61.667 -22.667 -137 -68z" />
    <glyph glyph-name="paragraph" unicode="&#xb6;" 
d="M165 -411l5.00195 71.002l85 3c25.333 1.33301 44.5 5.16602 57.5 11.499s24 15.5 33 27.5s16.333 27.833 22 47.5s13.167 56.167 22.5 109.5l111 637c-136 12.667 -248.5 70.5 -337.5 173.5s-133.5 225.167 -133.5 366.5c0 112 29.667 200.5 89 265.5
s148.666 97.5 267.999 97.5c26 0 72 -1 138 -3c104 -2.66699 226 -4 366 -4c83.333 0.666992 158 1.66699 224 3l173 3l-15 -73l-82 -2c-35.333 0 -58.5 -2 -69.5 -6s-19.333 -11.833 -25 -23.5s-11.834 -35.834 -18.501 -72.501l-251 -1408c-6 -35.333 -9 -60 -9 -74
c0 -20.667 4.83301 -36.5 14.5 -47.5s23.5 -18.5 41.5 -22.5s44.333 -6.33301 79 -7l59 -2l-5 -71h-57l-395 5zM643.002 1318c-38.667 6.66699 -73.334 10 -104.001 10c-53.333 0 -95.666 -13 -126.999 -39s-54 -65.167 -68 -117.5s-21 -110.833 -21 -175.5
c0 -104 16 -194.5 48 -271.5s79.333 -126.833 142 -149.5zM513.002 -317.998h136l286 1618h-137z" />
    <glyph glyph-name="periodcentered" unicode="&#xb7;" horiz-adv-x="512" 
d="M256 779c42 0 78.167 -15.168 108.5 -45.501s45.5 -67.166 45.5 -110.499s-15.167 -80.333 -45.5 -111s-66.5 -46 -108.5 -46c-42.667 0 -79 15.333 -109 46s-45 67.667 -45 111c0 44 15.333 81 46 111s66.667 45 108 45z" />
    <glyph glyph-name="periodcentered" unicode="&#x2219;" horiz-adv-x="512" 
d="M256 779c42 0 78.167 -15.168 108.5 -45.501s45.5 -67.166 45.5 -110.499s-15.167 -80.333 -45.5 -111s-66.5 -46 -108.5 -46c-42.667 0 -79 15.333 -109 46s-45 67.667 -45 111c0 44 15.333 81 46 111s66.667 45 108 45z" />
    <glyph glyph-name="cedilla" unicode="&#xb8;" horiz-adv-x="682" 
d="M262 4l78.001 0.000976562l-98 -145c14 4 30.333 6 49 6c64 0 110.333 -14.833 139 -44.5s43 -61.834 43 -96.501c0 -49.333 -20.833 -92.166 -62.5 -128.499s-104.834 -54.5 -189.501 -54.5c-73.333 0 -141 15 -203 45l-4 13l29 47l16 6
c47.333 -20.667 92.666 -31 135.999 -31c30.667 0 56.334 7.5 77.001 22.5s31 36.833 31 65.5c0 23.333 -9 42.166 -27 56.499s-40.333 21.5 -67 21.5c-16 0 -38.667 -3.33301 -68 -10l-22 22z" />
    <glyph glyph-name="onesuperior" unicode="&#xb9;" horiz-adv-x="655" 
d="M149 551l-8.99609 9.99902l10 40l11 8c47.333 0.666992 80.166 2.33398 98.499 5.00098s29.5 5.5 33.5 8.5s7.66699 8 11 15s10.666 38.667 21.999 95s25.666 133.833 42.999 232.5l52 295l-218 -96l-19 15l23 90c115.333 29.333 203.5 56.5 264.5 81.5
s98.5 42.833 112.5 53.5l31 -23c-8.66699 -31.333 -24 -109.333 -46 -234l-60 -327c-18 -92.667 -27 -150.667 -27 -174c0 -12 3.5 -20.333 10.5 -25s26.667 -8 59 -10s62.166 -3 89.499 -3l8 -11l-9 -38l-11 -8c-61.333 4 -140.333 6 -237 6c-76.667 0 -157.667 -2 -243 -6
z" />
    <glyph glyph-name="ordmasculine" unicode="&#xba;" horiz-adv-x="682" 
d="M733 1220c0 -131.333 -38.832 -234 -116.499 -308s-167.834 -111 -270.501 -111c-132 0 -198 66 -198 198c0 137.333 38.667 241.5 116 312.5s166 106.5 266 106.5c54.667 0 102.167 -15.5 142.5 -46.5s60.5 -81.5 60.5 -151.5zM571.001 1218
c0 90 -33 134.999 -99 134.999c-26.667 0 -51.834 -11.5 -75.501 -34.5s-44.5 -67.833 -62.5 -134.5s-27 -126.667 -27 -180c0 -89.333 35 -134 105 -134c50.667 0 89.834 38.833 117.501 116.5s41.5 154.834 41.5 231.501zM684.001 731.999l-20 -82h-656l20 82h656z" />
    <glyph glyph-name="guillemotright" unicode="&#xbb;" horiz-adv-x="1024" 
d="M561 526v-46l-187.5 -166.5l-235.5 -214.5l-12 -1l-34 30l-1 12l259 369l-171 380l3 14l35 20l14 -2l155 -192c14 -18 42.5 -51.167 85.5 -99.5s72.833 -82.833 89.5 -103.5zM950 526v-46l-187.5 -166.5l-235.5 -214.5l-12 -1l-34 30l-1 12l259 369l-171 380l3 14l35 20
l14 -2l155 -192c14 -18 42.333 -51.167 85 -99.5z" />
    <glyph glyph-name="onequarter" unicode="&#xbc;" horiz-adv-x="1652" 
d="M184 551l-8.99609 9.99902l10 40l11 8c47.333 0.666992 80.166 2.33398 98.499 5.00098s29.5 5.5 33.5 8.5s7.66699 8 11 15s10.666 38.667 21.999 95s25.666 133.833 42.999 232.5l52 295l-218 -96l-19 15l23 90c115.333 29.333 203.5 56.5 264.5 81.5
s98.5 42.833 112.5 53.5l31 -23c-8.66699 -31.333 -24 -109.333 -46 -234l-60 -327c-18 -92.667 -27 -150.667 -27 -174c0 -12 3.5 -20.333 10.5 -25s26.667 -8 59 -10s62.166 -3 89.499 -3l8 -11l-9 -38l-11 -8c-61.333 4 -140.333 6 -237 6c-76.667 0 -157.667 -2 -243 -6
zM1402 1359l-899 -1395h-75l-5 10l898 1394h76zM1085 -5.00098l-7.99902 11.001l10 37l11 9c76 2 118.833 5.5 128.5 10.5s22.167 56.5 37.5 154.5l-294 -3l-9 11l5 45c121.333 191.333 251.333 370.333 390 537c59.333 11.333 111.666 25.666 156.999 42.999l23 -19
c-12 -56 -23.667 -115.333 -35 -178l-60 -329l126 4l12 -9l-24 -96l-11 -8c-49.333 2 -90.333 3 -123 3c-12 -80.667 -18 -127 -18 -139c0 -7.33301 1.66699 -12.333 5 -15s12.333 -5.16699 27 -7.5s48 -4.5 100 -6.5l8 -10l-9 -37l-10 -8
c-0.666992 0 -22.667 0.666992 -66 2c-58 2 -105 3 -141 3c-34 0 -111.333 -1.66699 -232 -5zM1286 323l43 245.001l5 22l11 62c2 12 5.33301 29 10 51c-117.333 -146.667 -208 -273.334 -272 -380.001c17.333 -0.666992 39 -1 65 -1c56 0 102 0.333008 138 1z" />
    <glyph glyph-name="onehalf" unicode="&#xbd;" horiz-adv-x="1652" 
d="M149 551l-8.99609 9.99902l10 40l11 8c47.333 0.666992 80.166 2.33398 98.499 5.00098s29.5 5.5 33.5 8.5s7.66699 8 11 15s10.666 38.667 21.999 95s25.666 133.833 42.999 232.5l52 295l-218 -96l-19 15l23 90c115.333 29.333 203.5 56.5 264.5 81.5
s98.5 42.833 112.5 53.5l31 -23c-8.66699 -31.333 -24 -109.333 -46 -234l-60 -327c-18 -92.667 -27 -150.667 -27 -174c0 -12 3.5 -20.333 10.5 -25s26.667 -8 59 -10s62.166 -3 89.499 -3l8 -11l-9 -38l-11 -8c-61.333 4 -140.333 6 -237 6c-76.667 0 -157.667 -2 -243 -6
zM1371 1359l-899 -1395h-75l-5 10l898 1394h76zM977.004 -5.00098l-8.00195 11.998l5 33c4.66699 5.33301 24 23.333 58 54c96.667 87.333 178.667 176.166 246 266.499s101 169.833 101 238.5c0 37.333 -9.83301 67 -29.5 89s-49.167 33 -88.5 33
c-33.333 0 -60.833 -7 -82.5 -21s-46.5 -47.667 -74.5 -101l-13 -6l-35 11l-3 13l69 164c33.333 28 64.833 46 94.5 54s58.834 12 87.501 12c72 0 130.5 -18.5 175.5 -55.5s67.5 -90.833 67.5 -161.5c0 -24 -2.5 -45.667 -7.5 -65s-13.667 -40.166 -26 -62.499
s-32.333 -49.666 -60 -81.999s-63.167 -69.5 -106.5 -111.5l-117 -110c-34 -32.667 -57 -53.667 -69 -63l55 -1c178.667 0 285.334 4.33301 320.001 13l16 -15c-12 -25.333 -25.667 -68.666 -41 -129.999l-11 -8c-122.667 3.33301 -207.667 5 -255 5z" />
    <glyph glyph-name="threequarters" unicode="&#xbe;" horiz-adv-x="1652" 
d="M139 598l35.999 190.002l11 9l37 -3l8 -12c-2 -22.667 -3 -42 -3 -58c0 -46.667 12 -79.667 36 -99s53.667 -29 89 -29c34.667 0 64.667 9.33301 90 28s45.333 47.5 60 86.5s22 79.167 22 120.5c0 92.667 -43.333 139 -130 139c-25.333 0 -55.666 -6 -90.999 -18l-13 13
l24 73c14.667 -4 30 -6 46 -6c62.667 0 108.167 15.667 136.5 47s42.5 68.333 42.5 111c0 35.333 -10.333 61.166 -31 77.499s-46 24.5 -76 24.5c-34.667 0 -63.5 -7 -86.5 -21s-45.167 -40.333 -66.5 -79l-13 -6l-33 14l-3 12l69 134c44 38.667 105.667 58 185 58
c66 0 118.833 -15 158.5 -45s59.5 -72 59.5 -126c0 -40 -12.167 -76.833 -36.5 -110.5s-71.5 -67.5 -141.5 -101.5c60 -9.33301 104.167 -30.833 132.5 -64.5s42.5 -74.167 42.5 -121.5c0 -81.333 -33.5 -151.833 -100.5 -211.5s-151.833 -89.5 -254.5 -89.5
c-30 0 -60.5 3.16699 -91.5 9.5s-67.167 20.166 -108.5 41.499zM1382 1359l-899 -1395h-75l-5 10l898 1394h76zM1085 -4.99805l-7.99902 11.001l10 37l11 9c76 2 118.833 5.5 128.5 10.5s22.167 56.5 37.5 154.5l-294 -3l-9 11l5 45
c121.333 191.333 251.333 370.333 390 537c59.333 11.333 111.666 25.666 156.999 42.999l23 -19c-12 -56 -23.667 -115.333 -35 -178l-60 -329l126 4l12 -9l-24 -96l-11 -8c-49.333 2 -90.333 3 -123 3c-12 -80.667 -18 -127 -18 -139c0 -7.33301 1.66699 -12.333 5 -15
s12.333 -5.16699 27 -7.5s48 -4.5 100 -6.5l8 -10l-9 -37l-10 -8c-0.666992 0 -22.667 0.666992 -66 2c-58 2 -105 3 -141 3c-34 0 -111.333 -1.66699 -232 -5zM1286 323.003l43 245.001l5 22l11 62c2 12 5.33301 29 10 51c-117.333 -146.667 -208 -273.334 -272 -380.001
c17.333 -0.666992 39 -1 65 -1c56 0 102 0.333008 138 1z" />
    <glyph glyph-name="questiondown" unicode="&#xbf;" horiz-adv-x="909" 
d="M700 856c0 -35.333 -6.5 -66.168 -19.5 -92.501s-29.833 -47.166 -50.5 -62.499s-47 -23 -79 -23c-38 0 -67.667 11.167 -89 33.5s-32 51.833 -32 88.5c0 44.667 13.167 85.667 39.5 123s63.5 56 111.5 56c79.333 0 119 -41 119 -123zM499 563.998
c35.333 -34.667 57.999 -63.3359 67.999 -86.0029s15 -45.667 15 -69c0 -24 -5.33301 -48.833 -16 -74.5s-25.167 -50.167 -43.5 -73.5s-45.833 -53.666 -82.5 -90.999c-83.333 -85.333 -137.166 -149.166 -161.499 -191.499s-36.5 -85.166 -36.5 -128.499
c0 -50.667 18 -90.334 54 -119.001s81.333 -43 136 -43c38 0 70.5 6.83301 97.5 20.5s48.5 32 64.5 55s34.333 59.833 55 110.5l11 6l49 -7l4 -11c-44 -118 -71.667 -201.333 -83 -250c-54.667 -34.667 -103 -58.167 -145 -70.5s-85.667 -18.5 -131 -18.5
c-108.667 0 -197 27.167 -265 81.5s-102 130.5 -102 228.5c0 40.667 6 78.334 18 113.001s31 67.5 57 98.5s58.833 62.5 98.5 94.5s87.167 66.667 142.5 104c52 34.667 90.167 62.334 114.5 83.001s42.833 41.5 55.5 62.5s19 41.167 19 60.5
c0 29.333 -12.333 55.666 -37 78.999l1 11l31 25h12z" />
    <glyph glyph-name="Agrave" unicode="&#xc0;" horiz-adv-x="1479" 
d="M-61 -8l-6.99805 8.99902l7 52l10 8c52 4 81.833 6.83301 89.5 8.5s15.5 5.5 23.5 11.5s16 14.833 24 26.5s33.667 54.834 77 129.501l117 199l283 487l173 291c50.667 84 88 149.667 112 197h195l41 -298l47 -330l39 -270l31 -202l20 -121
c7.33301 -54.667 18.666 -89.667 33.999 -105s63 -23.333 143 -24l7 -9l-6 -51l-10 -9c-150.667 5.33301 -251.334 8 -302.001 8c-44 -0 -141.333 -2.66699 -292 -8l-8 9l8 51l10 9c64.667 0 106 5 124 15s27 26 27 48c0 46.667 -16 187 -48 421
c-60.667 0.666992 -100.334 1 -119.001 1l-153 -1h-180c-39.333 -68 -81 -144.5 -125 -229.5s-70.167 -139 -78.5 -162s-12.5 -38.5 -12.5 -46.5c0 -12 7 -22.167 21 -30.5s63.333 -13.5 148 -15.5l7 -9l-7 -52l-10 -8c-0.666992 0 -25 1.33301 -73 4
c-64 2.66699 -112.667 4 -146 4c-19.333 -0 -99.666 -2.66699 -240.999 -8zM504.002 635.999c32 -0.666992 51.333 -1 58 -1c207.333 0 319 0.333008 335 1l-78 541zM1190 1569l-56.999 -28c-70.667 70 -198.334 181.667 -383.001 335l10 23l12 5l222 -27l13 -10
c36.667 -61.333 61.667 -102 75 -122l104 -163z" />
    <glyph glyph-name="Aacute" unicode="&#xc1;" horiz-adv-x="1479" 
d="M-61 -8l-6.99805 8.99902l7 52l10 8c52 4 81.833 6.83301 89.5 8.5s15.5 5.5 23.5 11.5s16 14.833 24 26.5s33.667 54.834 77 129.501l117 199l283 487l173 291c50.667 84 88 149.667 112 197h195l41 -298l47 -330l39 -270l31 -202l20 -121
c7.33301 -54.667 18.666 -89.667 33.999 -105s63 -23.333 143 -24l7 -9l-6 -51l-10 -9c-150.667 5.33301 -251.334 8 -302.001 8c-44 -0 -141.333 -2.66699 -292 -8l-8 9l8 51l10 9c64.667 0 106 5 124 15s27 26 27 48c0 46.667 -16 187 -48 421
c-60.667 0.666992 -100.334 1 -119.001 1l-153 -1h-180c-39.333 -68 -81 -144.5 -125 -229.5s-70.167 -139 -78.5 -162s-12.5 -38.5 -12.5 -46.5c0 -12 7 -22.167 21 -30.5s63.333 -13.5 148 -15.5l7 -9l-7 -52l-10 -8c-0.666992 0 -25 1.33301 -73 4
c-64 2.66699 -112.667 4 -146 4c-19.333 -0 -99.666 -2.66699 -240.999 -8zM504.002 635.999c32 -0.666992 51.333 -1 58 -1c207.333 0 319 0.333008 335 1l-78 541zM1377 1877c-178 -113.333 -336.667 -223.333 -476 -330l-51 27l7 13l144 169l93 112l15 10l132 12l121 15
l11 -5z" />
    <glyph glyph-name="Acircumflex" unicode="&#xc2;" horiz-adv-x="1479" 
d="M-61 -8l-6.99805 8.99902l7 52l10 8c52 4 81.833 6.83301 89.5 8.5s15.5 5.5 23.5 11.5s16 14.833 24 26.5s33.667 54.834 77 129.501l117 199l283 487l173 291c50.667 84 88 149.667 112 197h195l41 -298l47 -330l39 -270l31 -202l20 -121
c7.33301 -54.667 18.666 -89.667 33.999 -105s63 -23.333 143 -24l7 -9l-6 -51l-10 -9c-150.667 5.33301 -251.334 8 -302.001 8c-44 -0 -141.333 -2.66699 -292 -8l-8 9l8 51l10 9c64.667 0 106 5 124 15s27 26 27 48c0 46.667 -16 187 -48 421
c-60.667 0.666992 -100.334 1 -119.001 1l-153 -1h-180c-39.333 -68 -81 -144.5 -125 -229.5s-70.167 -139 -78.5 -162s-12.5 -38.5 -12.5 -46.5c0 -12 7 -22.167 21 -30.5s63.333 -13.5 148 -15.5l7 -9l-7 -52l-10 -8c-0.666992 0 -25 1.33301 -73 4
c-64 2.66699 -112.667 4 -146 4c-19.333 -0 -99.666 -2.66699 -240.999 -8zM504.002 635.999c32 -0.666992 51.333 -1 58 -1c207.333 0 319 0.333008 335 1l-78 541zM1241 1550l-13 -12h-56l-193 213l-286 -213h-63l-10 14l315 352h141zM1382 1646z" />
    <glyph glyph-name="Atilde" unicode="&#xc3;" horiz-adv-x="1479" 
d="M-61 -8l-6.99805 8.99902l7 52l10 8c52 4 81.833 6.83301 89.5 8.5s15.5 5.5 23.5 11.5s16 14.833 24 26.5s33.667 54.834 77 129.501l117 199l283 487l173 291c50.667 84 88 149.667 112 197h195l41 -298l47 -330l39 -270l31 -202l20 -121
c7.33301 -54.667 18.666 -89.667 33.999 -105s63 -23.333 143 -24l7 -9l-6 -51l-10 -9c-150.667 5.33301 -251.334 8 -302.001 8c-44 -0 -141.333 -2.66699 -292 -8l-8 9l8 51l10 9c64.667 0 106 5 124 15s27 26 27 48c0 46.667 -16 187 -48 421
c-60.667 0.666992 -100.334 1 -119.001 1l-153 -1h-180c-39.333 -68 -81 -144.5 -125 -229.5s-70.167 -139 -78.5 -162s-12.5 -38.5 -12.5 -46.5c0 -12 7 -22.167 21 -30.5s63.333 -13.5 148 -15.5l7 -9l-7 -52l-10 -8c-0.666992 0 -25 1.33301 -73 4
c-64 2.66699 -112.667 4 -146 4c-19.333 -0 -99.666 -2.66699 -240.999 -8zM504.002 635.999c32 -0.666992 51.333 -1 58 -1c207.333 0 319 0.333008 335 1l-78 541zM1354 1858c-17.333 -82 -46.499 -143.833 -87.499 -185.5s-87.833 -62.5 -140.5 -62.5
c-38.667 0 -101 17 -187 51c-81.333 32 -135 48 -161 48c-50.667 0 -87.334 -33.667 -110.001 -101h-56l-12 13c42.667 164 119 246 229 246c44.667 0 115.667 -19 213 -57c66.667 -26 113.667 -39 141 -39c42 0 77 33 105 99h54z" />
    <glyph glyph-name="Adieresis" unicode="&#xc4;" horiz-adv-x="1479" 
d="M-61 -8l-6.99805 8.99902l7 52l10 8c52 4 81.833 6.83301 89.5 8.5s15.5 5.5 23.5 11.5s16 14.833 24 26.5s33.667 54.834 77 129.501l117 199l283 487l173 291c50.667 84 88 149.667 112 197h195l41 -298l47 -330l39 -270l31 -202l20 -121
c7.33301 -54.667 18.666 -89.667 33.999 -105s63 -23.333 143 -24l7 -9l-6 -51l-10 -9c-150.667 5.33301 -251.334 8 -302.001 8c-44 -0 -141.333 -2.66699 -292 -8l-8 9l8 51l10 9c64.667 0 106 5 124 15s27 26 27 48c0 46.667 -16 187 -48 421
c-60.667 0.666992 -100.334 1 -119.001 1l-153 -1h-180c-39.333 -68 -81 -144.5 -125 -229.5s-70.167 -139 -78.5 -162s-12.5 -38.5 -12.5 -46.5c0 -12 7 -22.167 21 -30.5s63.333 -13.5 148 -15.5l7 -9l-7 -52l-10 -8c-0.666992 0 -25 1.33301 -73 4
c-64 2.66699 -112.667 4 -146 4c-19.333 -0 -99.666 -2.66699 -240.999 -8zM504.002 635.999c32 -0.666992 51.333 -1 58 -1c207.333 0 319 0.333008 335 1l-78 541zM1194 1589c-36.667 0 -64.499 11.333 -83.499 34s-28.5 47.667 -28.5 75c0 42.667 16 80 48 112
s69 48 111 48c35.333 0 62.666 -11.333 81.999 -34s29 -47.667 29 -75c0 -38 -15.167 -74.167 -45.5 -108.5s-67.833 -51.5 -112.5 -51.5zM732.003 1589c-36.667 0 -64.499 11.333 -83.499 34s-28.5 47.667 -28.5 75c0 41.333 15.5 78.333 46.5 111s68.5 49 112.5 49
c35.333 0 62.666 -11.333 81.999 -34s29 -47.667 29 -75c0 -40.667 -16 -77.5 -48 -110.5s-68.667 -49.5 -110 -49.5z" />
    <glyph glyph-name="Aring" unicode="&#xc5;" horiz-adv-x="1479" 
d="M-61 -8l-6.99805 8.99902l7 52l10 8c52 4 81.833 6.83301 89.5 8.5s15.5 5.5 23.5 11.5s16 14.833 24 26.5s33.667 54.834 77 129.501l117 199l283 487l173 291c50.667 84 88 149.667 112 197h195l41 -298l47 -330l39 -270l31 -202l20 -121
c7.33301 -54.667 18.666 -89.667 33.999 -105s63 -23.333 143 -24l7 -9l-6 -51l-10 -9c-150.667 5.33301 -251.334 8 -302.001 8c-44 -0 -141.333 -2.66699 -292 -8l-8 9l8 51l10 9c64.667 0 106 5 124 15s27 26 27 48c0 46.667 -16 187 -48 421
c-60.667 0.666992 -100.334 1 -119.001 1l-153 -1h-180c-39.333 -68 -81 -144.5 -125 -229.5s-70.167 -139 -78.5 -162s-12.5 -38.5 -12.5 -46.5c0 -12 7 -22.167 21 -30.5s63.333 -13.5 148 -15.5l7 -9l-7 -52l-10 -8c-0.666992 0 -25 1.33301 -73 4
c-64 2.66699 -112.667 4 -146 4c-19.333 -0 -99.666 -2.66699 -240.999 -8zM504.002 635.999c32 -0.666992 51.333 -1 58 -1c207.333 0 319 0.333008 335 1l-78 541zM1201 1744c0 -58 -23.166 -108.667 -69.499 -152s-100.833 -65 -163.5 -65
c-66.667 0 -116.334 19.333 -149.001 58s-49 80.667 -49 126c0 68.667 24.5 122.167 73.5 160.5s102.5 57.5 160.5 57.5c62.667 0 111.167 -17.833 145.5 -53.5s51.5 -79.5 51.5 -131.5zM1105 1745c0 37.333 -9.33301 68.5 -28 93.5s-45 37.5 -79 37.5
c-39.333 0 -71 -15.833 -95 -47.5s-36 -70.5 -36 -116.5c0 -36 9 -66.833 27 -92.5s44 -38.5 78 -38.5c41.333 0 73.833 17 97.5 51s35.5 71.667 35.5 113z" />
    <glyph glyph-name="AE" unicode="&#xc6;" horiz-adv-x="1933" 
d="M-116 -7l-6 9l8 50l11 8c61.333 1.33301 98 8.16602 110 20.499s36.333 44.5 73 96.5l652 1018c19.333 30 33.166 52.5 41.499 67.5s12.5 27.833 12.5 38.5c0 14.667 -13.167 25 -39.5 31s-80.833 9 -163.5 9l-6 8l9 55l10 8c241.333 -4.66699 381.333 -7 420 -7
c287.333 0 561.333 2.33301 822 7l11 -12c-15.333 -42.667 -34 -146.667 -56 -312l-11 -9h-48l-9 9l-1 116c0 34.667 -1.5 55.334 -4.5 62.001s-10.167 13.334 -21.5 20.001s-43 13 -95 19s-117 9 -195 9c-51.333 0 -99 -1.33301 -143 -4
c-23.333 -122 -40.5 -219.167 -51.5 -291.5s-24.5 -152.166 -40.5 -239.499c91.333 -2.66699 161.333 -4 210 -4c109.333 0 192 3.66699 248 11l8 -12l-27 -96l-11 -8c-4 0 -27.667 1.33301 -71 4c-84 5.33301 -186 8 -306 8h-67c-42 -226 -75 -421 -99 -585h148
c82 0 152.667 1.66699 212 5s101.333 8.5 126 15.5s41 14.5 49 22.5s19.833 35.833 35.5 83.5s27.834 88.5 36.501 122.5l12 9h52l7 -10c-38 -182.667 -58 -296.334 -60 -341.001l-11 -11c-296.667 4.66699 -530.667 7 -702 7c-110.667 0 -211.667 -2.33301 -303 -7l-7 9
l10 49l9 8c50.667 6 82.834 13 96.501 21s24.334 20.667 32.001 38s19.167 70.666 34.5 159.999l44 265c-31.333 1.33301 -67.333 2 -108 2h-341c-90.667 -147.333 -161.334 -271.666 -212.001 -372.999c-12 -24 -18 -42.667 -18 -56c0 -21.333 9.16699 -35.833 27.5 -43.5
s63.166 -11.834 134.499 -12.501l6 -9l-8 -49l-11 -9c-106 4.66699 -192 7 -258 7c-28 0 -97 -2.33301 -207 -7zM898 636l82.002 487c17.333 102 26 160.667 26 176c0 19.333 -10.333 29 -31 29c-8.66699 0 -18.334 -3.33301 -29.001 -10s-38.334 -40.667 -83.001 -102
s-104 -151 -178 -269l-195 -309c20.667 -2 46.667 -3 78 -3c152.667 0 262.667 0.333008 330 1z" />
    <glyph glyph-name="Ccedilla" unicode="&#xc7;" horiz-adv-x="1403" 
d="M752 -39l-68.002 -102.002c14 4 31 6 51 6c62.667 0 109.834 -14.5 141.501 -43.5s47.5 -65.833 47.5 -110.5c0 -48 -22.167 -91 -66.5 -129s-111.166 -57 -200.499 -57c-73.333 0 -143.666 15.667 -210.999 47l-4 12l31 49l14 7c51.333 -20.667 99.333 -31 144 -31
c31.333 0 58.166 8 80.499 24s33.5 38.667 33.5 68c0 24.667 -9 44.5 -27 59.5s-41.667 22.5 -71 22.5c-8 0 -31 -4 -69 -12l-25 26l113 160c-152 0 -278.5 44.833 -379.5 134.5s-151.5 225.834 -151.5 408.501c0 287.333 92.333 515.166 277 683.499
s387.334 252.5 608.001 252.5c53.333 0 117.166 -6.83301 191.499 -20.5s138.833 -37.834 193.5 -72.501l4 -12c-40 -121.333 -65.333 -229.666 -76 -324.999l-8 -9h-53l-10 9l6 165c0.666992 15.333 -2.16602 27.833 -8.49902 37.5s-27.5 23.334 -63.5 41.001
s-74.333 31.667 -115 42s-89 15.5 -145 15.5c-129.333 0 -233 -37.167 -311 -111.5s-132.667 -178.666 -164 -312.999s-47 -257.166 -47 -368.499c0 -130.667 34 -233.334 102 -308.001s164.333 -112 289 -112c141.333 0 290.666 53.333 447.999 160l23 -18l-23 -82
c-184 -122.667 -351 -187 -501 -193z" />
    <glyph glyph-name="Egrave" unicode="&#xc8;" horiz-adv-x="1251" 
d="M41 1l6.99707 52.999l10 9c52 12.667 83.333 22.334 94 29.001c5.33301 3.33301 10 8 14 14s9.5 23.167 16.5 51.5s31.167 160.833 72.5 397.5l77 446c24.667 147.333 37 240.666 37 279.999c0 16.667 -4.16699 29 -12.5 37s-18.5 12.667 -30.5 14
s-58.333 4.33301 -139 9l-7 8l8 55l9 8c106 -4.66699 248.667 -7 428 -7c32 0 234.667 2.33301 608 7l10 -12c-1.33301 -16 -11 -72.667 -29 -170c-9.33301 -52 -16.666 -100.667 -21.999 -146l-9 -8h-52l-8 8c2 78 3 124.667 3 140c0 20 -2.33301 33.667 -7 41
s-16.334 14.333 -35.001 21s-54.167 12.667 -106.5 18s-101.833 8 -148.5 8c-73.333 0 -134 -4 -182 -12l-62 -312c-9.33301 -46.667 -21.666 -115 -36.999 -205c145.333 -3.33301 237.333 -5 276 -5c60 0 124.667 1.66699 194 5l6 -12l-26 -88l-12 -9
c-124 2.66699 -248 5.66699 -372 9c-23.333 0 -50.666 -0.666992 -81.999 -2l-63 -358c-18.667 -103.333 -30 -178.333 -34 -225h166c84 0 157.167 2 219.5 6s104.833 9.33301 127.5 16s39.334 16.667 50.001 30s23.667 49 39 107c3.33301 14.667 12 43.334 26 86.001l8 8
h59l7 -8l-67 -341l-11 -9c-106.667 2 -179.667 3 -219 3l-441 4c-101.333 0 -218.333 -2 -351 -6zM1070 1569l-56.999 -28c-70.667 70 -198.334 181.667 -383.001 335l10 23l12 5l222 -27l13 -10c36.667 -61.333 61.667 -102 75 -122l104 -163z" />
    <glyph glyph-name="Eacute" unicode="&#xc9;" horiz-adv-x="1251" 
d="M41 1l6.99707 52.999l10 9c52 12.667 83.333 22.334 94 29.001c5.33301 3.33301 10 8 14 14s9.5 23.167 16.5 51.5s31.167 160.833 72.5 397.5l77 446c24.667 147.333 37 240.666 37 279.999c0 16.667 -4.16699 29 -12.5 37s-18.5 12.667 -30.5 14
s-58.333 4.33301 -139 9l-7 8l8 55l9 8c106 -4.66699 248.667 -7 428 -7c32 0 234.667 2.33301 608 7l10 -12c-1.33301 -16 -11 -72.667 -29 -170c-9.33301 -52 -16.666 -100.667 -21.999 -146l-9 -8h-52l-8 8c2 78 3 124.667 3 140c0 20 -2.33301 33.667 -7 41
s-16.334 14.333 -35.001 21s-54.167 12.667 -106.5 18s-101.833 8 -148.5 8c-73.333 0 -134 -4 -182 -12l-62 -312c-9.33301 -46.667 -21.666 -115 -36.999 -205c145.333 -3.33301 237.333 -5 276 -5c60 0 124.667 1.66699 194 5l6 -12l-26 -88l-12 -9
c-124 2.66699 -248 5.66699 -372 9c-23.333 0 -50.666 -0.666992 -81.999 -2l-63 -358c-18.667 -103.333 -30 -178.333 -34 -225h166c84 0 157.167 2 219.5 6s104.833 9.33301 127.5 16s39.334 16.667 50.001 30s23.667 49 39 107c3.33301 14.667 12 43.334 26 86.001l8 8
h59l7 -8l-67 -341l-11 -9c-106.667 2 -179.667 3 -219 3l-441 4c-101.333 0 -218.333 -2 -351 -6zM1257 1877c-178 -113.333 -336.667 -223.333 -476 -330l-51 27l7 13l144 169l93 112l15 10l132 12l121 15l11 -5z" />
    <glyph glyph-name="Ecircumflex" unicode="&#xca;" horiz-adv-x="1251" 
d="M41 1l6.99707 52.999l10 9c52 12.667 83.333 22.334 94 29.001c5.33301 3.33301 10 8 14 14s9.5 23.167 16.5 51.5s31.167 160.833 72.5 397.5l77 446c24.667 147.333 37 240.666 37 279.999c0 16.667 -4.16699 29 -12.5 37s-18.5 12.667 -30.5 14
s-58.333 4.33301 -139 9l-7 8l8 55l9 8c106 -4.66699 248.667 -7 428 -7c32 0 234.667 2.33301 608 7l10 -12c-1.33301 -16 -11 -72.667 -29 -170c-9.33301 -52 -16.666 -100.667 -21.999 -146l-9 -8h-52l-8 8c2 78 3 124.667 3 140c0 20 -2.33301 33.667 -7 41
s-16.334 14.333 -35.001 21s-54.167 12.667 -106.5 18s-101.833 8 -148.5 8c-73.333 0 -134 -4 -182 -12l-62 -312c-9.33301 -46.667 -21.666 -115 -36.999 -205c145.333 -3.33301 237.333 -5 276 -5c60 0 124.667 1.66699 194 5l6 -12l-26 -88l-12 -9
c-124 2.66699 -248 5.66699 -372 9c-23.333 0 -50.666 -0.666992 -81.999 -2l-63 -358c-18.667 -103.333 -30 -178.333 -34 -225h166c84 0 157.167 2 219.5 6s104.833 9.33301 127.5 16s39.334 16.667 50.001 30s23.667 49 39 107c3.33301 14.667 12 43.334 26 86.001l8 8
h59l7 -8l-67 -341l-11 -9c-106.667 2 -179.667 3 -219 3l-441 4c-101.333 0 -218.333 -2 -351 -6zM1121 1550l-13 -12h-56l-193 213l-286 -213h-63l-10 14l315 352h141zM1262 1646z" />
    <glyph glyph-name="Edieresis" unicode="&#xcb;" horiz-adv-x="1251" 
d="M41 1l6.99707 52.999l10 9c52 12.667 83.333 22.334 94 29.001c5.33301 3.33301 10 8 14 14s9.5 23.167 16.5 51.5s31.167 160.833 72.5 397.5l77 446c24.667 147.333 37 240.666 37 279.999c0 16.667 -4.16699 29 -12.5 37s-18.5 12.667 -30.5 14
s-58.333 4.33301 -139 9l-7 8l8 55l9 8c106 -4.66699 248.667 -7 428 -7c32 0 234.667 2.33301 608 7l10 -12c-1.33301 -16 -11 -72.667 -29 -170c-9.33301 -52 -16.666 -100.667 -21.999 -146l-9 -8h-52l-8 8c2 78 3 124.667 3 140c0 20 -2.33301 33.667 -7 41
s-16.334 14.333 -35.001 21s-54.167 12.667 -106.5 18s-101.833 8 -148.5 8c-73.333 0 -134 -4 -182 -12l-62 -312c-9.33301 -46.667 -21.666 -115 -36.999 -205c145.333 -3.33301 237.333 -5 276 -5c60 0 124.667 1.66699 194 5l6 -12l-26 -88l-12 -9
c-124 2.66699 -248 5.66699 -372 9c-23.333 0 -50.666 -0.666992 -81.999 -2l-63 -358c-18.667 -103.333 -30 -178.333 -34 -225h166c84 0 157.167 2 219.5 6s104.833 9.33301 127.5 16s39.334 16.667 50.001 30s23.667 49 39 107c3.33301 14.667 12 43.334 26 86.001l8 8
h59l7 -8l-67 -341l-11 -9c-106.667 2 -179.667 3 -219 3l-441 4c-101.333 0 -218.333 -2 -351 -6zM1074 1589c-36.667 0 -64.499 11.333 -83.499 34s-28.5 47.667 -28.5 75c0 42.667 16 80 48 112s69 48 111 48c35.333 0 62.666 -11.333 81.999 -34s29 -47.667 29 -75
c0 -38 -15.167 -74.167 -45.5 -108.5s-67.833 -51.5 -112.5 -51.5zM611.998 1589c-36.667 0 -64.499 11.333 -83.499 34s-28.5 47.667 -28.5 75c0 41.333 15.5 78.333 46.5 111s68.5 49 112.5 49c35.333 0 62.666 -11.333 81.999 -34s29 -47.667 29 -75
c0 -40.667 -16 -77.5 -48 -110.5s-68.667 -49.5 -110 -49.5z" />
    <glyph glyph-name="Igrave" unicode="&#xcc;" horiz-adv-x="797" 
d="M8 -7l-7 8.00195l6 50l9 9c6 0.666992 21.333 1.66699 46 3c56 2 89.5 6.66699 100.5 14s20.833 21.666 29.5 42.999s26.334 109 53.001 263l93 532c34.667 200.667 52 322.667 52 366c0 12 -2.16699 21.667 -6.5 29s-11.5 13 -21.5 17s-30.667 7 -62 9l-92 5l-7 8l8 54
l9 9c90.667 -4.66699 196 -7 316 -7c49.333 0 157.333 2.33301 324 7l6 -8l-9 -55l-9 -8c-76 -2.66699 -118.667 -5.33398 -128 -8.00098c-10.667 -3.33301 -19.5 -8 -26.5 -14s-13.167 -15.333 -18.5 -28c-8.66699 -21.333 -23.334 -86.333 -44.001 -195l-131 -759
c-18 -114 -27 -184.667 -27 -212c0 -21.333 7 -36.333 21 -45s35 -13.667 63 -15l104 -5l7 -8l-6 -50l-9 -9c-77.333 4.66699 -187 7 -329 7c-109.333 0 -214 -2.33301 -314 -7zM800 1569l-56.999 -28c-70.667 70 -198.334 181.667 -383.001 335l10 23l12 5l222 -27l13 -10
c36.667 -61.333 61.667 -102 75 -122l104 -163z" />
    <glyph glyph-name="Iacute" unicode="&#xcd;" horiz-adv-x="797" 
d="M8 -7l-7 8.00195l6 50l9 9c6 0.666992 21.333 1.66699 46 3c56 2 89.5 6.66699 100.5 14s20.833 21.666 29.5 42.999s26.334 109 53.001 263l93 532c34.667 200.667 52 322.667 52 366c0 12 -2.16699 21.667 -6.5 29s-11.5 13 -21.5 17s-30.667 7 -62 9l-92 5l-7 8l8 54
l9 9c90.667 -4.66699 196 -7 316 -7c49.333 0 157.333 2.33301 324 7l6 -8l-9 -55l-9 -8c-76 -2.66699 -118.667 -5.33398 -128 -8.00098c-10.667 -3.33301 -19.5 -8 -26.5 -14s-13.167 -15.333 -18.5 -28c-8.66699 -21.333 -23.334 -86.333 -44.001 -195l-131 -759
c-18 -114 -27 -184.667 -27 -212c0 -21.333 7 -36.333 21 -45s35 -13.667 63 -15l104 -5l7 -8l-6 -50l-9 -9c-77.333 4.66699 -187 7 -329 7c-109.333 0 -214 -2.33301 -314 -7zM987 1877c-178 -113.333 -336.667 -223.333 -476 -330l-51 27l7 13l144 169l93 112l15 10
l132 12l121 15l11 -5z" />
    <glyph glyph-name="Icircumflex" unicode="&#xce;" horiz-adv-x="797" 
d="M8 -7l-7 8.00195l6 50l9 9c6 0.666992 21.333 1.66699 46 3c56 2 89.5 6.66699 100.5 14s20.833 21.666 29.5 42.999s26.334 109 53.001 263l93 532c34.667 200.667 52 322.667 52 366c0 12 -2.16699 21.667 -6.5 29s-11.5 13 -21.5 17s-30.667 7 -62 9l-92 5l-7 8l8 54
l9 9c90.667 -4.66699 196 -7 316 -7c49.333 0 157.333 2.33301 324 7l6 -8l-9 -55l-9 -8c-76 -2.66699 -118.667 -5.33398 -128 -8.00098c-10.667 -3.33301 -19.5 -8 -26.5 -14s-13.167 -15.333 -18.5 -28c-8.66699 -21.333 -23.334 -86.333 -44.001 -195l-131 -759
c-18 -114 -27 -184.667 -27 -212c0 -21.333 7 -36.333 21 -45s35 -13.667 63 -15l104 -5l7 -8l-6 -50l-9 -9c-77.333 4.66699 -187 7 -329 7c-109.333 0 -214 -2.33301 -314 -7zM851 1550l-13 -12h-56l-193 213l-286 -213h-63l-10 14l315 352h141zM992 1646z" />
    <glyph glyph-name="Idieresis" unicode="&#xcf;" horiz-adv-x="797" 
d="M8 -7l-7 8.00195l6 50l9 9c6 0.666992 21.333 1.66699 46 3c56 2 89.5 6.66699 100.5 14s20.833 21.666 29.5 42.999s26.334 109 53.001 263l93 532c34.667 200.667 52 322.667 52 366c0 12 -2.16699 21.667 -6.5 29s-11.5 13 -21.5 17s-30.667 7 -62 9l-92 5l-7 8l8 54
l9 9c90.667 -4.66699 196 -7 316 -7c49.333 0 157.333 2.33301 324 7l6 -8l-9 -55l-9 -8c-76 -2.66699 -118.667 -5.33398 -128 -8.00098c-10.667 -3.33301 -19.5 -8 -26.5 -14s-13.167 -15.333 -18.5 -28c-8.66699 -21.333 -23.334 -86.333 -44.001 -195l-131 -759
c-18 -114 -27 -184.667 -27 -212c0 -21.333 7 -36.333 21 -45s35 -13.667 63 -15l104 -5l7 -8l-6 -50l-9 -9c-77.333 4.66699 -187 7 -329 7c-109.333 0 -214 -2.33301 -314 -7zM804 1589c-36.667 0 -64.499 11.333 -83.499 34s-28.5 47.667 -28.5 75c0 42.667 16 80 48 112
s69 48 111 48c35.333 0 62.666 -11.333 81.999 -34s29 -47.667 29 -75c0 -38 -15.167 -74.167 -45.5 -108.5s-67.833 -51.5 -112.5 -51.5zM342.001 1589c-36.667 0 -64.499 11.333 -83.499 34s-28.5 47.667 -28.5 75c0 41.333 15.5 78.333 46.5 111s68.5 49 112.5 49
c35.333 0 62.666 -11.333 81.999 -34s29 -47.667 29 -75c0 -40.667 -16 -77.5 -48 -110.5s-68.667 -49.5 -110 -49.5z" />
    <glyph glyph-name="Eth" unicode="&#xd0;" horiz-adv-x="1593" 
d="M279 690l-188.002 -0.00292969l-7 9l17 90l11 8h185c48 279.333 72 440.666 72 483.999c0 16.667 -4.16699 28.834 -12.5 36.501s-18.5 12.334 -30.5 14.001s-58.333 4.83398 -139 9.50098l-7 8l8 55l9 8c96 -4.66699 205 -7 327 -7l395 7
c155.333 0 277.333 -21.667 366 -65s154.167 -107 196.5 -191s63.5 -178 63.5 -282c0 -109.333 -19.833 -219.5 -59.5 -330.5s-96.167 -206.667 -169.5 -287s-159.166 -144.5 -257.499 -192.5s-210.166 -72 -335.499 -72c-34.667 0 -95.667 1.33301 -183 4
c-84 2.66699 -147.667 4 -191 4c-116 0 -216.333 -2 -301 -6l-7 7l7 53l10 9l29 8c32.667 7.33301 53.167 13.5 61.5 18.5s15 11.833 20 20.5s12 35.334 21 80.001s22.5 118.667 40.5 222zM529.998 689.997c-50 -282.667 -81.9961 -472.334 -95.9961 -569.001l140 -19
c64 -9.33301 118.667 -14 164 -14c74.667 0 136.667 10.167 186 30.5s92.666 51.833 129.999 94.5s70.666 94.334 99.999 155.001s55 139.167 77 235.5s33 193.5 33 291.5c0 62.667 -7.33301 118.667 -22 168s-33.834 90.333 -57.501 123s-52.834 59.334 -87.501 80.001
s-72 34.5 -112 41.5s-88.333 10.5 -145 10.5c-79.333 0 -146 -4 -200 -12c-5.33301 -44 -12.5 -87.833 -21.5 -131.5s-18.167 -91.834 -27.5 -144.501l-42 -233h346l7 -9l-24 -89l-11 -9h-337z" />
    <glyph glyph-name="Ntilde" unicode="&#xd1;" horiz-adv-x="1593" 
d="M1225 291c107.333 593.333 161 921 161 983c0 24 -8 40.333 -24 49s-36.167 13.5 -60.5 14.5s-54.166 2.83301 -89.499 5.5l-8 11l10 49l9 8h53c114.667 -4 185 -6 211 -6c21.333 0 86 2 194 6l9 -8l-4 -51l-11 -9c-60 -1.33301 -95.833 -3.33301 -107.5 -6
s-23.667 -12.334 -36 -29.001s-31.833 -92 -58.5 -226l-138 -709c-20.667 -107.333 -41 -237 -61 -389h-176l-635 1124c-108 -569.333 -162 -895 -162 -977c0 -27.333 9.33301 -45 28 -53s38.834 -12.5 60.501 -13.5s50.167 -2.83301 85.5 -5.5l6 -8l-8 -51l-8 -6h-53
c-129.333 4 -203.333 6 -222 6c-27.333 0 -89.333 -2.66699 -186 -8l-6 8l4 51l8 8c66 2.66699 103.667 6.16699 113 10.5s18.666 11.333 27.999 21s18.333 34.5 27 74.5l42 194c18.667 89.333 35 171.333 49 246l114 622c-35.333 53.333 -61.5 84 -78.5 92
s-71.5 16 -163.5 24l-6 9l6 51l13 8c57.333 -3.33301 105.666 -4.66602 144.999 -3.99902l283 4l182 -324zM1354 1858c-17.333 -82 -46.499 -143.833 -87.499 -185.5s-87.833 -62.5 -140.5 -62.5c-38.667 0 -101 17 -187 51c-81.333 32 -135 48 -161 48
c-50.667 0 -87.334 -33.667 -110.001 -101h-56l-12 13c42.667 164 119 246 229 246c44.667 0 115.667 -19 213 -57c66.667 -26 113.667 -39 141 -39c42 0 77 33 105 99h54z" />
    <glyph glyph-name="Ograve" unicode="&#xd2;" horiz-adv-x="1706" 
d="M153 531c0 52 7.33105 121.834 21.998 209.501s45 176.667 91 267s105.667 168.166 179 233.499s156 114 248 146s192.667 48 302 48c84.667 0 165.5 -11.167 242.5 -33.5s146.333 -60.833 208 -115.5s105.334 -119.5 131.001 -194.5s38.5 -159.167 38.5 -252.5
c0 -246 -76.833 -454.667 -230.5 -626s-359.5 -257 -617.5 -257c-130 0 -241.667 22.667 -335 68s-163.166 110.333 -209.499 195s-69.5 188.667 -69.5 312zM432.998 468.001c0 -86 12.8301 -161.001 38.4971 -225.001s70 -112.5 133 -145.5s131.167 -49.5 204.5 -49.5
c107.333 0 196 31.5 266 94.5s130.667 172.333 182 328s77 303.834 77 444.501c0 154 -34.167 263.5 -102.5 328.5s-156.833 97.5 -265.5 97.5c-101.333 0 -184.166 -23.5 -248.499 -70.5s-119.166 -120.833 -164.499 -221.5s-76.666 -204.667 -93.999 -312
s-26 -197 -26 -269zM1250 1569l-56.999 -28c-70.667 70 -198.334 181.667 -383.001 335l10 23l12 5l222 -27l13 -10c36.667 -61.333 61.667 -102 75 -122l104 -163z" />
    <glyph glyph-name="Oacute" unicode="&#xd3;" horiz-adv-x="1706" 
d="M153 531c0 52 7.33105 121.834 21.998 209.501s45 176.667 91 267s105.667 168.166 179 233.499s156 114 248 146s192.667 48 302 48c84.667 0 165.5 -11.167 242.5 -33.5s146.333 -60.833 208 -115.5s105.334 -119.5 131.001 -194.5s38.5 -159.167 38.5 -252.5
c0 -246 -76.833 -454.667 -230.5 -626s-359.5 -257 -617.5 -257c-130 0 -241.667 22.667 -335 68s-163.166 110.333 -209.499 195s-69.5 188.667 -69.5 312zM432.998 468.001c0 -86 12.8301 -161.001 38.4971 -225.001s70 -112.5 133 -145.5s131.167 -49.5 204.5 -49.5
c107.333 0 196 31.5 266 94.5s130.667 172.333 182 328s77 303.834 77 444.501c0 154 -34.167 263.5 -102.5 328.5s-156.833 97.5 -265.5 97.5c-101.333 0 -184.166 -23.5 -248.499 -70.5s-119.166 -120.833 -164.499 -221.5s-76.666 -204.667 -93.999 -312
s-26 -197 -26 -269zM1437 1877c-178 -113.333 -336.667 -223.333 -476 -330l-51 27l7 13l144 169l93 112l15 10l132 12l121 15l11 -5z" />
    <glyph glyph-name="Ocircumflex" unicode="&#xd4;" horiz-adv-x="1706" 
d="M153 531c0 52 7.33105 121.834 21.998 209.501s45 176.667 91 267s105.667 168.166 179 233.499s156 114 248 146s192.667 48 302 48c84.667 0 165.5 -11.167 242.5 -33.5s146.333 -60.833 208 -115.5s105.334 -119.5 131.001 -194.5s38.5 -159.167 38.5 -252.5
c0 -246 -76.833 -454.667 -230.5 -626s-359.5 -257 -617.5 -257c-130 0 -241.667 22.667 -335 68s-163.166 110.333 -209.499 195s-69.5 188.667 -69.5 312zM432.998 468.001c0 -86 12.8301 -161.001 38.4971 -225.001s70 -112.5 133 -145.5s131.167 -49.5 204.5 -49.5
c107.333 0 196 31.5 266 94.5s130.667 172.333 182 328s77 303.834 77 444.501c0 154 -34.167 263.5 -102.5 328.5s-156.833 97.5 -265.5 97.5c-101.333 0 -184.166 -23.5 -248.499 -70.5s-119.166 -120.833 -164.499 -221.5s-76.666 -204.667 -93.999 -312
s-26 -197 -26 -269zM1301 1550l-13 -12h-56l-193 213l-286 -213h-63l-10 14l315 352h141zM1442 1646z" />
    <glyph glyph-name="Otilde" unicode="&#xd5;" horiz-adv-x="1706" 
d="M153 531c0 52 7.33105 121.834 21.998 209.501s45 176.667 91 267s105.667 168.166 179 233.499s156 114 248 146s192.667 48 302 48c84.667 0 165.5 -11.167 242.5 -33.5s146.333 -60.833 208 -115.5s105.334 -119.5 131.001 -194.5s38.5 -159.167 38.5 -252.5
c0 -246 -76.833 -454.667 -230.5 -626s-359.5 -257 -617.5 -257c-130 0 -241.667 22.667 -335 68s-163.166 110.333 -209.499 195s-69.5 188.667 -69.5 312zM432.998 468.001c0 -86 12.8301 -161.001 38.4971 -225.001s70 -112.5 133 -145.5s131.167 -49.5 204.5 -49.5
c107.333 0 196 31.5 266 94.5s130.667 172.333 182 328s77 303.834 77 444.501c0 154 -34.167 263.5 -102.5 328.5s-156.833 97.5 -265.5 97.5c-101.333 0 -184.166 -23.5 -248.499 -70.5s-119.166 -120.833 -164.499 -221.5s-76.666 -204.667 -93.999 -312
s-26 -197 -26 -269zM1414 1858c-17.333 -82 -46.499 -143.833 -87.499 -185.5s-87.833 -62.5 -140.5 -62.5c-38.667 0 -101 17 -187 51c-81.333 32 -135 48 -161 48c-50.667 0 -87.334 -33.667 -110.001 -101h-56l-12 13c42.667 164 119 246 229 246
c44.667 0 115.667 -19 213 -57c66.667 -26 113.667 -39 141 -39c42 0 77 33 105 99h54z" />
    <glyph glyph-name="Odieresis" unicode="&#xd6;" horiz-adv-x="1706" 
d="M153 531c0 52 7.33105 121.834 21.998 209.501s45 176.667 91 267s105.667 168.166 179 233.499s156 114 248 146s192.667 48 302 48c84.667 0 165.5 -11.167 242.5 -33.5s146.333 -60.833 208 -115.5s105.334 -119.5 131.001 -194.5s38.5 -159.167 38.5 -252.5
c0 -246 -76.833 -454.667 -230.5 -626s-359.5 -257 -617.5 -257c-130 0 -241.667 22.667 -335 68s-163.166 110.333 -209.499 195s-69.5 188.667 -69.5 312zM432.998 468.001c0 -86 12.8301 -161.001 38.4971 -225.001s70 -112.5 133 -145.5s131.167 -49.5 204.5 -49.5
c107.333 0 196 31.5 266 94.5s130.667 172.333 182 328s77 303.834 77 444.501c0 154 -34.167 263.5 -102.5 328.5s-156.833 97.5 -265.5 97.5c-101.333 0 -184.166 -23.5 -248.499 -70.5s-119.166 -120.833 -164.499 -221.5s-76.666 -204.667 -93.999 -312
s-26 -197 -26 -269zM1254 1589c-36.667 0 -64.499 11.333 -83.499 34s-28.5 47.667 -28.5 75c0 42.667 16 80 48 112s69 48 111 48c35.333 0 62.666 -11.333 81.999 -34s29 -47.667 29 -75c0 -38 -15.167 -74.167 -45.5 -108.5s-67.833 -51.5 -112.5 -51.5zM791.996 1589
c-36.667 0 -64.499 11.333 -83.499 34s-28.5 47.667 -28.5 75c0 41.333 15.5 78.333 46.5 111s68.5 49 112.5 49c35.333 0 62.666 -11.333 81.999 -34s29 -47.667 29 -75c0 -40.667 -16 -77.5 -48 -110.5s-68.667 -49.5 -110 -49.5z" />
    <glyph glyph-name="multiply" unicode="&#xd7;" horiz-adv-x="1024" 
d="M927 294l-116 -116l-308 307l-307 -307l-116 116l307 307l-307 308l116 115l307 -307l308 307l116 -115l-308 -308z" />
    <glyph glyph-name="Oslash" unicode="&#xd8;" horiz-adv-x="1706" 
d="M279 139c-84 97.333 -126 224.667 -126 382c0 144 28.667 287 86 429s151.333 258.333 282 349s288.667 136 474 136c158.667 0 289.334 -34.667 392.001 -104l162 173l12 1l61 -59l1 -12l-156 -168c98.667 -96 148 -239 148 -429c0 -241.333 -76.333 -448.5 -229 -621.5
s-358.667 -259.5 -618 -259.5c-168.667 0 -306.334 38.333 -413.001 115l-171 -184l-12 -1l-62 58v13zM448 320.001l818.999 881c-29.333 42 -70 75.833 -122 101.5s-111.667 38.5 -179 38.5c-94.667 0 -173 -20.5 -235 -61.5s-116.667 -107.833 -164 -200.5
s-81.666 -197.5 -102.999 -314.5s-32 -215.833 -32 -296.5c0 -50.667 5.33301 -100 16 -148zM1311 1099l-825.001 -887.001c30 -54 75 -94.833 135 -122.5s122.333 -41.5 187 -41.5c112 0 203.333 33.833 274 101.5s130.334 179 179.001 334s73 295.5 73 421.5
c0 70.667 -7.66699 135.334 -23 194.001z" />
    <glyph glyph-name="Ugrave" unicode="&#xd9;" horiz-adv-x="1593" 
d="M1319 127c0 -22.667 5.66895 -38.1689 17.002 -46.502s31.666 -13.166 60.999 -14.499l108 -7l6 -8l-6 -49l-8 -10c-109.333 5.33301 -181.666 8 -216.999 8l-240 -4l-10 12c24.667 108.667 41 192.667 49 252c-114.667 -121.333 -209.334 -201.833 -284.001 -241.5
s-152 -59.5 -232 -59.5c-129.333 0 -222.5 31.5 -279.5 94.5s-85.5 135.5 -85.5 217.5c0 84.667 24.333 261.334 73 530.001s73 427 73 475c0 18.667 -5.83301 33.167 -17.5 43.5s-63.834 17.5 -156.501 21.5l-8 9l8 53l14 8c55.333 0 110 -0.666992 164 -2l162 -4
c42.667 0 87.667 2 135 6l12 -16c-12 -52 -27 -125.667 -45 -221l-61 -320l-59 -348c-14 -82 -21 -140.667 -21 -176c0 -68.667 22.167 -119 66.5 -151s96.5 -48 156.5 -48c50 0 98 10.833 144 32.5s93.5 54.167 142.5 97.5s80.333 76 94 98s25.5 63.333 35.5 124l102 623
c16.667 96 25 152.667 25 170c0 26.667 -8 43.167 -24 49.5s-69.333 11.5 -160 15.5l-6 9l8 53l10 8c104 -4 209 -6 315 -6c46 0 154 2 324 6l6 -6l-8 -55l-10 -11c-80 -2 -124.167 -4.16699 -132.5 -6.5s-17.333 -8 -27 -17s-20 -37.667 -31 -86
s-23.5 -112.833 -37.5 -193.5l-121 -700c-19.333 -111.333 -27.333 -181 -24 -209zM1210 1569l-56.999 -28c-70.667 70 -198.334 181.667 -383.001 335l10 23l12 5l222 -27l13 -10c36.667 -61.333 61.667 -102 75 -122l104 -163z" />
    <glyph glyph-name="Uacute" unicode="&#xda;" horiz-adv-x="1593" 
d="M1319 127c0 -22.667 5.66895 -38.1689 17.002 -46.502s31.666 -13.166 60.999 -14.499l108 -7l6 -8l-6 -49l-8 -10c-109.333 5.33301 -181.666 8 -216.999 8l-240 -4l-10 12c24.667 108.667 41 192.667 49 252c-114.667 -121.333 -209.334 -201.833 -284.001 -241.5
s-152 -59.5 -232 -59.5c-129.333 0 -222.5 31.5 -279.5 94.5s-85.5 135.5 -85.5 217.5c0 84.667 24.333 261.334 73 530.001s73 427 73 475c0 18.667 -5.83301 33.167 -17.5 43.5s-63.834 17.5 -156.501 21.5l-8 9l8 53l14 8c55.333 0 110 -0.666992 164 -2l162 -4
c42.667 0 87.667 2 135 6l12 -16c-12 -52 -27 -125.667 -45 -221l-61 -320l-59 -348c-14 -82 -21 -140.667 -21 -176c0 -68.667 22.167 -119 66.5 -151s96.5 -48 156.5 -48c50 0 98 10.833 144 32.5s93.5 54.167 142.5 97.5s80.333 76 94 98s25.5 63.333 35.5 124l102 623
c16.667 96 25 152.667 25 170c0 26.667 -8 43.167 -24 49.5s-69.333 11.5 -160 15.5l-6 9l8 53l10 8c104 -4 209 -6 315 -6c46 0 154 2 324 6l6 -6l-8 -55l-10 -11c-80 -2 -124.167 -4.16699 -132.5 -6.5s-17.333 -8 -27 -17s-20 -37.667 -31 -86
s-23.5 -112.833 -37.5 -193.5l-121 -700c-19.333 -111.333 -27.333 -181 -24 -209zM1397 1877c-178 -113.333 -336.667 -223.333 -476 -330l-51 27l7 13l144 169l93 112l15 10l132 12l121 15l11 -5z" />
    <glyph glyph-name="Ucircumflex" unicode="&#xdb;" horiz-adv-x="1593" 
d="M1319 127c0 -22.667 5.66895 -38.1689 17.002 -46.502s31.666 -13.166 60.999 -14.499l108 -7l6 -8l-6 -49l-8 -10c-109.333 5.33301 -181.666 8 -216.999 8l-240 -4l-10 12c24.667 108.667 41 192.667 49 252c-114.667 -121.333 -209.334 -201.833 -284.001 -241.5
s-152 -59.5 -232 -59.5c-129.333 0 -222.5 31.5 -279.5 94.5s-85.5 135.5 -85.5 217.5c0 84.667 24.333 261.334 73 530.001s73 427 73 475c0 18.667 -5.83301 33.167 -17.5 43.5s-63.834 17.5 -156.501 21.5l-8 9l8 53l14 8c55.333 0 110 -0.666992 164 -2l162 -4
c42.667 0 87.667 2 135 6l12 -16c-12 -52 -27 -125.667 -45 -221l-61 -320l-59 -348c-14 -82 -21 -140.667 -21 -176c0 -68.667 22.167 -119 66.5 -151s96.5 -48 156.5 -48c50 0 98 10.833 144 32.5s93.5 54.167 142.5 97.5s80.333 76 94 98s25.5 63.333 35.5 124l102 623
c16.667 96 25 152.667 25 170c0 26.667 -8 43.167 -24 49.5s-69.333 11.5 -160 15.5l-6 9l8 53l10 8c104 -4 209 -6 315 -6c46 0 154 2 324 6l6 -6l-8 -55l-10 -11c-80 -2 -124.167 -4.16699 -132.5 -6.5s-17.333 -8 -27 -17s-20 -37.667 -31 -86
s-23.5 -112.833 -37.5 -193.5l-121 -700c-19.333 -111.333 -27.333 -181 -24 -209zM1261 1550l-13 -12h-56l-193 213l-286 -213h-63l-10 14l315 352h141zM1402 1646z" />
    <glyph glyph-name="Udieresis" unicode="&#xdc;" horiz-adv-x="1593" 
d="M1319 127c0 -22.667 5.66895 -38.1689 17.002 -46.502s31.666 -13.166 60.999 -14.499l108 -7l6 -8l-6 -49l-8 -10c-109.333 5.33301 -181.666 8 -216.999 8l-240 -4l-10 12c24.667 108.667 41 192.667 49 252c-114.667 -121.333 -209.334 -201.833 -284.001 -241.5
s-152 -59.5 -232 -59.5c-129.333 0 -222.5 31.5 -279.5 94.5s-85.5 135.5 -85.5 217.5c0 84.667 24.333 261.334 73 530.001s73 427 73 475c0 18.667 -5.83301 33.167 -17.5 43.5s-63.834 17.5 -156.501 21.5l-8 9l8 53l14 8c55.333 0 110 -0.666992 164 -2l162 -4
c42.667 0 87.667 2 135 6l12 -16c-12 -52 -27 -125.667 -45 -221l-61 -320l-59 -348c-14 -82 -21 -140.667 -21 -176c0 -68.667 22.167 -119 66.5 -151s96.5 -48 156.5 -48c50 0 98 10.833 144 32.5s93.5 54.167 142.5 97.5s80.333 76 94 98s25.5 63.333 35.5 124l102 623
c16.667 96 25 152.667 25 170c0 26.667 -8 43.167 -24 49.5s-69.333 11.5 -160 15.5l-6 9l8 53l10 8c104 -4 209 -6 315 -6c46 0 154 2 324 6l6 -6l-8 -55l-10 -11c-80 -2 -124.167 -4.16699 -132.5 -6.5s-17.333 -8 -27 -17s-20 -37.667 -31 -86
s-23.5 -112.833 -37.5 -193.5l-121 -700c-19.333 -111.333 -27.333 -181 -24 -209zM1214 1589c-36.667 0 -64.499 11.333 -83.499 34s-28.5 47.667 -28.5 75c0 42.667 16 80 48 112s69 48 111 48c35.333 0 62.666 -11.333 81.999 -34s29 -47.667 29 -75
c0 -38 -15.167 -74.167 -45.5 -108.5s-67.833 -51.5 -112.5 -51.5zM752.003 1589c-36.667 0 -64.499 11.333 -83.499 34s-28.5 47.667 -28.5 75c0 41.333 15.5 78.333 46.5 111s68.5 49 112.5 49c35.333 0 62.666 -11.333 81.999 -34s29 -47.667 29 -75
c0 -40.667 -16 -77.5 -48 -110.5s-68.667 -49.5 -110 -49.5z" />
    <glyph glyph-name="Yacute" unicode="&#xdd;" horiz-adv-x="1251" 
d="M297 60c8.66699 0.666992 24.001 1.66699 46.001 3c50.667 2 81.5 5.5 92.5 10.5s20.833 14.667 29.5 29s18.667 51.166 30 110.499l34 179c11.333 59.333 17 96.666 17 111.999c0 38 -20.833 128.167 -62.5 270.5s-78.5 245.5 -110.5 309.5s-62.667 105.167 -92 123.5
s-60.666 27.5 -93.999 27.5c-20 0 -41 -5.66699 -63 -17l-9 9v45l8 14c36 26 68.667 51.667 98 77c45.333 40 70 61 74 63c28.667 4 48.667 6 60 6c32.667 0 65.167 -7.16699 97.5 -21.5s65 -45.166 98 -92.499s64.5 -119.333 94.5 -216s56.333 -201.667 79 -315
c19.333 -93.333 31 -148.333 35 -165c34.667 82.667 63.5 147.5 86.5 194.5s57.5 108.833 103.5 185.5s94.333 146.5 145 209.5s92.167 107.5 124.5 133.5s60.5 43.5 84.5 52.5s49 13.833 75 14.5l-12 -186c-38.667 -7.33301 -74.334 -21.333 -107.001 -42
c-42.667 -27.333 -90.834 -72.5 -144.501 -135.5s-106.334 -140.167 -158.001 -231.5s-89.667 -168.166 -114 -230.499s-45.5 -147 -63.5 -254s-27 -175.833 -27 -206.5c0 -22 7.33301 -37.333 22 -46s34.334 -13.667 59.001 -15l107 -5l7 -8l-6 -50l-9 -9
c-77.333 4.66699 -187 7 -329 7c-104 0 -208.667 -2.33301 -314 -7l-7 8l5 50zM1277 1877c-178 -113.333 -336.667 -223.333 -476 -330l-51 27l7 13l144 169l93 112l15 10l132 12l121 15l11 -5z" />
    <glyph glyph-name="Thorn" unicode="&#xde;" horiz-adv-x="1366" 
d="M886 1412l5.99902 -8l-9 -55l-9 -8l-94 -4c-26.667 -2 -45.334 -6.83301 -56.001 -14.5s-19.5 -21.5 -26.5 -41.5s-19.167 -75.667 -36.5 -167l245 5c104.667 0 186.334 -11.833 245.001 -35.5s101.5 -61 128.5 -112s40.5 -107.167 40.5 -168.5
c0 -126 -52.333 -243.167 -157 -351.5s-221 -162.5 -349 -162.5c-50 0 -111.333 12.333 -184 37l-7 10v51l10 9c40.667 -14 79 -21 115 -21c62.667 0 115.167 17 157.5 51s76.833 82.667 103.5 146s40 132.666 40 207.999c0 62.667 -11.167 111.834 -33.5 147.501
s-52.833 61.667 -91.5 78s-86.334 24.5 -143.001 24.5c-23.333 0 -68.666 -1.66699 -135.999 -5l-95 -545c-13.333 -76.667 -24.333 -145 -33 -205l-15 -110c-2 -13.333 -3 -26.666 -3 -39.999c0 -21.333 7 -36.333 21 -45s35 -13.667 63 -15l104 -5l7 -8l-6 -50l-9 -9
c-77.333 4.66699 -187 7 -329 7c-109.333 0 -214 -2.33301 -314 -7l-7 8l6 50l9 9c6 0.666992 21.333 1.66699 46 3c56 2 89.5 6.66699 100.5 14s20.833 21.666 29.5 42.999s26.334 109 53.001 263l93 532c34.667 200.667 52 322.667 52 366c0 12 -2.16699 21.667 -6.5 29
s-11.5 13 -21.5 17s-30.667 7 -62 9l-92 5l-7 8l8 54l9 9c90.667 -4.66699 196 -7 316 -7c49.333 0 157.333 2.33301 324 7z" />
    <glyph glyph-name="germandbls" unicode="&#xdf;" 
d="M287 952c1.33301 2.66699 6.67188 24.6641 16.0049 65.9971c9.33301 42 17.5 71.833 24.5 89.5s22.333 41.334 46 71.001s64.667 68.667 123 117s112.333 87.5 162 117.5s93.334 50.833 131.001 62.5s76.167 17.5 115.5 17.5c61.333 0 114 -21.167 158 -63.5
s66 -95.166 66 -158.499c0 -36.667 -7.16699 -74 -21.5 -112s-33.833 -72.333 -58.5 -103s-58.667 -67.667 -102 -111c-63.333 -62.667 -95 -114 -95 -154c0 -24 6.33301 -48.167 19 -72.5s31.667 -52.833 57 -85.5c46 -58 76.667 -98.167 92 -120.5
s27.166 -45.166 35.499 -68.499s12.5 -47.333 12.5 -72c0 -67.333 -22 -130.5 -66 -189.5s-95.833 -111.333 -155.5 -157s-122.834 -68.5 -189.501 -68.5c-62.667 0 -126.334 15 -191.001 45l56 232l8 8h35l7 -8v-95c42.667 -47.333 95 -71 157 -71
c48 0 85.5 14.333 112.5 43s40.5 61 40.5 97c0 31.333 -7.5 61.833 -22.5 91.5s-51.833 87.167 -110.5 172.5c-24 34.667 -44 66.834 -60 96.501s-24 57.834 -24 84.501s6.66699 52.834 20 78.501s33.666 55.167 60.999 88.5c62 76 102.5 127.667 121.5 155
s35.333 61.166 49 101.499s20.5 81.833 20.5 124.5c0 54 -15.833 95.167 -47.5 123.5s-70.167 42.5 -115.5 42.5c-37.333 0 -70.833 -9 -100.5 -27s-52 -41 -67 -69s-28.333 -65 -40 -111s-39.167 -172.333 -82.5 -379c-46.667 -218.667 -93 -417.167 -139 -595.5
s-89.333 -309 -130 -392s-91.667 -155.833 -153 -218.5s-117 -106 -167 -130c-30.667 -14.667 -59.667 -22 -87 -22c-24 0 -49.333 6 -76 18c32 82.667 54 156.667 66 222l32 6c26 -60.667 59.333 -91 100 -91c14 0 27.5 3.5 40.5 10.5s25.167 18.5 36.5 34.5
s25.5 57 42.5 123s37.5 162.333 61.5 289l74 387l78 409c-38 1.33301 -68.333 2 -91 2c-34.667 0 -65.334 -0.666992 -92.001 -2l-7 9l7 36l11 11c15.333 5.33301 45.666 14.666 90.999 27.999s80.333 25.666 105 36.999z" />
    <glyph glyph-name="agrave" unicode="&#xe0;" 
d="M1042 213l21.999 -38.9961l-4 -13c-120.667 -88.667 -203.5 -145.334 -248.5 -170.001s-82.5 -37 -112.5 -37c-21.333 0 -38.166 9 -50.499 27s-18.5 40.667 -18.5 68c0 28 5.33301 68.667 16 122s33.667 150.333 69 291c-112 -192 -212.667 -324.833 -302 -398.5
s-162.333 -110.5 -219 -110.5c-30.667 0 -57.167 13.667 -79.5 41s-33.5 76.666 -33.5 147.999c0 62.667 9.33301 135.667 28 219s45 167.666 79 252.999c17.333 42.667 37.833 77.167 61.5 103.5s74.834 68.166 153.501 125.499s134.5 92 167.5 104s70.167 18 111.5 18
c29.333 0 64 -4.5 104 -13.5s76.667 -22.167 110 -39.5l92 54l33 -24c-16.667 -39.333 -37 -112 -61 -218l-74 -338c-26 -120 -39 -193.333 -39 -220c0 -26 8.66699 -39 26 -39c21.333 0 73.666 28.667 156.999 86h12zM760.999 810.004c-59.333 30 -114 45.001 -164 45.001
c-52 0 -94 -20.667 -126 -62s-66.667 -133.333 -104 -276s-56 -248.334 -56 -317.001c0 -50 13.333 -75 40 -75c28 0 78 42 150 126s131.167 177 177.5 279s73.833 195.333 82.5 280zM961.999 1119l-57 -28l-123 118l-148 134l-154 131l10 23l12 5l222 -27l13 -10
c41.333 -66.667 115 -177.667 221 -333z" />
    <glyph glyph-name="aacute" unicode="&#xe1;" 
d="M1042 213l21.999 -38.9961l-4 -13c-120.667 -88.667 -203.5 -145.334 -248.5 -170.001s-82.5 -37 -112.5 -37c-21.333 0 -38.166 9 -50.499 27s-18.5 40.667 -18.5 68c0 28 5.33301 68.667 16 122s33.667 150.333 69 291c-112 -192 -212.667 -324.833 -302 -398.5
s-162.333 -110.5 -219 -110.5c-30.667 0 -57.167 13.667 -79.5 41s-33.5 76.666 -33.5 147.999c0 62.667 9.33301 135.667 28 219s45 167.666 79 252.999c17.333 42.667 37.833 77.167 61.5 103.5s74.834 68.166 153.501 125.499s134.5 92 167.5 104s70.167 18 111.5 18
c29.333 0 64 -4.5 104 -13.5s76.667 -22.167 110 -39.5l92 54l33 -24c-16.667 -39.333 -37 -112 -61 -218l-74 -338c-26 -120 -39 -193.333 -39 -220c0 -26 8.66699 -39 26 -39c21.333 0 73.666 28.667 156.999 86h12zM760.999 810.004c-59.333 30 -114 45.001 -164 45.001
c-52 0 -94 -20.667 -126 -62s-66.667 -133.333 -104 -276s-56 -248.334 -56 -317.001c0 -50 13.333 -75 40 -75c28 0 78 42 150 126s131.167 177 177.5 279s73.833 195.333 82.5 280zM1125 1474c-232.667 -160 -410.333 -287.333 -533 -382l-52 27l7 13l165 188l130 145
l15 10l132 12l121 15l10 -5z" />
    <glyph glyph-name="acircumflex" unicode="&#xe2;" 
d="M1042 213l21.999 -38.9961l-4 -13c-120.667 -88.667 -203.5 -145.334 -248.5 -170.001s-82.5 -37 -112.5 -37c-21.333 0 -38.166 9 -50.499 27s-18.5 40.667 -18.5 68c0 28 5.33301 68.667 16 122s33.667 150.333 69 291c-112 -192 -212.667 -324.833 -302 -398.5
s-162.333 -110.5 -219 -110.5c-30.667 0 -57.167 13.667 -79.5 41s-33.5 76.666 -33.5 147.999c0 62.667 9.33301 135.667 28 219s45 167.666 79 252.999c17.333 42.667 37.833 77.167 61.5 103.5s74.834 68.166 153.501 125.499s134.5 92 167.5 104s70.167 18 111.5 18
c29.333 0 64 -4.5 104 -13.5s76.667 -22.167 110 -39.5l92 54l33 -24c-16.667 -39.333 -37 -112 -61 -218l-74 -338c-26 -120 -39 -193.333 -39 -220c0 -26 8.66699 -39 26 -39c21.333 0 73.666 28.667 156.999 86h12zM760.999 810.004c-59.333 30 -114 45.001 -164 45.001
c-52 0 -94 -20.667 -126 -62s-66.667 -133.333 -104 -276s-56 -248.334 -56 -317.001c0 -50 13.333 -75 40 -75c28 0 78 42 150 126s131.167 177 177.5 279s73.833 195.333 82.5 280zM1024 1121l-9 -11h-55l-198 219l-291 -219h-63l-8 11l318 361h141zM1160 1222z" />
    <glyph glyph-name="atilde" unicode="&#xe3;" 
d="M1042 213l21.999 -38.9961l-4 -13c-120.667 -88.667 -203.5 -145.334 -248.5 -170.001s-82.5 -37 -112.5 -37c-21.333 0 -38.166 9 -50.499 27s-18.5 40.667 -18.5 68c0 28 5.33301 68.667 16 122s33.667 150.333 69 291c-112 -192 -212.667 -324.833 -302 -398.5
s-162.333 -110.5 -219 -110.5c-30.667 0 -57.167 13.667 -79.5 41s-33.5 76.666 -33.5 147.999c0 62.667 9.33301 135.667 28 219s45 167.666 79 252.999c17.333 42.667 37.833 77.167 61.5 103.5s74.834 68.166 153.501 125.499s134.5 92 167.5 104s70.167 18 111.5 18
c29.333 0 64 -4.5 104 -13.5s76.667 -22.167 110 -39.5l92 54l33 -24c-16.667 -39.333 -37 -112 -61 -218l-74 -338c-26 -120 -39 -193.333 -39 -220c0 -26 8.66699 -39 26 -39c21.333 0 73.666 28.667 156.999 86h12zM760.999 810.004c-59.333 30 -114 45.001 -164 45.001
c-52 0 -94 -20.667 -126 -62s-66.667 -133.333 -104 -276s-56 -248.334 -56 -317.001c0 -50 13.333 -75 40 -75c28 0 78 42 150 126s131.167 177 177.5 279s73.833 195.333 82.5 280zM1079 1374c-14 -64.667 -40.166 -117.668 -78.499 -159.001s-83.833 -62 -136.5 -62
c-34.667 0 -91 15.333 -169 46c-74.667 29.333 -123.334 44 -146.001 44c-46 0 -79.333 -30.667 -100 -92h-58l-11 13c15.333 68.667 42 122.834 80 162.501s83 59.5 135 59.5c40 0 104.333 -17.333 193 -52c60 -23.333 102.667 -35 128 -35c38 0 69.667 30 95 90h56z" />
    <glyph glyph-name="adieresis" unicode="&#xe4;" 
d="M1042 213l21.999 -38.9961l-4 -13c-120.667 -88.667 -203.5 -145.334 -248.5 -170.001s-82.5 -37 -112.5 -37c-21.333 0 -38.166 9 -50.499 27s-18.5 40.667 -18.5 68c0 28 5.33301 68.667 16 122s33.667 150.333 69 291c-112 -192 -212.667 -324.833 -302 -398.5
s-162.333 -110.5 -219 -110.5c-30.667 0 -57.167 13.667 -79.5 41s-33.5 76.666 -33.5 147.999c0 62.667 9.33301 135.667 28 219s45 167.666 79 252.999c17.333 42.667 37.833 77.167 61.5 103.5s74.834 68.166 153.501 125.499s134.5 92 167.5 104s70.167 18 111.5 18
c29.333 0 64 -4.5 104 -13.5s76.667 -22.167 110 -39.5l92 54l33 -24c-16.667 -39.333 -37 -112 -61 -218l-74 -338c-26 -120 -39 -193.333 -39 -220c0 -26 8.66699 -39 26 -39c21.333 0 73.666 28.667 156.999 86h12zM760.999 810.004c-59.333 30 -114 45.001 -164 45.001
c-52 0 -94 -20.667 -126 -62s-66.667 -133.333 -104 -276s-56 -248.334 -56 -317.001c0 -50 13.333 -75 40 -75c28 0 78 42 150 126s131.167 177 177.5 279s73.833 195.333 82.5 280zM939.999 1139c-30.667 0 -55.168 9.66602 -73.501 28.999s-27.5 42.333 -27.5 69
c0 38 14.333 71.833 43 101.5s62.667 44.5 102 44.5c29.333 0 53.333 -9.66699 72 -29s28 -42.666 28 -69.999c0 -37.333 -14.667 -70.833 -44 -100.5s-62.666 -44.5 -99.999 -44.5zM520.998 1139c-33.333 0 -58.5 10.166 -75.5 30.499s-25.5 42.833 -25.5 67.5
c0 39.333 14.667 73.5 44 102.5s63 43.5 101 43.5c29.333 0 53.333 -9.66699 72 -29s28 -42.666 28 -69.999c0 -35.333 -14 -68.333 -42 -99s-62 -46 -102 -46z" />
    <glyph glyph-name="aring" unicode="&#xe5;" 
d="M1042 213l21.999 -38.9961l-4 -13c-120.667 -88.667 -203.5 -145.334 -248.5 -170.001s-82.5 -37 -112.5 -37c-21.333 0 -38.166 9 -50.499 27s-18.5 40.667 -18.5 68c0 28 5.33301 68.667 16 122s33.667 150.333 69 291c-112 -192 -212.667 -324.833 -302 -398.5
s-162.333 -110.5 -219 -110.5c-30.667 0 -57.167 13.667 -79.5 41s-33.5 76.666 -33.5 147.999c0 62.667 9.33301 135.667 28 219s45 167.666 79 252.999c17.333 42.667 37.833 77.167 61.5 103.5s74.834 68.166 153.501 125.499s134.5 92 167.5 104s70.167 18 111.5 18
c29.333 0 64 -4.5 104 -13.5s76.667 -22.167 110 -39.5l92 54l33 -24c-16.667 -39.333 -37 -112 -61 -218l-74 -338c-26 -120 -39 -193.333 -39 -220c0 -26 8.66699 -39 26 -39c21.333 0 73.666 28.667 156.999 86h12zM760.999 810.004c-59.333 30 -114 45.001 -164 45.001
c-52 0 -94 -20.667 -126 -62s-66.667 -133.333 -104 -276s-56 -248.334 -56 -317.001c0 -50 13.333 -75 40 -75c28 0 78 42 150 126s131.167 177 177.5 279s73.833 195.333 82.5 280zM950.999 1291c0 -53.333 -20.834 -99.499 -62.501 -138.499s-91.167 -58.5 -148.5 -58.5
c-61.333 0 -106.666 17.333 -135.999 52s-44 73 -44 115c0 54 20.833 100.5 62.5 139.5s91.5 58.5 149.5 58.5c55.333 0 99 -15.833 131 -47.5s48 -71.834 48 -120.501zM863.998 1292.01c0 31.333 -8 58.833 -24 82.5s-40 35.5 -72 35.5
c-38.667 0 -68.334 -15.333 -89.001 -46s-31 -64.667 -31 -102c0 -30.667 7.83301 -58.167 23.5 -82.5s39.834 -36.5 72.501 -36.5c38 0 67.5 15.333 88.5 46s31.5 65 31.5 103z" />
    <glyph glyph-name="ae" unicode="&#xe6;" horiz-adv-x="1511" 
d="M1350 229l22.0029 -38.9961l-3 -14c-92 -64.667 -179.167 -117.667 -261.5 -159s-157.833 -62 -226.5 -62c-57.333 0 -107 15 -149 45s-73 77 -93 141c-66.667 -62.667 -128.167 -109.834 -184.5 -141.501s-115.166 -47.5 -176.499 -47.5c-68 0 -119.167 20 -153.5 60
s-51.5 90.333 -51.5 151c0 63.333 17.5 124.666 52.5 183.999s91.167 103.166 168.5 131.499s186 42.5 326 42.5c11.333 0 29.333 -0.666992 54 -2c4.66699 38 7 71 7 99c0 50.667 -9.66699 93.667 -29 129s-45.333 61.833 -78 79.5s-74.667 26.5 -126 26.5
c-42.667 0 -84.334 -5.33301 -125.001 -16l-49 -131l-12 -6l-28 6l-15 156c60 49.333 115.5 81.166 166.5 95.499s99.833 21.5 146.5 21.5c78 0 141 -18.333 189 -55s80 -86.667 96 -150c60 54.667 128.167 102.667 204.5 144s148.166 62 215.499 62
c58 0 105.833 -14.167 143.5 -42.5s56.5 -72.833 56.5 -133.5c0 -62.667 -18.333 -118 -55 -166s-105 -88.667 -205 -122s-198 -54.333 -294 -63c-13.333 -62.667 -20 -120 -20 -172c0 -68.667 14.833 -116 44.5 -142s64.5 -39 104.5 -39c43.333 0 95.666 12.333 156.999 37
s117.666 55.667 168.999 93zM894.003 511.004c35.333 4.66699 72.666 12.668 111.999 24.001s72 24 98 38s49.667 32.167 71 54.5s38 47.666 50 75.999s18 54.833 18 79.5c0 26.667 -8 49.167 -24 67.5s-41 27.5 -75 27.5c-115.333 0 -198.666 -122.333 -249.999 -367z
M667.003 456.005l-67 1c-104 0 -182.667 -22 -236 -66s-80 -96.333 -80 -157c0 -34.667 10 -64.5 30 -89.5s50.667 -37.5 92 -37.5c47.333 0 91 14.5 131 43.5s69.167 64.667 87.5 107s32.5 108.5 42.5 198.5z" />
    <glyph glyph-name="ccedilla" unicode="&#xe7;" horiz-adv-x="909" 
d="M234 -200l103.994 154.001c-52 0 -99.333 13 -142 39s-72.667 60.833 -90 104.5s-26 89.5 -26 137.5c0 60 6.83301 123.667 20.5 191s31 125.833 52 175.5s41.333 86.834 61 111.501s42.667 46.667 69 66s73.166 49.666 140.499 90.999
c48.667 31.333 82 51.666 100 60.999s41.333 17.5 70 24.5s59.334 10.5 92.001 10.5c62.667 0 133.334 -16.333 212.001 -49l3 -11c-10 -24 -22.167 -66.167 -36.5 -126.5s-23.833 -109.166 -28.5 -146.499l-11 -9h-51l-7 9c5.33301 36 8 69 8 99c0 6 -0.333008 16 -1 30
c-57.333 50 -118.666 75 -183.999 75c-47.333 0 -84.666 -8.83301 -111.999 -26.5s-50.166 -43.834 -68.499 -78.501s-38.666 -98.5 -60.999 -191.5s-33.5 -175.833 -33.5 -248.5c0 -60 13.667 -108.333 41 -145s65 -55 113 -55c39.333 0 83.166 8.83301 131.499 26.5
s114.833 54.5 199.5 110.5h11l23 -42l-3 -12c-69.333 -50 -138.333 -94.5 -207 -133.5s-134 -65.167 -196 -78.5l-68 -103c13.333 3.33301 29 5 47 5c63.333 0 109.666 -14.833 138.999 -44.5s44 -61.834 44 -96.501c0 -51.333 -22.333 -94.666 -67 -129.999
s-107 -53 -187 -53c-71.333 0 -138.666 15 -201.999 45l-3 12l29 47l12 6c48.667 -20 94.334 -30 137.001 -30c32.667 0 59 8 79 24s30 37 30 63c0 24 -8.66699 43 -26 57s-39.666 21 -66.999 21c-19.333 0 -42 -3.33301 -68 -10z" />
    <glyph glyph-name="egrave" unicode="&#xe8;" horiz-adv-x="909" 
d="M775 228l22.9951 -41l-3 -12c-117.333 -83.333 -212.166 -140.5 -284.499 -171.5s-136.166 -46.5 -191.499 -46.5c-48.667 0 -94.334 10.333 -137.001 31s-73.167 50.5 -91.5 89.5s-27.5 80.167 -27.5 123.5c0 72 13.833 164.333 41.5 277
s62.834 196.334 105.501 251.001s111.834 109.334 207.501 164.001s177.834 82 246.501 82c58 0 105.333 -14.833 142 -44.5s55 -72.167 55 -127.5c0 -68 -20.333 -129.5 -61 -184.5s-108.167 -101.333 -202.5 -139s-191.166 -64.834 -290.499 -81.501
c-7.33301 -48.667 -11 -93.334 -11 -134.001c0 -65.333 15.5 -109.833 46.5 -133.5s65.5 -35.5 103.5 -35.5c27.333 0 58.666 5.16699 93.999 15.5s64.833 22 88.5 35s68.834 40.833 135.501 83.5zM314.995 453c138.667 30.667 232 78.167 280 142.5s72 124.5 72 180.5
c0 32 -9.33301 56.833 -28 74.5s-41.667 26.5 -69 26.5c-54.667 0 -102 -28.833 -142 -86.5s-77.667 -170.167 -113 -337.5zM831.995 1119l-57 -28l-123 118l-148 134l-154 131l10 23l12 5l222 -27l13 -10c41.333 -66.667 115 -177.667 221 -333z" />
    <glyph glyph-name="eacute" unicode="&#xe9;" horiz-adv-x="909" 
d="M775 228l22.9951 -41l-3 -12c-117.333 -83.333 -212.166 -140.5 -284.499 -171.5s-136.166 -46.5 -191.499 -46.5c-48.667 0 -94.334 10.333 -137.001 31s-73.167 50.5 -91.5 89.5s-27.5 80.167 -27.5 123.5c0 72 13.833 164.333 41.5 277
s62.834 196.334 105.501 251.001s111.834 109.334 207.501 164.001s177.834 82 246.501 82c58 0 105.333 -14.833 142 -44.5s55 -72.167 55 -127.5c0 -68 -20.333 -129.5 -61 -184.5s-108.167 -101.333 -202.5 -139s-191.166 -64.834 -290.499 -81.501
c-7.33301 -48.667 -11 -93.334 -11 -134.001c0 -65.333 15.5 -109.833 46.5 -133.5s65.5 -35.5 103.5 -35.5c27.333 0 58.666 5.16699 93.999 15.5s64.833 22 88.5 35s68.834 40.833 135.501 83.5zM314.995 453c138.667 30.667 232 78.167 280 142.5s72 124.5 72 180.5
c0 32 -9.33301 56.833 -28 74.5s-41.667 26.5 -69 26.5c-54.667 0 -102 -28.833 -142 -86.5s-77.667 -170.167 -113 -337.5zM1065 1474c-232.667 -160 -410.333 -287.333 -533 -382l-52 27l7 13l165 188l130 145l15 10l132 12l121 15l10 -5z" />
    <glyph glyph-name="ecircumflex" unicode="&#xea;" horiz-adv-x="909" 
d="M775 228l22.9951 -41l-3 -12c-117.333 -83.333 -212.166 -140.5 -284.499 -171.5s-136.166 -46.5 -191.499 -46.5c-48.667 0 -94.334 10.333 -137.001 31s-73.167 50.5 -91.5 89.5s-27.5 80.167 -27.5 123.5c0 72 13.833 164.333 41.5 277
s62.834 196.334 105.501 251.001s111.834 109.334 207.501 164.001s177.834 82 246.501 82c58 0 105.333 -14.833 142 -44.5s55 -72.167 55 -127.5c0 -68 -20.333 -129.5 -61 -184.5s-108.167 -101.333 -202.5 -139s-191.166 -64.834 -290.499 -81.501
c-7.33301 -48.667 -11 -93.334 -11 -134.001c0 -65.333 15.5 -109.833 46.5 -133.5s65.5 -35.5 103.5 -35.5c27.333 0 58.666 5.16699 93.999 15.5s64.833 22 88.5 35s68.834 40.833 135.501 83.5zM314.995 453c138.667 30.667 232 78.167 280 142.5s72 124.5 72 180.5
c0 32 -9.33301 56.833 -28 74.5s-41.667 26.5 -69 26.5c-54.667 0 -102 -28.833 -142 -86.5s-77.667 -170.167 -113 -337.5zM893.995 1121l-9 -11h-55l-198 219l-291 -219h-63l-8 11l318 361h141zM1030 1222z" />
    <glyph glyph-name="edieresis" unicode="&#xeb;" horiz-adv-x="909" 
d="M775 228l22.9951 -41l-3 -12c-117.333 -83.333 -212.166 -140.5 -284.499 -171.5s-136.166 -46.5 -191.499 -46.5c-48.667 0 -94.334 10.333 -137.001 31s-73.167 50.5 -91.5 89.5s-27.5 80.167 -27.5 123.5c0 72 13.833 164.333 41.5 277
s62.834 196.334 105.501 251.001s111.834 109.334 207.501 164.001s177.834 82 246.501 82c58 0 105.333 -14.833 142 -44.5s55 -72.167 55 -127.5c0 -68 -20.333 -129.5 -61 -184.5s-108.167 -101.333 -202.5 -139s-191.166 -64.834 -290.499 -81.501
c-7.33301 -48.667 -11 -93.334 -11 -134.001c0 -65.333 15.5 -109.833 46.5 -133.5s65.5 -35.5 103.5 -35.5c27.333 0 58.666 5.16699 93.999 15.5s64.833 22 88.5 35s68.834 40.833 135.501 83.5zM314.995 453c138.667 30.667 232 78.167 280 142.5s72 124.5 72 180.5
c0 32 -9.33301 56.833 -28 74.5s-41.667 26.5 -69 26.5c-54.667 0 -102 -28.833 -142 -86.5s-77.667 -170.167 -113 -337.5zM809.995 1139c-30.667 0 -55.168 9.66602 -73.501 28.999s-27.5 42.333 -27.5 69c0 38 14.333 71.833 43 101.5s62.667 44.5 102 44.5
c29.333 0 53.333 -9.66699 72 -29s28 -42.666 28 -69.999c0 -37.333 -14.667 -70.833 -44 -100.5s-62.666 -44.5 -99.999 -44.5zM390.994 1139c-33.333 0 -58.5 10.166 -75.5 30.499s-25.5 42.833 -25.5 67.5c0 39.333 14.667 73.5 44 102.5s63 43.5 101 43.5
c29.333 0 53.333 -9.66699 72 -29s28 -42.666 28 -69.999c0 -35.333 -14 -68.333 -42 -99s-62 -46 -102 -46z" />
    <glyph glyph-name="igrave" unicode="&#xec;" horiz-adv-x="682" 
d="M79 679l-20 35.001l2 13c117.333 91.333 208.833 156 274.5 194s116.834 57 153.501 57c16.667 0 31 -7.16699 43 -21.5s18 -32.5 18 -54.5c0 -29.333 -5.16699 -66.333 -15.5 -111s-32.166 -129.334 -65.499 -254.001c-58 -214.667 -87 -339 -87 -373
c0 -9.33301 2.83301 -17.5 8.5 -24.5s12.167 -10.5 19.5 -10.5c20 0 73.333 31 160 93l12 -1l22 -40l-4 -13l-167 -114.5c-64.667 -43 -110.834 -69.833 -138.501 -80.5s-51.834 -16 -72.501 -16c-26 0 -45.333 9.66699 -58 29s-19 44.333 -19 75s3.83301 65.5 11.5 104.5
s24.167 106.5 49.5 202.5c56 214 84 340 84 378c0 18.667 -7.66699 28 -23 28c-25.333 0 -83.333 -32 -174 -96zM712 1119l-57 -28l-123 118l-148 134l-154 131l10 23l12 5l222 -27l13 -10c41.333 -66.667 115 -177.667 221 -333z" />
    <glyph glyph-name="iacute" unicode="&#xed;" horiz-adv-x="682" 
d="M79 679l-20 35.001l2 13c117.333 91.333 208.833 156 274.5 194s116.834 57 153.501 57c16.667 0 31 -7.16699 43 -21.5s18 -32.5 18 -54.5c0 -29.333 -5.16699 -66.333 -15.5 -111s-32.166 -129.334 -65.499 -254.001c-58 -214.667 -87 -339 -87 -373
c0 -9.33301 2.83301 -17.5 8.5 -24.5s12.167 -10.5 19.5 -10.5c20 0 73.333 31 160 93l12 -1l22 -40l-4 -13l-167 -114.5c-64.667 -43 -110.834 -69.833 -138.501 -80.5s-51.834 -16 -72.501 -16c-26 0 -45.333 9.66699 -58 29s-19 44.333 -19 75s3.83301 65.5 11.5 104.5
s24.167 106.5 49.5 202.5c56 214 84 340 84 378c0 18.667 -7.66699 28 -23 28c-25.333 0 -83.333 -32 -174 -96zM875 1474c-232.667 -160 -410.333 -287.333 -533 -382l-52 27l7 13l165 188l130 145l15 10l132 12l121 15l10 -5z" />
    <glyph glyph-name="icircumflex" unicode="&#xee;" horiz-adv-x="682" 
d="M79 679l-20 35.001l2 13c117.333 91.333 208.833 156 274.5 194s116.834 57 153.501 57c16.667 0 31 -7.16699 43 -21.5s18 -32.5 18 -54.5c0 -29.333 -5.16699 -66.333 -15.5 -111s-32.166 -129.334 -65.499 -254.001c-58 -214.667 -87 -339 -87 -373
c0 -9.33301 2.83301 -17.5 8.5 -24.5s12.167 -10.5 19.5 -10.5c20 0 73.333 31 160 93l12 -1l22 -40l-4 -13l-167 -114.5c-64.667 -43 -110.834 -69.833 -138.501 -80.5s-51.834 -16 -72.501 -16c-26 0 -45.333 9.66699 -58 29s-19 44.333 -19 75s3.83301 65.5 11.5 104.5
s24.167 106.5 49.5 202.5c56 214 84 340 84 378c0 18.667 -7.66699 28 -23 28c-25.333 0 -83.333 -32 -174 -96zM774 1121l-9 -11h-55l-198 219l-291 -219h-63l-8 11l318 361h141zM910 1222z" />
    </font>
</defs>
</svg>
